<?xml version="1.0" encoding="iso-8859-1"?>
<!-- Generator: Adobe Illustrator 19.0.0, SVG Export Plug-In . SVG Version: 6.00 Build 0)  -->
<svg version="1.1" id="Layer_1" xmlns="http://www.w3.org/2000/svg" xmlns:xlink="http://www.w3.org/1999/xlink" x="0px" y="0px"
	 viewBox="0 0 512 512" style="enable-background:new 0 0 512 512;" xml:space="preserve">
<g>
	<g>
		<path d="M168.089,328.173v39.751h175.822v-39.751H168.089z M328.173,352.187H183.827v-8.276h144.346V352.187z"/>
	</g>
</g>
<g>
	<g>
		<path d="M335.213,385.574v-9.443h-15.738V416h-7.344v15.738h7.344v9.443h-128v-9.443h8.393V416h-8.393v-39.869h-15.738v80.787
			h159.475v-8.393h23.082v-62.951H335.213z M342.557,432.787h-7.344v-31.475h7.344V432.787z"/>
	</g>
</g>
<g>
	<g>
		<rect x="208.262" y="416" width="95.475" height="15.738"/>
	</g>
</g>
<g>
	<g>
		<rect x="127.475" y="471.607" width="16.787" height="15.738"/>
	</g>
</g>
<g>
	<g>
		<rect x="152.656" y="471.607" width="14.688" height="15.738"/>
	</g>
</g>
<g>
	<g>
		<rect x="175.738" y="471.607" width="15.738" height="15.738"/>
	</g>
</g>
<g>
	<g>
		<rect x="199.869" y="471.607" width="16.787" height="15.738"/>
	</g>
</g>
<g>
	<g>
		<rect x="225.049" y="471.607" width="14.689" height="15.738"/>
	</g>
</g>
<g>
	<g>
		<rect x="248.131" y="471.607" width="15.738" height="15.738"/>
	</g>
</g>
<g>
	<g>
		<rect x="272.262" y="471.607" width="14.689" height="15.738"/>
	</g>
</g>
<g>
	<g>
		<rect x="295.344" y="471.607" width="16.787" height="15.738"/>
	</g>
</g>
<g>
	<g>
		<rect x="320.525" y="471.607" width="15.738" height="15.738"/>
	</g>
</g>
<g>
	<g>
		<rect x="344.656" y="471.607" width="14.688" height="15.738"/>
	</g>
</g>
<g>
	<g>
		<rect x="367.738" y="471.607" width="16.787" height="15.738"/>
	</g>
</g>
<g>
	<g>
		<rect x="199.869" y="111.738" width="16.787" height="15.738"/>
	</g>
</g>
<g>
	<g>
		<rect x="225.049" y="111.738" width="14.689" height="15.738"/>
	</g>
</g>
<g>
	<g>
		<rect x="248.131" y="111.738" width="15.738" height="15.738"/>
	</g>
</g>
<g>
	<g>
		<rect x="272.262" y="111.738" width="14.689" height="15.738"/>
	</g>
</g>
<g>
	<g>
		<rect x="295.344" y="111.738" width="16.787" height="15.738"/>
	</g>
</g>
<g>
	<g>
		<path d="M432.093,72.918h-8.004c-13.307,0-23.996-10.852-23.996-24.191c0-13.339,10.661-24.19,24.3-24.19V8.799
			c-22.033,0-40.038,17.912-40.038,39.929s17.75,39.928,39.734,39.928h8.004c35.383,0,64.169,28.946,64.169,64.525
			c0,35.542-28.73,64.464-64.062,64.525c0,0-55.175-1.591-56.137-1.591c-17.728,0-32.152-14.423-32.152-32.153l-0.001-95.916h-0.339
			c-0.365-22.999-9.111-44.751-25.208-61.389C301.733,9.467,279.939,0,256.525,0c-23.488,0-45.694,9.242-62.526,26.022
			c-16.85,16.798-26.13,38.977-26.13,62.452l0.22,95.487c0,8.589-3.345,16.663-9.417,22.736c-6.068,6.068-14.135,9.412-22.716,9.418
			l-55.344-0.509c-17.149,0-33.39-6.785-45.732-19.105c-12.345-12.322-19.142-28.542-19.142-45.674
			c0-35.439,28.786-64.271,64.17-64.271h8.004c21.973,0,39.734-17.968,39.734-40.056c0-22.086-18.005-40.055-40.038-40.055v15.738
			c13.639,0,24.3,10.908,24.3,24.317s-10.7,24.318-23.996,24.318h-8.004C35.846,70.82,0,106.711,0,150.828
			c0,21.341,8.439,41.517,23.761,56.812c15.314,15.287,35.503,23.704,56.779,23.704l20.241,0.186
			c-7.896,8.543-12.734,19.953-12.734,32.475V512h335.908V264.004c0-11.869-4.35-22.735-11.527-31.11l19.446,0.547l0.221,0.003
			C476.154,233.443,512,197.438,512,153.18S476.154,72.918,432.093,72.918z M205.101,37.167
			c13.862-13.819,32.113-21.43,51.407-21.43c19.113,0,37.135,7.764,50.775,21.863c13.242,13.687,20.636,31.551,21.01,50.446H183.611
			C183.722,68.942,191.338,50.888,205.101,37.167z M408.217,471.607h-15.299v15.738h15.298v8.918H103.784v-8.918h15.298v-15.738
			h-15.298V264.005c0-17.729,14.424-32.153,32.153-32.153c12.792,0,24.818-4.982,33.863-14.028
			c9.046-9.045,14.028-21.072,14.026-33.863v-56.486h7.648v-15.738h-7.648v-7.954h144.346v7.954h-7.648v15.738h7.648l0.001,56.487
			c0,26.407,21.483,47.891,47.89,47.891c17.729,0,32.153,14.423,32.153,32.152V471.607z"/>
	</g>
</g>
<g>
	<g>
		<rect x="431.738" y="8.918" width="25.18" height="15.738"/>
	</g>
</g>
<g>
	<g>
		<rect x="55.082" y="6.327" width="25.18" height="15.738"/>
	</g>
</g>
<g>
</g>
<g>
</g>
<g>
</g>
<g>
</g>
<g>
</g>
<g>
</g>
<g>
</g>
<g>
</g>
<g>
</g>
<g>
</g>
<g>
</g>
<g>
</g>
<g>
</g>
<g>
</g>
<g>
</g>
</svg>
