<?xml version="1.0" encoding="iso-8859-1"?>
<!-- Generator: Adobe Illustrator 19.0.0, SVG Export Plug-In . SVG Version: 6.00 Build 0)  -->
<svg version="1.1" id="Layer_1" xmlns="http://www.w3.org/2000/svg" xmlns:xlink="http://www.w3.org/1999/xlink" x="0px" y="0px"
	 viewBox="0 0 512.001 512.001" style="enable-background:new 0 0 512.001 512.001;" xml:space="preserve">
<g>
	<g>
		<path d="M407.511,232.815v-7.877h-63.735c-30.616,0-59.026,9.637-82.352,26.035c-5.613-15.182-20.234-26.035-37.343-26.035H104.49
			v7.877c0,72.632,51.377,133.481,119.695,148.139v99.231c0,17.544,14.272,31.816,31.815,31.816
			c17.544,0,31.816-14.272,31.816-31.816v-16.193c6.685,5.084,15.015,8.111,24.042,8.111c19.115,0,60.26-27.751,68.314-33.315
			l9.383-6.481l-9.383-6.481c-8.054-5.563-49.199-33.315-68.314-33.315c-9.027,0-17.358,3.026-24.042,8.111v-19.668
			C356.135,366.296,407.511,305.447,407.511,232.815z M311.858,408.265c8.757,0,31.618,12.526,49.599,24.042
			c-17.981,11.517-40.843,24.042-49.599,24.042c-10.366,0-19.22-6.594-22.589-15.809h22.393v-15.753h-22.634
			C292.192,415.203,301.228,408.265,311.858,408.265z M120.469,240.692h103.613c12.234,0,22.363,9.186,23.853,21.022
			c-26.548,23.855-44.177,57.44-47.219,95.088C155.609,336.608,123.448,292.491,120.469,240.692z M272.064,407.983h-16.063v15.753
			h16.063v56.448c0,8.857-7.205,16.063-16.063,16.063c-8.857,0-16.062-7.205-16.062-16.063v-8.138h16.062v-15.753h-16.062v-72.819
			c5.279,0.559,10.638,0.852,16.062,0.852c5.425,0,10.784-0.293,16.063-0.852V407.983z M256.001,368.572
			c-13.867,0-27.258-2.091-39.869-5.973c3.075-67.746,59.153-121.908,127.645-121.908h47.756
			C387.438,311.895,328.213,368.572,256.001,368.572z"/>
	</g>
</g>
<g>
	<g>
		<path d="M327.818,113.223c-16.566,0-30.794,10.178-36.776,24.606c-18.074-15.338-41.453-24.606-66.96-24.606h-87.673v103.632
			h15.753v-87.879h71.92c48.457,0,87.879,39.423,87.879,87.879h15.753c0-25.077-8.955-48.101-23.832-66.045
			c1.12-12.225,11.424-21.834,23.936-21.834h32.022v87.879h15.753V113.223H327.818z"/>
	</g>
</g>
<g>
	<g>
		<path d="M301.244,34.951c-20.212-18.674-40.123-31.634-40.961-32.177L256.001,0l-4.282,2.774
			c-0.838,0.543-20.749,13.504-40.961,32.177c-28.154,26.01-42.429,49.625-42.429,70.19h15.753
			c-0.001-30.586,48.439-70.166,71.921-86.284c23.484,16.103,71.917,55.657,71.917,86.284h15.753
			C343.673,84.576,329.398,60.961,301.244,34.951z"/>
	</g>
</g>
<g>
	<g>
		<path d="M293.246,331.209c-9.251,3.613-19.391,5.445-28.843,5.445v15.753c11.552,0,23.594-2.195,34.68-6.524L293.246,331.209z"/>
	</g>
</g>
<g>
	<g>
		<path d="M343.88,256.754c0,30.168-16.7,57.447-43.586,71.191l7.171,14.026c32.178-16.449,52.168-49.102,52.168-85.217H343.88z"/>
	</g>
</g>
<g>
	<g>
		<rect x="168.832" y="161.186" width="15.753" height="55.661"/>
	</g>
</g>
<g>
	<g>
		<path d="M280.938,54.779c-10.841-8.537-21.695-12.691-22.152-12.864l-5.585,14.729c0.351,0.134,35.073,13.731,34.822,40.442
			l15.753,0.148C303.925,81.342,296.028,66.661,280.938,54.779z"/>
	</g>
</g>
<g>
</g>
<g>
</g>
<g>
</g>
<g>
</g>
<g>
</g>
<g>
</g>
<g>
</g>
<g>
</g>
<g>
</g>
<g>
</g>
<g>
</g>
<g>
</g>
<g>
</g>
<g>
</g>
<g>
</g>
</svg>
