<?xml version="1.0" encoding="iso-8859-1"?>
<!-- Generator: Adobe Illustrator 19.0.0, SVG Export Plug-In . SVG Version: 6.00 Build 0)  -->
<svg version="1.1" id="Layer_1" xmlns="http://www.w3.org/2000/svg" xmlns:xlink="http://www.w3.org/1999/xlink" x="0px" y="0px"
	 viewBox="0 0 512 512" style="enable-background:new 0 0 512 512;" xml:space="preserve">
<g>
	<g>
		<path d="M383.916,224.215V95.901C383.916,43.021,340.894,0,288.013,0h-64.04c-52.88,0-95.901,43.021-95.901,95.901v128.314
			c-21.252,15.962-38.278,36.974-49.387,60.999c-12.187,26.357-16.901,55.799-13.63,85.142
			c8.16,73.219,67.192,132.348,140.363,140.596c6.316,0.713,82.592,1.048,82.592,1.048c0.003,0-0.002,0,0.001,0
			c42.718,0,82.888-16.638,113.095-46.845c30.209-30.209,46.846-70.374,46.846-113.095
			C447.956,301.883,424.093,254.4,383.916,224.215z M232.673,496.062v-15.846h-15.694v15.916c-3.255-0.157-6.522-0.406-9.802-0.776
			c-65.955-7.435-119.167-60.736-126.523-126.739c-2.954-26.497,1.292-53.06,12.277-76.817
			c10.534-22.78,26.973-42.564,47.542-57.214l3.295-2.347V95.901c0-41.868,32.25-76.325,73.211-79.883v23.716h15.694v-23.56
			c40.149,4.352,71.509,38.44,71.509,79.727v136.34l3.295,2.347c38.036,27.09,60.745,71.005,60.745,117.471
			c0,41.022-17.557,80.239-48.169,107.594C295.405,481.678,265.044,494.197,232.673,496.062z M399.032,432.087v-8.37h14.235
			c-6.294,10.961-14.077,21.162-23.255,30.34c-11.017,11.017-23.504,20.03-37.016,26.861v-9.072h-17.787v15.694h2.517
			c-14.015,5.133-28.871,8.074-44.147,8.65c13.2-6.412,25.61-14.717,36.932-24.834c5.324-4.758,10.292-9.841,14.885-15.203h23.293
			v-15.694h-11.457c11.354-17.131,19.329-36.323,23.446-56.499h11.029v-15.694h-8.626c0.548-5.361,0.834-10.768,0.834-16.206
			c0-19.344-3.561-38.281-10.22-55.987h9.642v-15.694h-14.648v3.835c-11.007-23.377-27.641-44.09-48.813-59.997v-16.031h15.332
			V192.49h-15.332v-63.823h8.008v-15.694h-8.008V95.901c0-20.961-6.765-40.37-18.219-56.167h2.164V24.039h-14.648v1.601
			c-3.937-3.656-8.181-6.986-12.688-9.946h11.53c18.408,0,35.375,6.248,48.926,16.715h-1.732v15.694h17.173
			c9.945,13.358,15.84,29.902,15.84,47.797v32.766h-15.226v14.648H335.21v15.694h17.787v-14.648h15.226v87.88l3.295,2.347
			c6.148,4.379,11.889,9.203,17.205,14.401h-13.754v15.694h16.74v-12.688c16.539,17.146,28.561,38.082,35.045,60.817h-18.305v15.694
			h21.84c1.293,7.73,1.973,15.602,1.973,23.553c-0.001,19.539-3.867,38.482-11.223,55.964h-22.007v8.37h-15.694v15.694H399.032z"/>
	</g>
</g>
<g>
	<g>
		<path d="M223.975,264.163c-48.466,0-87.896,39.43-87.896,87.896c0,48.467,39.43,87.897,87.896,87.897
			c48.467,0,87.896-39.43,87.896-87.897C311.871,303.593,272.441,264.163,223.975,264.163z M223.975,424.261
			c-39.812,0-72.201-32.39-72.201-72.203c0-39.812,32.39-72.201,72.201-72.201c39.812,0,72.202,32.39,72.202,72.201
			C296.176,391.872,263.787,424.261,223.975,424.261z"/>
	</g>
</g>
<g>
	<g>
		<path d="M224.303,296.182v15.694c21.972,0,39.855,17.676,39.855,40.694h15.694C279.852,321.182,254.645,296.182,224.303,296.182z"
			/>
	</g>
</g>
<g>
	<g>
		<rect x="335.208" y="63.798" width="17.787" height="15.694"/>
	</g>
</g>
<g>
	<g>
		<rect x="335.208" y="208.188" width="17.787" height="15.694"/>
	</g>
</g>
<g>
	<g>
		<rect x="391.707" y="328.51" width="16.74" height="15.694"/>
	</g>
</g>
<g>
</g>
<g>
</g>
<g>
</g>
<g>
</g>
<g>
</g>
<g>
</g>
<g>
</g>
<g>
</g>
<g>
</g>
<g>
</g>
<g>
</g>
<g>
</g>
<g>
</g>
<g>
</g>
<g>
</g>
</svg>
