<?xml version="1.0" encoding="iso-8859-1"?>
<!-- Generator: Adobe Illustrator 19.0.0, SVG Export Plug-In . SVG Version: 6.00 Build 0)  -->
<svg version="1.1" id="Layer_1" xmlns="http://www.w3.org/2000/svg" xmlns:xlink="http://www.w3.org/1999/xlink" x="0px" y="0px"
	 viewBox="0 0 512 512" style="enable-background:new 0 0 512 512;" xml:space="preserve">
<g>
	<g>
		<path d="M312.047,8.004c-6.377,0-12.574,1.534-18.212,4.478C282.886,4.396,269.656,0,256.001,0
			c-16.541,0-32.373,6.457-44.237,17.879c-3.861-1.237-7.812-1.857-11.803-1.857c-21.967,0-39.838,17.964-39.838,39.853h15.635
			c0-13.55,10.858-24.218,24.205-24.218c3.51,0,7.019,0.827,10.429,2.469l5.368,2.585l3.916-4.491
			c9.191-10.541,22.432-16.586,36.326-16.586c11.785,0,23.158,4.35,32.023,12.247l4.715,4.202l5.099-3.727
			c4.22-3.086,9.134-4.716,14.209-4.716c13.35,0,24.212,10.859,24.212,24.207v8.03h15.635v-8.03
			C351.893,25.876,334.019,8.004,312.047,8.004z"/>
	</g>
</g>
<g>
	<g>
		<rect x="168.448" y="168.448" width="15.635" height="15.635"/>
	</g>
</g>
<g>
	<g>
		<rect x="199.718" y="175.744" width="16.677" height="15.635"/>
	</g>
</g>
<g>
	<g>
		<rect x="264.341" y="256.003" width="15.635" height="15.635"/>
	</g>
</g>
<g>
	<g>
		<rect x="208.056" y="288.314" width="15.635" height="15.635"/>
	</g>
</g>
<g>
	<g>
		<rect x="264.341" y="320.626" width="15.635" height="15.635"/>
	</g>
</g>
<g>
	<g>
		<rect x="192.422" y="351.895" width="15.635" height="47.946"/>
	</g>
</g>
<g>
	<g>
		<rect x="232.029" y="408.18" width="15.635" height="15.635"/>
	</g>
</g>
<g>
	<g>
		<rect x="271.637" y="423.815" width="16.677" height="15.635"/>
	</g>
</g>
<g>
	<g>
		<rect x="312.288" y="168.448" width="15.635" height="15.635"/>
	</g>
</g>
<g>
	<g>
		<rect x="319.584" y="279.976" width="16.677" height="15.635"/>
	</g>
</g>
<g>
	<g>
		<rect x="199.718" y="248.706" width="16.677" height="15.635"/>
	</g>
</g>
<g>
	<g>
		<rect x="192.422" y="440.492" width="15.635" height="15.635"/>
	</g>
</g>
<g>
	<g>
		<rect x="295.611" y="351.895" width="16.677" height="15.635"/>
	</g>
</g>
<g>
	<g>
		<rect x="192.422" y="472.804" width="127.162" height="15.635"/>
	</g>
</g>
<g>
	<g>
		<path d="M224.165,55.874H239.8c0-4.169,3.693-8.22,7.862-8.22V32.02C235.154,32.02,224.165,42.324,224.165,55.874z"/>
	</g>
</g>
<g>
	<g>
		<path d="M359.889,107.011V64.044h-68.644c-14.917,0-27.051,12.136-27.051,27.051v19.42c0,13.114-9.577,24.301-21.803,25.468
			c-6.935,0.667-13.573-1.53-18.679-6.174c-5.04-4.582-7.93-11.112-7.93-17.917V91.095c0-14.917-12.136-27.051-27.051-27.051h-36.62
			v42.678c-18.841,9.287-32.024,30.756-32.024,53.206c0,22.504,13.249,44.022,32.163,53.273l8.076,298.8h191.351l8.074-301.54
			c19.441-9.115,32.163-28.787,32.163-50.532C391.913,137.079,376.358,116.195,359.889,107.011z M279.829,91.095
			c0-6.296,5.122-11.417,11.416-11.417h53.009v24.142h-64.425V91.095z M349.463,197.801l-5.061,1.793l-5.166,192.948H327.92v15.635
			h10.896l-2.361,88.189H175.543l-6.722-248.705h15.258v-15.635h-15.682l-0.45-16.677h96.39v-15.635H160.343
			c-14.182-6.237-24.622-22.877-24.622-39.786c0-2.741,0.276-5.475,0.796-8.16h63.196v-15.635h-57.063
			c4.728-7.657,11.541-13.749,19.375-16.677h30.391v-15.635h-24.673V79.679h20.985c6.294,0,11.416,5.121,11.416,11.417v20.796
			c0,11.201,4.756,21.948,13.047,29.486c8.285,7.533,19.475,11.237,30.683,10.169c17.236-1.644,31.269-15.058,34.981-32.091h70.999
			c6.685,2.989,13.533,9.08,18.582,16.677h-88.466v15.635h95.352c0.616,2.69,0.953,5.425,0.953,8.16
			C376.278,176.902,365.502,192.123,349.463,197.801z"/>
	</g>
</g>
<g>
</g>
<g>
</g>
<g>
</g>
<g>
</g>
<g>
</g>
<g>
</g>
<g>
</g>
<g>
</g>
<g>
</g>
<g>
</g>
<g>
</g>
<g>
</g>
<g>
</g>
<g>
</g>
<g>
</g>
</svg>
