<?xml version="1.0" encoding="iso-8859-1"?>
<!-- Generator: Adobe Illustrator 19.0.0, SVG Export Plug-In . SVG Version: 6.00 Build 0)  -->
<svg version="1.1" id="Layer_1" xmlns="http://www.w3.org/2000/svg" xmlns:xlink="http://www.w3.org/1999/xlink" x="0px" y="0px"
	 viewBox="0 0 511.998 511.998" style="enable-background:new 0 0 511.998 511.998;" xml:space="preserve">
<g>
	<g>
		<path d="M311.167,152.65c-15.094-32.706-23.126-68.997-23.274-105.021c4.121-0.504,7.858-2.596,10.456-5.924
			c3.001-3.844,4.044-8.763,2.862-13.494l-2.937-11.75C295.851,6.769,287.181,0,277.191,0h-42.386c-9.99,0-18.66,6.769-21.082,16.46
			l-2.937,11.75c-1.183,4.732-0.14,9.649,2.862,13.494c2.599,3.328,6.335,5.421,10.457,5.924
			c-0.148,36.025-8.181,72.318-23.275,105.021c-16.183,35.063-24.737,74.009-24.737,112.625v206.703
			c0,22.068,17.954,40.021,40.021,40.021h79.77c22.068,0,40.021-17.953,40.021-40.021V265.276
			C335.904,226.658,327.35,187.712,311.167,152.65z M228.989,20.277c0.668-2.674,3.06-4.541,5.816-4.541h42.386
			c2.756,0,5.149,1.867,5.817,4.541l2.965,11.738c0,0-0.006,0.001-0.019,0.001h-59.9L228.989,20.277z M255.998,112.059
			c-10.542,0-19.504,6.87-22.66,16.368h-6.293c2.527-7.934,4.705-15.988,6.494-24.129h44.919c1.789,8.141,3.967,16.193,6.494,24.129
			h-6.293C275.503,118.93,266.541,112.059,255.998,112.059z M264.138,135.935c0,4.488-3.652,8.141-8.141,8.141
			c-4.489,0-8.141-3.652-8.141-8.141s3.652-8.141,8.141-8.141C260.486,127.795,264.138,131.448,264.138,135.935z M236.501,88.562
			c2.146-13.516,3.29-27.178,3.35-40.808h32.295c0.06,13.63,1.202,27.293,3.349,40.808H236.501z M191.827,265.275
			c0.001-36.356,8.054-73.022,23.289-106.033c2.285-4.951,4.4-9.987,6.378-15.08h12.088c3.359,9.125,12.14,15.65,22.416,15.65
			c10.276,0,19.056-6.525,22.415-15.65h12.087c1.979,5.094,4.094,10.13,6.378,15.081c15.236,33.01,23.288,69.676,23.288,106.033
			v6.872h-28.472c-8.775-9.818-21.525-16.013-35.699-16.013c-14.174,0-26.923,6.195-35.699,16.013h-28.472V265.275z
			 M320.167,287.885v8.393h-16.916c-0.473-2.892-1.202-5.699-2.171-8.393H320.167z M288.15,304.026
			c0,17.729-14.424,32.153-32.153,32.153s-32.153-14.424-32.153-32.153s14.424-32.153,32.153-32.153S288.15,286.297,288.15,304.026z
			 M191.827,287.885h19.087c-0.966,2.694-1.696,5.5-2.169,8.393h-16.917V287.885z M320.168,471.979
			c0,13.39-10.895,24.285-24.285,24.285h-79.77c-13.391,0-24.285-10.895-24.285-24.285v-24.634h128.34V471.979z M320.168,431.608
			h-128.34v-7.343h128.34V431.608z M320.169,408.528H191.828v-96.515h16.96c3.815,22.616,23.526,39.901,47.21,39.901
			c23.684,0,43.395-17.287,47.21-39.901h16.96V408.528z"/>
	</g>
</g>
<g>
	<g>
		<path d="M255.997,280.149c-13.166,0-23.877,10.711-23.877,23.877c0,13.166,10.711,23.877,23.877,23.877
			c13.166,0,23.877-10.712,23.877-23.877C279.874,290.86,269.163,280.149,255.997,280.149z M255.998,312.167
			c-4.489,0-8.141-3.653-8.141-8.141c0-4.488,3.652-8.141,8.141-8.141c4.489,0,8.141,3.652,8.141,8.141
			S260.487,312.167,255.998,312.167z"/>
	</g>
</g>
<g>
	<g>
		<rect x="208.574" y="384.401" width="95.465" height="15.736"/>
	</g>
</g>
<g>
	<g>
		<rect x="223.261" y="360.272" width="65.042" height="15.736"/>
	</g>
</g>
<g>
</g>
<g>
</g>
<g>
</g>
<g>
</g>
<g>
</g>
<g>
</g>
<g>
</g>
<g>
</g>
<g>
</g>
<g>
</g>
<g>
</g>
<g>
</g>
<g>
</g>
<g>
</g>
<g>
</g>
</svg>
