<?xml version="1.0" encoding="iso-8859-1"?>
<!-- Generator: Adobe Illustrator 19.0.0, SVG Export Plug-In . SVG Version: 6.00 Build 0)  -->
<svg version="1.1" id="Layer_1" xmlns="http://www.w3.org/2000/svg" xmlns:xlink="http://www.w3.org/1999/xlink" x="0px" y="0px"
	 viewBox="0 0 512 512" style="enable-background:new 0 0 512 512;" xml:space="preserve">
<g>
	<g>
		<path d="M315.699,46.125c-13.367-11.882-30.495-19.75-47.545-21.645c-7.461-10.303-19.437-16.54-32.17-16.54
			c-6.374,0-12.569,1.555-18.206,4.494C206.826,4.352,193.596,0,179.939,0c-20.819,0-40.053,10.093-52.057,27.01
			c-30.691,8.865-51.867,36.735-51.867,69.166h15.692c0.001-26.154,17.637-48.572,42.888-54.717l3.057-0.916l1.696-2.65
			c8.931-13.955,24.105-22.285,40.589-22.285c11.778,0,23.145,4.349,32.005,12.243l4.734,4.22l5.118-3.737
			c4.215-3.081,9.12-4.7,14.188-4.7c8.674,0,16.478,4.603,20.877,12.276l2.115,3.735l4.247,0.327
			c28.79,1.633,60.99,25.865,60.99,56.204h15.692C339.906,77.344,331.308,60.005,315.699,46.125z"/>
	</g>
</g>
<g>
	<g>
		<polygon points="123.738,431.993 123.738,135.93 108.045,135.93 108.045,447.685 139.43,447.685 139.43,431.993 		"/>
	</g>
</g>
<g>
	<g>
		<polygon points="179.184,431.993 179.184,215.438 163.492,215.438 163.492,447.685 195.923,447.685 195.923,431.993 		"/>
	</g>
</g>
<g>
	<g>
		<polygon points="235.677,431.993 235.677,168.361 219.984,168.361 219.984,447.685 251.369,447.685 251.369,431.993 		"/>
	</g>
</g>
<g>
	<g>
		<polygon points="292.169,431.993 292.169,152.668 276.477,152.668 276.477,447.685 307.862,447.685 307.862,431.993 		"/>
	</g>
</g>
<g>
	<g>
		<rect x="116.417" y="464.422" width="183.078" height="15.692"/>
	</g>
</g>
<g>
	<g>
		<path d="M371.21,128.014h-31.303v-24.019h-55.884c-13.156,0-23.86,10.702-23.86,23.859v8.006c0,4.504-3.664,8.167-8.166,8.167
			c-4.503,0-8.166-3.664-8.166-8.167v-8.005c0-13.155-10.703-23.86-23.86-23.86c-13.155,0-23.859,10.703-23.859,23.86v36.028
			c0,5.389-2.099,10.456-5.909,14.268c-3.81,3.811-8.878,5.909-14.266,5.909c-11.125,0-20.176-9.05-20.176-20.176v-36.028
			c0-13.155-10.703-23.86-23.859-23.86H76.017V512h263.89V399.911h42.324c29.64,0,53.753-24.114,53.753-53.753v-153.37
			C435.983,157.073,406.926,128.014,371.21,128.014z M324.215,464.423h-16.353v15.692h16.353v16.192H91.71v-16.192h16.336v-15.692
			H91.71V119.688h40.192c4.503,0,8.166,3.664,8.166,8.167v36.028c0,19.778,16.09,35.869,35.869,35.869
			c9.581,0,18.588-3.731,25.363-10.506c6.775-6.775,10.505-15.782,10.505-25.363v-36.028c0-4.504,3.664-8.167,8.167-8.167
			c4.503,0,8.166,3.664,8.166,8.167v8.005c0,13.155,10.703,23.86,23.859,23.86s23.859-10.703,23.859-23.86v-8.006
			c0-4.503,3.664-8.166,8.167-8.166h40.191V464.423z M420.29,346.159c0,20.987-17.073,38.06-38.06,38.06h-42.325v-72.378h16.334
			v32.185c0,13.155,10.703,23.86,23.859,23.86s23.859-10.703,23.859-23.86V183.899c0-13.155-10.703-23.86-23.859-23.86
			s-23.859,10.703-23.859,23.86v32.186h-16.334v-72.379h31.303c27.063,0,49.082,22.019,49.082,49.082V346.159z M339.907,296.149
			v-64.371h32.026v-47.879c0-4.504,3.664-8.167,8.166-8.167c4.503,0,8.166,3.664,8.166,8.167v160.127
			c0,4.504-3.664,8.167-8.166,8.167c-4.503,0-8.166-3.664-8.166-8.167v-47.878H339.907z"/>
	</g>
</g>
<g>
</g>
<g>
</g>
<g>
</g>
<g>
</g>
<g>
</g>
<g>
</g>
<g>
</g>
<g>
</g>
<g>
</g>
<g>
</g>
<g>
</g>
<g>
</g>
<g>
</g>
<g>
</g>
<g>
</g>
</svg>
