<?xml version="1.0" encoding="iso-8859-1"?>
<!-- Generator: Adobe Illustrator 19.0.0, SVG Export Plug-In . SVG Version: 6.00 Build 0)  -->
<svg version="1.1" id="Layer_1" xmlns="http://www.w3.org/2000/svg" xmlns:xlink="http://www.w3.org/1999/xlink" x="0px" y="0px"
	 viewBox="0 0 512 512" style="enable-background:new 0 0 512 512;" xml:space="preserve">
<g>
	<g>
		<path d="M0,426.689v15.673h25.073c3.753,27.123,27.076,48.081,55.217,48.081h351.42c28.139,0,51.463-20.958,55.217-48.081H512
			v-15.673H0z M431.71,474.77H80.29c-19.477,0-35.746-13.966-39.338-32.408h430.097C467.456,460.804,451.187,474.77,431.71,474.77z"
			/>
	</g>
</g>
<g>
	<g>
		<path d="M415.737,228.159h-8.227v-9.404h-15.673v9.404h-15.673v-9.404H360.49v9.404h-16.718v-9.404h-16.718v9.404h-12.321
			c3.167-4.942,5.012-10.81,5.012-17.103c0-10.94-5.555-20.607-13.991-26.33l16.343-38.779c0.004-0.01,0.489-1.03,3.048-2.719
			c4.169-2.75,9.432-4.203,15.221-4.203h3.489v-15.673h-3.489c-8.865,0-17.112,2.349-23.851,6.792
			c-4.407,2.907-7.293,6.055-8.843,9.671l-16.686,39.594c-1.001-0.095-2.013-0.148-3.04-0.148c-10.538,0-19.889,5.157-25.678,13.074
			V99.636h-14.629v-9.789c9.405-3.184,16.196-12.088,16.196-22.554c0-3.388-1.692-13.715-17.362-36.402l-6.448-9.335l-6.448,9.335
			c-15.671,22.687-17.363,33.015-17.363,36.402c0,10.301,6.577,19.092,15.752,22.404v9.939h-16.718v128.522h-15.673v-9.404h-14.629
			v9.404h-16.718v-9.404h-16.718v9.404h-15.673v-9.404h-15.673v9.404h-7.926c-13.129,0-23.81,10.547-23.81,23.51
			c0.001,12.82,10.449,23.27,23.379,23.5V418.33h15.673v-12.9l8.649,2.883c5.066,1.691,10.482,1.898,15.663,0.603l21.345-5.335
			c1.96-0.493,4.033-0.491,5.994,0l22.152,5.538c4.448,1.112,9.15,1.112,13.596,0l22.153-5.538c1.96-0.492,4.032-0.492,5.994,0
			l22.152,5.538c4.448,1.112,9.15,1.112,13.596,0l22.153-5.538c1.96-0.492,4.032-0.492,5.994,0l22.152,5.538
			c4.447,1.112,9.149,1.112,13.597,0l21.345-5.336c2.283-0.572,4.67-0.478,6.904,0.265l12.563,4.187v10.096h15.673V275.179h8.359
			v-15.673H112.238c-4.563,0-8.137-3.442-8.137-7.837c0-4.395,3.574-7.837,8.137-7.837h303.499c4.593,0,7.447,2.743,7.447,7.158
			v167.34h15.673V250.99C438.857,237.975,428.917,228.159,415.737,228.159z M127.478,275.179h256v28.678l-7.606-2.535
			c-5.066-1.686-10.481-1.896-15.662-0.602l-21.345,5.336c-1.96,0.493-4.033,0.491-5.994,0l-22.152-5.538
			c-4.448-1.112-9.15-1.112-13.596,0l-22.153,5.538c-1.96,0.492-4.032,0.492-5.994,0l-22.152-5.538
			c-4.448-1.112-9.149-1.112-13.596,0l-22.153,5.538c-1.96,0.492-4.032,0.492-5.994,0l-22.152-5.538
			c-4.447-1.112-9.149-1.112-13.597,0l-21.345,5.335c-2.285,0.57-4.672,0.48-6.904-0.264l-13.607-4.535V275.179z M127.478,317.576
			l8.651,2.884c5.067,1.689,10.482,1.895,15.662,0.601l21.345-5.335c1.96-0.492,4.033-0.492,5.994,0l22.152,5.538
			c4.448,1.112,9.15,1.112,13.596,0l22.153-5.538c1.96-0.492,4.032-0.492,5.994,0l22.152,5.538c4.448,1.111,9.15,1.113,13.596,0
			l22.153-5.538c1.96-0.492,4.032-0.492,5.994,0l22.152,5.538c4.447,1.111,9.149,1.113,13.597,0l21.343-5.336
			c2.283-0.572,4.673-0.48,6.906,0.265l12.562,4.187v7.438l-7.606-2.535c-5.067-1.688-10.481-1.894-15.662-0.601l-21.345,5.335
			c-1.96,0.492-4.033,0.492-5.994,0l-22.152-5.538c-4.448-1.112-9.15-1.112-13.596,0l-22.153,5.538c-1.96,0.492-4.032,0.492-5.994,0
			l-22.152-5.538c-4.448-1.112-9.149-1.112-13.596,0l-22.153,5.538c-1.96,0.492-4.032,0.492-5.994,0l-22.152-5.538
			c-4.447-1.112-9.149-1.112-13.597,0l-21.345,5.335c-2.284,0.572-4.672,0.481-6.904-0.264l-13.607-4.535V317.576z M127.478,341.536
			l8.651,2.884c5.067,1.688,10.482,1.894,15.662,0.601l21.345-5.335c1.96-0.492,4.033-0.492,5.994,0l22.152,5.538
			c4.448,1.112,9.15,1.112,13.596,0l22.153-5.538c1.96-0.492,4.032-0.492,5.994,0l22.152,5.538c4.448,1.112,9.15,1.112,13.596,0
			l22.153-5.538c1.96-0.492,4.032-0.492,5.994,0l22.152,5.538c4.447,1.112,9.149,1.112,13.597,0l21.345-5.335
			c2.285-0.572,4.672-0.481,6.904,0.264l12.562,4.186v23.412l-7.606-2.535c-5.068-1.69-10.483-1.895-15.662-0.602l-21.342,5.336
			c-1.962,0.489-4.035,0.491-5.996,0l-22.152-5.539c-4.448-1.112-9.15-1.112-13.597,0l-22.151,5.539
			c-1.961,0.489-4.034,0.491-5.995,0l-22.152-5.539c-4.448-1.112-9.15-1.112-13.597,0l-22.151,5.539c-1.961,0.49-4.035,0.49-5.995,0
			l-22.152-5.539c-4.448-1.111-9.149-1.111-13.597,0l-21.345,5.336c-2.283,0.57-4.669,0.479-6.904-0.265l-13.608-4.534V341.536z
			 M127.478,381.469l8.651,2.884c5.067,1.69,10.483,1.895,15.662,0.602l21.345-5.336c1.959-0.492,4.032-0.492,5.994,0l22.154,5.539
			c4.446,1.111,9.147,1.111,13.595,0l22.153-5.539c1.96-0.492,4.032-0.492,5.992,0l22.155,5.539c4.447,1.111,9.146,1.111,13.594,0
			l22.153-5.539c1.96-0.492,4.032-0.492,5.992,0l22.155,5.539c4.446,1.111,9.147,1.111,13.595,0l21.345-5.336
			c2.284-0.572,4.672-0.479,6.904,0.265l12.561,4.186v7.44l-7.606-2.535c-5.068-1.689-10.483-1.895-15.662-0.602l-21.345,5.336
			c-1.96,0.492-4.033,0.492-5.994,0l-22.152-5.538c-4.448-1.112-9.15-1.112-13.596,0l-22.153,5.538c-1.96,0.492-4.032,0.492-5.994,0
			l-22.152-5.538c-4.448-1.112-9.149-1.112-13.596,0l-22.153,5.538c-1.96,0.492-4.032,0.492-5.994,0l-22.152-5.538
			c-4.447-1.112-9.149-1.112-13.597,0l-21.345,5.335c-2.284,0.572-4.67,0.48-6.904-0.265l-13.607-4.535V381.469z M231.889,67.299
			c0.052-2.464,3.447-9.564,8.138-17.443c4.689,7.878,8.083,14.977,8.137,17.44c-0.002,4.485-3.652,8.132-8.137,8.132
			C235.54,75.429,231.889,71.779,231.889,67.299z M246.596,228.159h-15.674v-64.784h15.674V228.159z M246.596,147.702h-15.674
			v-8.359h15.674V147.702z M246.596,123.669h-15.674v-8.359h15.674V123.669z M287.948,227.18c-8.891,0-16.124-7.233-16.124-16.124
			c0-8.891,7.233-16.124,16.124-16.124c8.89,0,16.124,7.233,16.124,16.124C304.072,219.947,296.839,227.18,287.948,227.18z"/>
	</g>
</g>
<g>
</g>
<g>
</g>
<g>
</g>
<g>
</g>
<g>
</g>
<g>
</g>
<g>
</g>
<g>
</g>
<g>
</g>
<g>
</g>
<g>
</g>
<g>
</g>
<g>
</g>
<g>
</g>
<g>
</g>
</svg>
