<?xml version="1.0" encoding="iso-8859-1"?>
<!-- Generator: Adobe Illustrator 19.0.0, SVG Export Plug-In . SVG Version: 6.00 Build 0)  -->
<svg version="1.1" id="Layer_1" xmlns="http://www.w3.org/2000/svg" xmlns:xlink="http://www.w3.org/1999/xlink" x="0px" y="0px"
	 viewBox="0 0 512 512" style="enable-background:new 0 0 512 512;" xml:space="preserve">
<g>
	<g>
		<path d="M386.828,43.363H53.075c-16.109,0-29.215,13.106-29.215,29.215v45.362c0,16.109,13.106,29.215,29.215,29.215
			c14.81,0,26.86,12.05,26.86,26.86v268.662c0,13.736,11.176,24.912,24.912,24.912h222.196c13.736,0,24.912-11.176,24.912-24.912
			V182.027c0-19.228,15.643-34.871,34.871-34.871c16.11,0,29.216-13.105,29.216-29.215V72.579
			C416.044,56.469,402.938,43.363,386.828,43.363z M400.37,117.941c0,7.467-6.075,13.542-13.543,13.542
			c-27.871,0-50.545,22.674-50.545,50.545v260.652c0,5.094-4.145,9.239-9.239,9.239H104.847c-5.094,0-9.239-4.145-9.239-9.239
			V174.017c0-23.453-19.081-42.534-42.534-42.534c-7.467,0-13.542-6.075-13.542-13.542V72.579c0-7.467,6.075-13.542,13.542-13.542
			h333.753c7.467,0,13.543,6.075,13.543,13.542V117.941z"/>
	</g>
</g>
<g>
	<g>
		<rect x="144.196" y="140.016" width="15.673" height="15.673"/>
	</g>
</g>
<g>
	<g>
		<rect x="192.261" y="115.984" width="15.673" height="15.673"/>
	</g>
</g>
<g>
	<g>
		<rect x="199.575" y="75.233" width="16.718" height="15.673"/>
	</g>
</g>
<g>
	<g>
		<rect x="216.294" y="171.363" width="15.673" height="15.673"/>
	</g>
</g>
<g>
	<g>
		<rect x="120.163" y="260.18" width="15.673" height="15.674"/>
	</g>
</g>
<g>
	<g>
		<rect x="175.543" y="308.245" width="16.718" height="15.674"/>
	</g>
</g>
<g>
	<g>
		<rect x="231.967" y="267.494" width="15.673" height="15.673"/>
	</g>
</g>
<g>
	<g>
		<rect x="175.543" y="219.429" width="16.718" height="15.673"/>
	</g>
</g>
<g>
	<g>
		<rect x="63.739" y="91.951" width="15.673" height="15.673"/>
	</g>
</g>
<g>
	<g>
		<rect x="111.804" y="75.233" width="15.673" height="15.673"/>
	</g>
</g>
<g>
	<g>
		<rect x="111.804" y="131.657" width="15.673" height="15.673"/>
	</g>
</g>
<g>
	<g>
		<rect x="336.457" y="107.625" width="15.673" height="15.673"/>
	</g>
</g>
<g>
	<g>
		<rect x="280.033" y="83.592" width="15.673" height="15.673"/>
	</g>
</g>
<g>
	<g>
		<rect x="271.673" y="140.016" width="16.718" height="15.673"/>
	</g>
</g>
<g>
	<g>
		<rect x="271.673" y="203.755" width="16.718" height="15.673"/>
	</g>
</g>
<g>
	<g>
		<rect x="280.033" y="308.245" width="15.673" height="15.674"/>
	</g>
</g>
<g>
	<g>
		<rect x="216.294" y="363.625" width="15.673" height="15.673"/>
	</g>
</g>
<g>
	<g>
		<rect x="280.033" y="411.69" width="15.673" height="15.673"/>
	</g>
</g>
<g>
	<g>
		<rect x="175.543" y="420.049" width="16.718" height="15.674"/>
	</g>
</g>
<g>
	<g>
		<rect x="111.804" y="363.625" width="15.673" height="15.673"/>
	</g>
</g>
<g>
	<g>
		<rect x="168.229" y="387.657" width="15.673" height="15.673"/>
	</g>
</g>
<g>
	<g>
		<rect x="304.065" y="371.984" width="15.673" height="15.674"/>
	</g>
</g>
<g>
	<g>
		<rect x="360.49" y="67.918" width="15.673" height="15.673"/>
	</g>
</g>
<g>
	<g>
		<rect x="391.837" y="356.31" width="16.718" height="15.673"/>
	</g>
</g>
<g>
	<g>
		<path d="M478.585,19.853H35.701C15.682,19.853,0,35.381,0,55.205v80.109c0,19.782,15.937,35.875,35.527,35.875
			c11.132,0,19.853,8.873,19.853,20.201v264.359c0,19.73,16.668,36.398,36.397,36.398H412.67c19.625,0,35.591-16.328,35.591-36.397
			V191.391c0-10.921,8.992-19.814,20.116-20.009l3.952-0.019h4.427c19.433,0,35.243-16.172,35.243-36.049V55.205
			C512,34.721,497.924,19.853,478.585,19.853z M360.49,455.75c0,11.234-9.331,20.723-20.376,20.723h-22.465H91.777
			c-11.233,0-20.723-9.491-20.723-20.723V191.391c0-19.781-15.937-35.874-35.527-35.874c-11.132,0-19.853-8.873-19.853-20.201
			v-80.11c0-11.035,8.797-19.679,20.028-19.679h368.501c11.23,0,20.027,8.643,20.027,19.679v80.109
			c0,11.235-8.985,20.376-20.028,20.376l-13.6,0.441c-17.039,2.692-30.111,17.476-30.111,35.26V455.75z M434.581,179.722h-18.712
			v15.673h16.718v48.065h-40.751v15.673h40.751v64.784h-32.392v15.673h32.392v96.131h-32.392v15.673h32.392v4.354
			c0,11.427-8.935,20.723-19.918,20.723h-42.945c4.053-5.886,6.439-13.028,6.439-20.723v-44.06h39.706v-15.674h-39.706v-96.131
			h32.392v-15.674h-32.392v-56.424h15.674v-15.673h-15.674v-20.724c0-9.898,6.837-17.897,16.148-19.658l46.412-0.214
			C437.003,174.043,435.609,176.799,434.581,179.722z M496.327,115.984h-32.392v15.673h32.392v3.657
			c0,11.426-8.596,20.376-19.57,20.376h-8.011c-0.266,0-0.529,0.015-0.793,0.02l-34.447,0.159
			c4.027-5.836,6.397-12.919,6.397-20.554V99.265h32.392V83.592h-32.392V55.205c0-7.477-2.233-14.341-6.086-19.993l44.714,0.315
			c7.931,0,15.904,4.896,17.492,15.673h-23.729v15.673h24.033V115.984z"/>
	</g>
</g>
<g>
</g>
<g>
</g>
<g>
</g>
<g>
</g>
<g>
</g>
<g>
</g>
<g>
</g>
<g>
</g>
<g>
</g>
<g>
</g>
<g>
</g>
<g>
</g>
<g>
</g>
<g>
</g>
<g>
</g>
</svg>
