<?xml version="1.0" encoding="iso-8859-1"?>
<!-- Generator: Adobe Illustrator 19.0.0, SVG Export Plug-In . SVG Version: 6.00 Build 0)  -->
<svg version="1.1" id="Layer_1" xmlns="http://www.w3.org/2000/svg" xmlns:xlink="http://www.w3.org/1999/xlink" x="0px" y="0px"
	 viewBox="0 0 512 512" style="enable-background:new 0 0 512 512;" xml:space="preserve">
<g>
	<g>
		<rect x="39.878" y="311.586" width="152.167" height="15.741"/>
	</g>
</g>
<g>
	<g>
		<rect x="415.573" y="311.586" width="56.669" height="15.741"/>
	</g>
</g>
<g>
	<g>
		<rect x="367.3" y="311.586" width="32.532" height="15.741"/>
	</g>
</g>
<g>
	<g>
		<path d="M381.566,152.079H130.434C58.512,152.079,0,210.592,0,282.512v29.201c0,26.582,21.626,48.208,48.206,48.208h415.587
			c26.581,0,48.206-21.626,48.206-48.208v-29.201C512,210.592,453.487,152.079,381.566,152.079z M496.258,311.586h-15.62v15.741
			h11.61c-5.528,10.036-16.209,16.853-28.454,16.853H48.206c-12.245,0-22.926-6.817-28.454-16.853h11.731v-15.741H15.741v-29.072
			c0-63.242,51.45-114.692,114.693-114.692h5.638v64.167c0,10.559-6.814,19.558-16.276,22.829V175.96h-15.741v95.917h7.871
			c21.994,0,39.888-17.894,39.888-39.888v-64.167h64.299v64.167c0,10.559-6.814,19.558-16.276,22.829V175.96h-15.741v95.917h7.871
			c21.994,0,39.888-17.894,39.888-39.888v-64.167h80.308v64.167c0,10.559-6.814,19.558-16.276,22.829V175.96h-15.741v95.917h7.871
			c21.994,0,39.888-17.894,39.888-39.888v-64.167h53.661c3.587,0,7.134,0.174,10.638,0.497v63.669
			c0,10.559-6.814,19.558-16.276,22.829v-78.858h-15.741v95.917h7.871c21.994,0,39.888-17.894,39.888-39.888v-61.1
			c50.568,11.949,88.312,57.459,88.312,111.626V311.586z"/>
	</g>
</g>
<g>
</g>
<g>
</g>
<g>
</g>
<g>
</g>
<g>
</g>
<g>
</g>
<g>
</g>
<g>
</g>
<g>
</g>
<g>
</g>
<g>
</g>
<g>
</g>
<g>
</g>
<g>
</g>
<g>
</g>
</svg>
