<?xml version="1.0" encoding="iso-8859-1"?>
<!-- Generator: Adobe Illustrator 19.0.0, SVG Export Plug-In . SVG Version: 6.00 Build 0)  -->
<svg version="1.1" id="Layer_1" xmlns="http://www.w3.org/2000/svg" xmlns:xlink="http://www.w3.org/1999/xlink" x="0px" y="0px"
	 viewBox="0 0 512.001 512.001" style="enable-background:new 0 0 512.001 512.001;" xml:space="preserve">
<g>
	<g>
		<path d="M511.483,290.794c0-15.741-6.964-30.698-18.854-40.941c0.24-1.816,0.357-3.573,0.357-5.3
			c0-24.746-20.132-44.878-44.878-44.878c-18.564,0-34.742,11.181-41.506,27.934c-1.598-0.126-3.178-0.189-4.735-0.189
			c-34.944,0-63.374,28.43-63.374,63.374c0,1.963,0.094,3.904,0.269,5.821l-20.207,15.048v-34.23
			c10.222-10.385,16.7-24.466,17.182-40.04c8.11-5.633,14.558-13.28,18.719-22.178c1.843,0.155,3.626,0.231,5.374,0.231
			c39.58,0,71.781-32.2,71.781-71.781c0-34.024-23.534-62.793-55.96-70.028c0.034-0.621,0.05-1.238,0.05-1.856
			c0-21.964-17.869-39.833-39.833-39.833c-9.176,0-18.054,3.255-25.141,9.087c-9.908-4.897-20.64-7.881-31.595-8.791
			C275.582,13.897,259.396,0,240.027,0c-18.314,0-33.781,12.422-38.416,29.284c-7.99-3.504-16.623-5.323-25.481-5.323
			c-35.177,0-63.794,28.618-63.794,63.794c0,8.981,1.927,17.869,5.615,26.066c-8.625,7.485-13.603,18.201-13.603,29.844
			c0,19.367,13.893,35.55,32.237,39.107c3.224,39.735,33.041,72.051,71.577,79.131v117.98l-47.067-17.656
			c0.556-1.011,1.088-2.041,1.584-3.093c20.793-1.306,37.309-18.638,37.309-39.754c0-15.971-9.785-30.336-24.094-36.54
			c0.089-1.141,0.133-2.271,0.133-3.395c0-21.269-14.033-39.738-34.038-45.73c-5.992-20.004-24.46-34.038-45.73-34.038
			c-17.565,0-33.54,9.584-41.889,24.773c-14.135,2.214-27.11,9.114-36.919,19.719c-10.922,11.805-16.935,27.17-16.935,43.262
			c0,19.742,9.043,38.114,24.446,50.177c-0.326,1.969-0.486,3.87-0.486,5.733c0,21.964,17.869,39.833,39.833,39.833
			c5.089,0,10.05-0.994,14.807-2.96c9.578,7.093,21.149,10.947,33.115,10.947c1.693,0,3.371-0.086,5.034-0.237l90.894,68.177v52.9
			h110.394V386.927l49.907-42.312c7.761,4.834,16.631,8.049,26.141,9.14c3.567,21.203,22.055,37.407,44.255,37.407
			c24.746,0,44.878-20.132,44.878-44.878c0-2.646-0.257-5.284-0.779-7.957C500.272,328.983,511.483,310.687,511.483,290.794z
			 M152.441,175.612v-7.41h-8.258c-10.666,0-19.729-7.133-22.875-16.822h15.363V135.61h-15.078
			c1.886-5.179,5.513-9.67,10.479-12.593l6.821-4.015l-4.04-6.807c-4.414-7.433-6.747-15.884-6.747-24.44
			c0-5.322,0.883-10.439,2.489-15.227h13.434V56.757h-4.539c8.816-10.404,21.964-17.026,36.638-17.026
			c9.926,0,19.478,3.039,27.626,8.789l13.593,9.595l-1.191-16.599c-0.035-0.482-0.106-0.956-0.171-1.429
			c-0.017-0.117-0.06-0.232-0.073-0.35c0.053-13.223,10.776-23.967,24.013-23.967c13.268,0,23.961,10.794,23.961,24.063v7.462h8.088
			c12.62,0,25.105,3.596,36.104,9.996l5.585,3.461l4.284-4.836c4.684-5.287,11.049-8.199,17.924-8.199
			c13.268,0,24.063,10.794,24.063,24.063c0,1.862-0.307,3.857-0.965,6.28l-2.433,8.944l9.219,0.967
			c3.295,0.346,6.491,0.983,9.577,1.862v14.234h16.822v-6.214c8.236,5.804,14.789,13.765,18.896,23.035h-3.126v15.771h7.474
			c0.285,2.297,0.445,4.632,0.445,7.003c0,18.852-9.371,35.546-23.69,45.702v-5.394h-16.822v13.504
			c-4.926,1.421-10.122,2.198-15.499,2.198c-2.805,0-5.799-0.268-9.154-0.82l-6.65-1.094l-2.116,6.399
			c-1.28,3.87-3.14,7.479-5.481,10.739v-15.153h-16.822v15.771h16.379c-3.242,4.337-7.363,8.011-12.157,10.77l-4.167,2.397
			l0.222,4.802c0.016,0.344,0.039,0.687,0.062,1.029c0.022,0.332,0.05,0.666,0.05,1.004c0,13.712-6.303,25.977-16.161,34.059v-4.646
			h-15.771v12.913c-3.847,1.102-7.903,1.704-12.099,1.704c-17.896,0-33.874-10.702-40.706-27.265l-2.122-5.142l-5.508,0.272
			c-0.488,0.024-0.926,0.056-1.412,0.088c-0.752,0.05-1.368,0.098-1.982,0.098C184.546,247.597,152.441,215.306,152.441,175.612z
			 M272.297,295.198v33.864h-2.321l-10.008-35.911C263.946,294.25,268.073,294.943,272.297,295.198z M104.076,359.549v14.981
			c-6.864-1.44-13.287-4.677-18.609-9.478l-4.256-3.838l-4.966,2.866c-3.818,2.204-7.833,3.321-11.933,3.321
			c-13.268,0-24.063-10.794-24.063-24.063c0-2.047,0.362-4.216,1.139-6.823l1.68-5.641l-4.93-3.216
			c-13.683-8.923-21.851-23.962-21.851-40.229c0-24.736,19.301-45.737,43.94-47.812l4.716-0.397l1.867-4.348
			c5.068-11.802,16.626-19.427,29.448-19.427c15.425,0,28.651,11.028,31.45,26.221l0.984,5.343l5.343,0.984
			c15.194,2.798,26.222,16.024,26.222,31.45c0,2.215-0.278,4.524-0.849,7.059l-1.739,7.715l7.72,1.716
			c10.91,2.426,18.829,12.285,18.829,23.445c0,1.135-0.085,2.251-0.238,3.345v-2.073H168.21v15.771h8.92
			c-4.35,4.336-10.34,7.02-16.938,7.021c-0.219-0.01-0.431-0.049-0.645-0.079c-0.469-0.064-0.939-0.124-1.416-0.165l-6.103-0.515
			l-2.009,5.786c-4.74,13.65-16.376,23.5-30.173,26.183v-15.102H104.076z M332.037,354.822l-4.659-13.977l-14.961,4.987
			l6.659,19.979l-16.29,13.811v67.659c-9.392,0-22.621-0.008-22.82-0.008l-0.011,15.771c0.794,0,13.326,0.008,22.511,0.008
			c0.107,0,0.212,0,0.319,0v33.178h-78.853v-9.462h15.771v-15.771h-15.771v-19.781L198.7,432.288v-25.425h-15.771v13.596
			L136.456,385.6c5.406-2.616,10.362-6.084,14.667-10.273l72.812,27.314v-27.32h15.771V359.55h-15.771v-94.577
			c4.325,7.664,10.205,14.149,17.141,19.136l7.84,28.129h-9.211v15.771h13.607l4.688,16.822h30.068v-50.753
			c5.183-1.069,10.117-2.82,14.719-5.14v54.13l39.874-29.694c3.031,7.921,7.61,15.079,13.363,21.112L332.037,354.822z
			 M470.818,326.57l-7.237,2.728l2.611,7.293c1.219,3.425,1.844,6.595,1.844,9.69c0,5.643-1.611,10.912-4.391,15.377v-10.519
			h-15.771v15.771h11.601c-5.248,5.236-12.484,8.478-20.479,8.478c-11.688,0-21.71-6.927-26.298-16.889h2.583V342.73h-5.257v-4.206
			h-8.158c-13.256,0-25.258-5.467-33.897-14.255V312.24h-8.62c-3.246-6.439-5.087-13.7-5.087-21.383
			c0-26.248,21.355-47.667,47.604-47.667c2.862,0,5.74,0.279,8.8,0.851l7.446,1.393l1.691-7.384
			c3.048-13.309,14.688-22.604,28.305-22.604c2.765,0,5.439,0.395,7.975,1.12h-0.85v15.771h16.822v-4.302
			c3.25,4.696,5.16,10.388,5.16,16.519c0,2.041-0.287,4.243-0.879,6.732l-1.23,5.179l4.343,3.078
			c2.242,1.589,4.272,3.405,6.095,5.386h-6.13v15.771h14.907c0.904,3.259,1.393,6.649,1.393,10.095
			C495.717,306.585,485.713,320.962,470.818,326.57z"/>
	</g>
</g>
<g>
	<g>
		<path d="M160.259,104.069h15.771c0-13.668,11.107-24.402,23.723-24.402V63.896C177.673,63.896,160.259,81.99,160.259,104.069z"/>
	</g>
</g>
<g>
	<g>
		<path d="M288.05,199.744c0,17.872-14.702,31.88-32.576,31.88v15.771c27.336,0,48.346-21.366,48.346-47.65H288.05z"/>
	</g>
</g>
<g>
	<g>
		<path d="M343.79,103.831v15.771c8.411,0,16.144,7.597,16.144,16.008h15.771C375.704,117.737,361.663,103.831,343.79,103.831z"/>
	</g>
</g>
<g>
	<g>
		<rect x="232.343" y="31.524" width="14.719" height="15.771"/>
	</g>
</g>
<g>
	<g>
		<rect x="247.062" y="56.757" width="16.822" height="15.771"/>
	</g>
</g>
<g>
	<g>
		<rect x="216.572" y="79.887" width="15.771" height="15.771"/>
	</g>
</g>
<g>
	<g>
		<rect x="288.065" y="129.297" width="15.771" height="15.771"/>
	</g>
</g>
<g>
	<g>
		<rect x="328.017" y="65.168" width="16.822" height="15.771"/>
	</g>
</g>
<g>
	<g>
		<rect x="359.558" y="159.787" width="15.771" height="15.771"/>
	</g>
</g>
<g>
	<g>
		<rect x="319.606" y="168.198" width="16.822" height="15.771"/>
	</g>
</g>
<g>
	<g>
		<rect x="295.425" y="88.298" width="15.771" height="15.771"/>
	</g>
</g>
<g>
	<g>
		<rect x="263.884" y="95.654" width="16.822" height="15.771"/>
	</g>
</g>
<g>
	<g>
		<rect x="208.161" y="120.886" width="16.822" height="15.771"/>
	</g>
</g>
<g>
	<g>
		<rect x="160.85" y="129.297" width="14.719" height="15.771"/>
	</g>
</g>
<g>
	<g>
		<rect x="199.75" y="168.198" width="16.822" height="15.771"/>
	</g>
</g>
<g>
	<g>
		<rect x="168.209" y="183.969" width="15.771" height="15.771"/>
	</g>
</g>
<g>
	<g>
		<rect x="168.209" y="48.346" width="15.771" height="15.771"/>
	</g>
</g>
<g>
	<g>
		<rect x="208.161" y="208.15" width="16.822" height="15.771"/>
	</g>
</g>
<g>
	<g>
		<rect x="255.473" y="176.609" width="16.822" height="15.771"/>
	</g>
</g>
<g>
	<g>
		<rect x="247.062" y="135.606" width="16.822" height="15.771"/>
	</g>
</g>
<g>
	<g>
		<rect x="232.343" y="423.681" width="31.541" height="15.771"/>
	</g>
</g>
<g>
	<g>
		<rect x="455.233" y="287.003" width="16.822" height="15.771"/>
	</g>
</g>
<g>
	<g>
		<rect x="432.103" y="320.647" width="15.771" height="15.771"/>
	</g>
</g>
<g>
	<g>
		<rect x="423.692" y="264.924" width="15.771" height="15.771"/>
	</g>
</g>
<g>
	<g>
		<path d="M367.921,287.007h15.771c0-8.411,7.41-15.652,15.821-15.652v-15.771C382.69,255.585,367.921,270.185,367.921,287.007z"/>
	</g>
</g>
<g>
	<g>
		<rect x="399.51" y="295.414" width="15.771" height="15.771"/>
	</g>
</g>
<g>
	<g>
		<rect x="80.948" y="239.691" width="15.771" height="15.771"/>
	</g>
</g>
<g>
	<g>
		<rect x="119.846" y="272.284" width="16.822" height="15.771"/>
	</g>
</g>
<g>
	<g>
		<rect x="111.435" y="320.647" width="16.822" height="15.771"/>
	</g>
</g>
<g>
	<g>
		<path d="M32.466,287.007h15.771c0-4.206,3.273-7.666,8.53-7.666v-15.771C43.098,263.572,32.466,274.391,32.466,287.007z"/>
	</g>
</g>
<g>
	<g>
		<rect x="64.126" y="329.058" width="16.822" height="15.771"/>
	</g>
</g>
<g>
	<g>
		<rect x="80.948" y="287.003" width="15.771" height="15.771"/>
	</g>
</g>
<g>
</g>
<g>
</g>
<g>
</g>
<g>
</g>
<g>
</g>
<g>
</g>
<g>
</g>
<g>
</g>
<g>
</g>
<g>
</g>
<g>
</g>
<g>
</g>
<g>
</g>
<g>
</g>
<g>
</g>
</svg>
