<?xml version="1.0" encoding="iso-8859-1"?>
<!-- Generator: Adobe Illustrator 19.0.0, SVG Export Plug-In . SVG Version: 6.00 Build 0)  -->
<svg version="1.1" id="Layer_1" xmlns="http://www.w3.org/2000/svg" xmlns:xlink="http://www.w3.org/1999/xlink" x="0px" y="0px"
	 viewBox="0 0 512 512" style="enable-background:new 0 0 512 512;" xml:space="preserve">
<g>
	<g>
		<rect x="187.559" y="111.804" width="16.718" height="15.673"/>
	</g>
</g>
<g>
	<g>
		<rect x="316.082" y="111.804" width="15.674" height="15.673"/>
	</g>
</g>
<g>
	<g>
		<rect x="148.898" y="145.241" width="15.673" height="15.673"/>
	</g>
</g>
<g>
	<g>
		<rect x="171.886" y="168.229" width="15.673" height="15.673"/>
	</g>
</g>
<g>
	<g>
		<rect x="187.559" y="224.653" width="16.718" height="15.673"/>
	</g>
</g>
<g>
	<g>
		<rect x="164.571" y="248.686" width="15.674" height="15.673"/>
	</g>
</g>
<g>
	<g>
		<rect x="187.559" y="272.718" width="16.718" height="15.673"/>
	</g>
</g>
<g>
	<g>
		<polygon points="284.735,16.718 284.735,0 269.061,0 269.061,16.718 252.343,16.718 252.343,32.392 269.061,32.392 
			269.061,48.065 284.735,48.065 284.735,32.392 300.408,32.392 300.408,16.718 		"/>
	</g>
</g>
<g>
	<g>
		<polygon points="460.278,200.62 460.278,183.902 444.604,183.902 444.604,200.62 427.886,200.62 427.886,216.294 444.604,216.294 
			444.604,231.967 460.278,231.967 460.278,216.294 475.951,216.294 475.951,200.62 		"/>
	</g>
</g>
<g>
	<g>
		<polygon points="259.657,296.751 259.657,281.078 243.984,281.078 243.984,296.751 228.31,296.751 228.31,312.424 
			243.984,312.424 243.984,328.098 259.657,328.098 259.657,312.424 276.375,312.424 276.375,296.751 		"/>
	</g>
</g>
<g>
	<g>
		<polygon points="85.159,88.816 85.159,73.143 69.486,73.143 69.486,88.816 51.722,88.816 51.722,104.49 69.486,104.49 
			69.486,120.163 85.159,120.163 85.159,104.49 100.833,104.49 100.833,88.816 		"/>
	</g>
</g>
<g>
	<g>
		<rect x="204.278" y="9.404" width="16.718" height="15.673"/>
	</g>
</g>
<g>
	<g>
		<rect x="300.408" y="88.816" width="15.673" height="15.673"/>
	</g>
</g>
<g>
	<g>
		<rect x="252.343" y="129.567" width="15.674" height="15.673"/>
	</g>
</g>
<g>
	<g>
		<rect x="92.474" y="32.392" width="15.673" height="15.673"/>
	</g>
</g>
<g>
	<g>
		<rect x="164.571" y="32.392" width="15.674" height="15.673"/>
	</g>
</g>
<g>
	<g>
		<rect x="36.049" y="152.555" width="15.673" height="15.673"/>
	</g>
</g>
<g>
	<g>
		<rect x="92.474" y="176.588" width="15.673" height="15.673"/>
	</g>
</g>
<g>
	<g>
		<rect x="348.473" y="145.241" width="15.673" height="15.673"/>
	</g>
</g>
<g>
	<g>
		<rect x="324.441" y="183.902" width="15.673" height="15.673"/>
	</g>
</g>
<g>
	<g>
		<rect x="340.114" y="231.967" width="16.718" height="15.673"/>
	</g>
</g>
<g>
	<g>
		<rect x="300.408" y="152.555" width="15.673" height="15.673"/>
	</g>
</g>
<g>
	<g>
		<rect x="420.571" y="152.555" width="15.673" height="15.673"/>
	</g>
</g>
<g>
	<g>
		<rect x="460.278" y="88.816" width="15.673" height="15.673"/>
	</g>
</g>
<g>
	<g>
		<rect x="395.494" y="25.078" width="16.718" height="15.673"/>
	</g>
</g>
<g>
	<g>
		<rect x="348.473" y="1.045" width="15.673" height="15.673"/>
	</g>
</g>
<g>
	<g>
		<rect x="324.441" y="40.751" width="15.673" height="15.673"/>
	</g>
</g>
<g>
	<g>
		<path d="M403.931,139.163V64.614H276.373v74.548c0,28.606,2.33,57.226,6.903,85.49h-6.901v15.673h9.675
			c9.157,47.689,24.724,94.16,46.265,137.628l-0.038,103.003h0.029c-0.183,14.333-13.034,15.369-16.994,15.369h-30.578V512h30.578
			c10.235,0,18.827-3.701,24.628-9.987c5.605,6.323,14.002,9.987,24.186,9.987h31.367v-15.673h-31.367
			c-4.853,0-16.138-2.09-16.138-15.673h-0.038l0.038-102.696C384.586,304.107,403.931,221.582,403.931,139.163z M340.152,358.042
			c-12.817-27.791-23.165-56.74-30.934-86.368h15.223V256h-16.718v9.815c-10.346-41.388-15.676-84.034-15.676-126.652v-11.685
			h15.676v-15.673h-15.676V80.288h96.211v31.516h-48.144v15.673h48.144v11.685c0,7.252-0.158,14.504-0.465,21.752h-15.287v15.673
			h14.379c-2.939,40.404-10.606,80.492-22.738,119.162v-7.358h-15.673v15.673h12.992
			C355.365,322.439,348.255,340.473,340.152,358.042z"/>
	</g>
</g>
<g>
	<g>
		<path d="M244.062,139.163V64.614H116.504v74.548c0,82.419,19.345,164.942,55.942,238.793l-0.038,103.002h0.029
			c-0.183,14.333-13.034,15.369-16.994,15.369h-30.578V512h30.578c10.235,0,18.827-3.701,24.628-9.987
			c5.605,6.323,14.002,9.987,24.186,9.987h31.367v-15.673h-31.367c-4.852,0-16.138-2.09-16.138-15.673h-0.038l0.038-102.696
			C224.717,304.107,244.062,221.582,244.062,139.163z M180.284,358.042c-5.787-12.546-11.064-25.329-15.834-38.303h7.438v-15.673
			h-12.916c-7.822-23.555-13.977-47.672-18.403-72.098h8.331v-15.673h-10.935c-3.834-25.531-5.786-51.336-5.786-77.131v-11.685
			h48.066v-15.673h-48.067V80.288h96.211v31.516h-15.752v15.673h15.752v11.685c0,61.608-11.133,123.273-32.47,181.111v-0.535
			h-15.673v15.673h9.815C186.977,343.032,183.724,350.581,180.284,358.042z"/>
	</g>
</g>
<g>
</g>
<g>
</g>
<g>
</g>
<g>
</g>
<g>
</g>
<g>
</g>
<g>
</g>
<g>
</g>
<g>
</g>
<g>
</g>
<g>
</g>
<g>
</g>
<g>
</g>
<g>
</g>
<g>
</g>
</svg>
