<?xml version="1.0" encoding="iso-8859-1"?>
<!-- Generator: Adobe Illustrator 19.0.0, SVG Export Plug-In . SVG Version: 6.00 Build 0)  -->
<svg version="1.1" id="Layer_1" xmlns="http://www.w3.org/2000/svg" xmlns:xlink="http://www.w3.org/1999/xlink" x="0px" y="0px"
	 viewBox="0 0 512 512" style="enable-background:new 0 0 512 512;" xml:space="preserve">
<g>
	<g>
		<path d="M400.211,207.484c-13.137,0-23.824,10.687-23.824,23.823c0,13.136,10.687,23.823,23.824,23.823
			s23.823-10.687,23.823-23.823C424.034,218.17,413.348,207.484,400.211,207.484z M400.211,239.489
			c-4.512,0-8.183-3.671-8.183-8.182c0-4.512,3.671-8.182,8.183-8.182c4.511,0,8.182,3.671,8.182,8.182
			C408.393,235.818,404.722,239.489,400.211,239.489z"/>
	</g>
</g>
<g>
	<g>
		<path d="M440.217,335.504c-13.136,0-23.823,10.687-23.823,23.823c0,13.137,10.687,23.823,23.823,23.823
			c13.137,0,23.823-10.687,23.823-23.823S453.354,335.504,440.217,335.504z M440.217,367.509c-4.511,0-8.182-3.671-8.182-8.182
			c0-4.512,3.671-8.182,8.182-8.182c4.511,0,8.182,3.671,8.182,8.182S444.728,367.509,440.217,367.509z"/>
	</g>
</g>
<g>
	<g>
		<path d="M0,0v90.133l9.115-1.53c5.796-0.973,9.883-1.5,14.873-1.5c39.853,0,72.274,32.385,72.274,72.192
			s-32.441,72.192-72.316,72.192c-4.982,0-8.904-0.505-14.831-1.5L0,228.458v116.913l9.115-1.53
			c3.113-0.522,4.846-0.699,6.871-0.699c17.793,0,32.267,14.438,32.267,32.186c0,17.747-14.493,32.185-32.308,32.185
			c-2.241,0-4.129-0.245-6.83-0.699L0,405.287V512h137.023l-0.585-8.365c-0.07-1.013-0.135-1.871-0.192-2.63
			c-0.172-2.312-0.259-3.472-0.259-5.241c0-35.509,28.795-64.397,64.191-64.397c35.396,0,64.191,28.936,64.191,64.502
			c0,1.723-0.082,2.819-0.247,5.002c-0.06,0.786-0.127,1.685-0.202,2.765L263.335,512h112.691v-7.821
			c0-22.534,17.652-40.187,40.186-40.187s40.187,17.652,40.187,40.187V512H512V0H0z M496.358,496.358h-24.837
			c-3.696-27.474-26.662-48.008-55.309-48.008c-28.646,0-51.612,20.533-55.307,48.008H280.01c0.001-0.16,0.002-0.324,0.002-0.491
			c0-44.19-35.813-80.143-79.832-80.143s-79.832,35.906-79.832,80.039c0,0.203,0.001,0.401,0.003,0.595H15.642v-73.202
			c0.101,0,0.201,0.001,0.303,0.001c26.439,0,47.95-21.455,47.95-47.827c0-26.373-21.492-47.828-47.909-47.828
			c-0.115,0-0.23,0-0.344,0.001v-80.795c2.704,0.277,5.348,0.421,8.305,0.421c48.5,0,87.958-39.402,87.958-87.834
			S72.465,71.463,23.988,71.463c-2.945,0-5.626,0.149-8.346,0.426V15.642h480.717V496.358z"/>
	</g>
</g>
<g>
	<g>
		<path d="M160.174,31.456c-13.137,0-23.824,10.687-23.824,23.823c0,13.136,10.687,23.823,23.824,23.823
			c13.137,0,23.823-10.687,23.823-23.823C183.997,42.143,173.31,31.456,160.174,31.456z M160.174,63.461
			c-4.512,0-8.183-3.671-8.183-8.182c0-4.511,3.669-8.182,8.183-8.182c4.511,0,8.182,3.671,8.182,8.182
			C168.355,59.79,164.685,63.461,160.174,63.461z"/>
	</g>
</g>
<g>
	<g>
		<path d="M392.21,47.459c-30.784,0-55.829,25.044-55.829,55.829c0,30.784,25.045,55.828,55.829,55.828
			c30.784,0,55.828-25.044,55.828-55.828S422.993,47.459,392.21,47.459z M392.21,143.474c-22.16,0-40.187-18.027-40.187-40.186
			S370.05,63.1,392.21,63.1c22.159,0,40.186,18.028,40.186,40.187S414.369,143.474,392.21,143.474z"/>
	</g>
</g>
<g>
	<g>
		<path d="M144.17,287.497c-21.96,0-39.825,17.866-39.825,39.826s17.865,39.826,39.825,39.826c21.961,0,39.826-17.866,39.826-39.826
			S166.13,287.497,144.17,287.497z M144.17,351.506c-13.335,0-24.184-10.849-24.184-24.184c0-13.335,10.849-24.184,24.184-24.184
			c13.335,0,24.184,10.849,24.184,24.184C168.354,340.657,157.505,351.506,144.17,351.506z"/>
	</g>
</g>
<g>
	<g>
		<path d="M240.185,175.479c-21.96,0-39.825,17.866-39.825,39.825s17.865,39.826,39.825,39.826s39.825-17.866,39.825-39.826
			S262.145,175.479,240.185,175.479z M240.185,239.488c-13.335,0-24.184-10.849-24.184-24.184c0-13.335,10.849-24.184,24.184-24.184
			s24.184,10.849,24.184,24.184C264.369,228.639,253.52,239.488,240.185,239.488z"/>
	</g>
</g>
<g>
	<g>
		<path d="M352.203,279.495c-26.372,0-47.827,21.455-47.827,47.828c0,26.372,21.455,47.827,47.827,47.827
			c26.373,0,47.828-21.455,47.828-47.827C400.031,300.95,378.576,279.495,352.203,279.495z M352.203,359.507
			c-17.747,0-32.185-14.438-32.185-32.185c0-17.748,14.437-32.186,32.185-32.186s32.186,14.438,32.186,32.186
			C384.389,345.069,369.95,359.507,352.203,359.507z"/>
	</g>
</g>
<g>
	<g>
		<path d="M272.19,111.469c-13.136,0-23.823,10.687-23.823,23.823c0,13.136,10.688,23.823,23.823,23.823
			c13.137,0,23.824-10.687,23.824-23.823C296.014,122.156,285.327,111.469,272.19,111.469z M272.19,143.474
			c-4.511,0-8.182-3.671-8.182-8.182c0-4.511,3.671-8.182,8.182-8.182c4.512,0,8.183,3.671,8.183,8.182
			C280.373,139.803,276.702,143.474,272.19,143.474z"/>
	</g>
</g>
<g>
</g>
<g>
</g>
<g>
</g>
<g>
</g>
<g>
</g>
<g>
</g>
<g>
</g>
<g>
</g>
<g>
</g>
<g>
</g>
<g>
</g>
<g>
</g>
<g>
</g>
<g>
</g>
<g>
</g>
</svg>
