<?xml version="1.0" encoding="iso-8859-1"?>
<!-- Generator: Adobe Illustrator 19.0.0, SVG Export Plug-In . SVG Version: 6.00 Build 0)  -->
<svg version="1.1" id="Layer_1" xmlns="http://www.w3.org/2000/svg" xmlns:xlink="http://www.w3.org/1999/xlink" x="0px" y="0px"
	 viewBox="0 0 512 512" style="enable-background:new 0 0 512 512;" xml:space="preserve">
<g>
	<g>
		<path d="M48.239,399.891H32.578c0,27.147,13.235,51.634,35.404,66.489l8.719-13.109C58.879,441.329,48.239,421.817,48.239,399.891
			z"/>
	</g>
</g>
<g>
	<g>
		<path d="M91.041,460.728l-5.247,14.765c8.525,3.014,17.244,4.543,26.641,4.543v-15.661
			C105.127,464.374,97.885,463.148,91.041,460.728z"/>
	</g>
</g>
<g>
	<g>
		<path d="M423.761,280.578c-9.471,0-18.76,1.531-27.714,4.545c-4.128-23.465-11.574-46.361-22.114-67.689
			c-16.953-34.305-41.981-64.725-72.377-87.969l-38.771-29.648V69.018c21.718,13.253,64.58,19.454,105.257,19.454
			c63.345,0,113.964-31.839,116.088-33.194l10.344-6.601l-10.344-6.601c-2.124-1.356-52.743-33.195-116.087-33.195
			c-30.59,0-59.449,3.432-81.259,9.663c-9.905,2.829-17.905,6.091-23.998,9.763V0h-15.662v101.671l-36.345,27.794
			c-30.397,23.244-55.424,53.663-72.377,87.969c-10.547,21.342-17.996,44.255-22.123,67.737c-9.003-3.049-18.356-4.593-27.898-4.593
			c-48.338,0-87.664,39.36-87.664,87.742v23.974C0.718,458.3,54.347,512,120.267,512c65.92,0,119.55-53.7,119.55-119.706V368.32
			c0-48.38-39.314-87.742-87.638-87.742c-6.617,0-13.139,0.753-19.516,2.22c4.013-20.237,10.654-39.959,19.779-58.426
			c15.893-32.159,39.355-60.676,67.851-82.466l35.874-27.434l35.875,27.434c28.495,21.79,51.958,50.307,67.85,82.466
			c9.132,18.479,15.775,38.214,19.787,58.464c-6.445-1.495-13.044-2.258-19.746-2.258c-48.386,0-87.75,39.36-87.75,87.742v23.974
			C272.183,458.3,325.812,512,391.733,512s119.55-53.7,119.55-119.706V368.32C511.283,319.939,472.021,280.578,423.761,280.578z
			 M291.088,33.604c20.451-5.843,47.781-9.061,76.956-9.061c41.305,0,77.603,15.1,95.622,24.133
			c-18.019,9.034-54.316,24.133-95.622,24.133c-29.175,0-56.506-3.218-76.956-9.061c-7.409-2.116-12.886-4.293-16.905-6.324h53.339
			V41.764h-56.667C274.985,39.25,281.387,36.375,291.088,33.604z M152.179,296.24c39.687,0,71.976,32.335,71.976,72.081v23.974
			c0,57.37-46.605,104.045-103.888,104.045c-57.284,0-103.888-46.674-103.888-104.045V368.32c0-39.745,32.3-72.081,72.002-72.081
			c8.8,0,17.408,1.61,25.641,4.772c-0.758,6.837-1.245,13.702-1.434,20.572h-8.504v15.661h32.367v-15.661h-8.199
			c0.214-7.281,0.789-14.553,1.683-21.787C137.123,297.44,144.577,296.24,152.179,296.24z M495.622,392.294
			c0,57.37-46.604,104.045-103.888,104.045s-103.888-46.674-103.888-104.045V368.32c0-39.745,32.339-72.081,72.089-72.081
			c7.695,0,15.226,1.224,22.475,3.617c0.89,7.215,1.462,14.466,1.676,21.727h-8.536v15.662h31.323v-15.662h-7.124
			c-0.19-6.892-0.679-13.778-1.441-20.636c8.183-3.122,16.728-4.708,25.453-4.708c39.624,0,71.86,32.335,71.86,72.081V392.294z"/>
	</g>
</g>
<g>
	<g>
		<path d="M319.937,399.891h-15.661c0,27.147,13.235,51.633,35.403,66.489l8.719-13.109
			C330.577,441.329,319.937,421.817,319.937,399.891z"/>
	</g>
</g>
<g>
	<g>
		<path d="M362.566,460.726l-5.189,14.767c8.525,3.013,17.13,4.542,26.526,4.542v-15.661
			C376.594,464.373,369.41,463.147,362.566,460.726z"/>
	</g>
</g>
<g>
</g>
<g>
</g>
<g>
</g>
<g>
</g>
<g>
</g>
<g>
</g>
<g>
</g>
<g>
</g>
<g>
</g>
<g>
</g>
<g>
</g>
<g>
</g>
<g>
</g>
<g>
</g>
<g>
</g>
</svg>
