<?xml version="1.0" encoding="iso-8859-1"?>
<!-- Generator: Adobe Illustrator 19.0.0, SVG Export Plug-In . SVG Version: 6.00 Build 0)  -->
<svg version="1.1" id="Layer_1" xmlns="http://www.w3.org/2000/svg" xmlns:xlink="http://www.w3.org/1999/xlink" x="0px" y="0px"
	 viewBox="0 0 512 512" style="enable-background:new 0 0 512 512;" xml:space="preserve">
<g>
	<g>
		<path d="M327.727,29.324c-19.764-19.406-45.9-29.807-73.641-29.307c-55.401,1.014-100.472,48.342-100.472,105.503v146.541
			c0,41.357,25.102,78.619,63.022,94.426v13.897c0,10.624,6.513,19.753,15.755,23.611v61.069c0,6.529-5.311,11.841-11.841,11.841
			c-15.19,0-27.548,12.358-27.548,27.548c0,15.19,12.358,27.548,27.548,27.548h15.755c7.709,0,14.689-3.183,19.695-8.304
			c5.004,5.12,11.984,8.304,19.695,8.304h15.755c15.19,0,27.548-12.358,27.548-27.548c0-15.19-12.358-27.548-27.548-27.548
			c-6.529,0-11.841-5.312-11.841-11.841v-61.069c9.242-3.858,15.755-12.987,15.755-23.611v-13.897
			c37.92-15.807,63.022-53.069,63.022-94.426V102.385C358.385,74.682,347.497,48.736,327.727,29.324z M291.449,472.612
			c6.529,0,11.841,5.312,11.841,11.841s-5.311,11.841-11.841,11.841h-15.755c-6.529,0-11.841-5.312-11.841-11.841v-3.939h-15.707
			v3.939c0,6.529-5.311,11.841-11.841,11.841h-15.755c-6.529,0-11.841-5.312-11.841-11.841s5.311-11.841,11.841-11.841
			c15.19,0,27.548-12.358,27.548-27.548v-59.107h15.803v59.107C263.901,460.254,276.259,472.612,291.449,472.612z M342.678,102.596
			h-15.473v15.707h15.473v125.656h-15.473v15.707h15.125c-2.964,33.466-25.292,62.646-57.442,74.03l-5.233,1.852v24.835
			c0,5.441-4.426,9.867-9.866,9.867h-27.582c-5.44,0-9.866-4.426-9.866-9.867v-5.429h15.28v-15.707h-15.28v-3.7l-5.233-1.852
			c-29.436-10.422-50.634-35.764-56.282-65.653h13.966v-15.707h-15.467c0-0.091-0.005-0.182-0.005-0.273v-55.225h39.557v-15.707
			h-39.557v-15.707h8.143v-15.707h-8.143v-44.194c0-48.657,38.155-88.941,85.052-89.798c23.505-0.426,45.618,8.381,62.351,24.811
			c16.736,16.434,25.954,38.4,25.954,61.853V102.596z"/>
	</g>
</g>
<g>
	<g>
		<rect x="184.798" y="236.633" width="47.121" height="15.707"/>
	</g>
</g>
<g>
	<g>
		<rect x="256.003" y="259.67" width="15.707" height="15.707"/>
	</g>
</g>
<g>
	<g>
		<rect x="193.175" y="275.377" width="15.707" height="15.707"/>
	</g>
</g>
<g>
	<g>
		<rect x="287.418" y="205.218" width="15.707" height="15.707"/>
	</g>
</g>
<g>
	<g>
		<rect x="231.919" y="141.343" width="48.168" height="15.707"/>
	</g>
</g>
<g>
	<g>
		<rect x="280.088" y="157.05" width="47.121" height="15.707"/>
	</g>
</g>
<g>
	<g>
		<rect x="256.003" y="299.461" width="47.121" height="15.707"/>
	</g>
</g>
<g>
	<g>
		<rect x="200.505" y="78.511" width="31.414" height="15.707"/>
	</g>
</g>
<g>
	<g>
		<rect x="256.003" y="62.804" width="39.791" height="15.707"/>
	</g>
</g>
<g>
	<g>
		<rect x="224.589" y="31.389" width="15.707" height="15.707"/>
	</g>
</g>
<g>
	<g>
		<rect x="184.798" y="109.929" width="15.707" height="15.707"/>
	</g>
</g>
<g>
	<g>
		<rect x="311.502" y="86.888" width="15.707" height="15.707"/>
	</g>
</g>
<g>
	<g>
		<rect x="264.38" y="109.929" width="15.707" height="15.707"/>
	</g>
</g>
<g>
</g>
<g>
</g>
<g>
</g>
<g>
</g>
<g>
</g>
<g>
</g>
<g>
</g>
<g>
</g>
<g>
</g>
<g>
</g>
<g>
</g>
<g>
</g>
<g>
</g>
<g>
</g>
<g>
</g>
</svg>
