<?xml version="1.0" encoding="iso-8859-1"?>
<!-- Generator: Adobe Illustrator 19.0.0, SVG Export Plug-In . SVG Version: 6.00 Build 0)  -->
<svg version="1.1" id="Layer_1" xmlns="http://www.w3.org/2000/svg" xmlns:xlink="http://www.w3.org/1999/xlink" x="0px" y="0px"
	 viewBox="0 0 511.999 511.999" style="enable-background:new 0 0 511.999 511.999;" xml:space="preserve">
<g>
	<g>
		<path d="M472.005,216.025c0-0.016,0.001-0.033,0.001-0.05C472.006,96.886,375.12,0,256.031,0S40.056,96.886,40.056,215.975
			c0,0.311,0.01,0.618,0.011,0.928h-0.075l0.583,79.122c0,57.716,22.37,111.948,62.988,152.708
			c40.659,40.799,94.806,63.267,152.468,63.267c57.663,0,111.809-22.468,152.467-63.267c40.62-40.76,62.99-94.992,62.99-152.657
			l0.519-80.05H472.005z M397.386,437.658c-18.083,18.144-39.049,32.365-61.866,42.266v-48.212h-15.689v54.242
			c-2.766,0.929-5.557,1.792-8.367,2.599v-32.785h-15.689v36.613c-2.773,0.556-5.563,1.046-8.367,1.485v-14.042H271.72v15.879
			c-5.193,0.401-10.423,0.61-15.689,0.61c-28.206,0-55.502-5.804-80.535-16.837v-23.707h-15.689V471.7
			c-2.825-1.558-5.614-3.187-8.367-4.886v-35.102h-15.689v24.346c-7.378-5.595-14.425-11.727-21.076-18.401
			c-37.17-37.298-57.847-86.773-58.388-139.57C88.671,376.568,165.999,431.95,256.03,431.95c90.032,0,167.36-55.382,199.742-133.862
			C455.248,350.85,434.569,400.347,397.386,437.658z M456.318,216.027c-0.029,110.414-89.865,200.233-200.285,200.233
			c-110.438,0-200.286-89.847-200.286-200.286S145.593,15.689,256.031,15.689c110.433,0,200.277,89.839,200.286,200.269V216.027z"/>
	</g>
</g>
<g>
	<g>
		<path d="M447.991,215.974c0-105.846-86.113-191.959-191.96-191.959s-191.96,86.113-191.96,191.96
			c0,102.912,81.407,187.158,183.205,191.753c3.399,0.225,6.823,0.348,10.275,0.348c2.262,0,4.544-0.049,6.827-0.148l-0.008-0.185
			C366.362,403.36,447.991,319.027,447.991,215.974z M256.031,392.246c-2.685,0-5.353-0.07-8.008-0.19
			C178.147,387.3,121.291,330.47,118.177,258.86c-1.277-29.382,8.963-57.502,28.836-79.18c19.872-21.68,46.998-34.321,76.378-35.598
			c47.661-2.059,88.116,35.016,90.188,82.672c1.62,37.261-27.376,68.895-64.639,70.515c-28.959,1.254-53.518-21.267-54.777-50.213
			c-0.47-10.798,3.295-21.134,10.598-29.101c7.304-7.968,17.274-12.615,28.072-13.083c8.22-0.37,16.087,2.506,22.153,8.067
			c6.065,5.559,9.602,13.149,9.959,21.369c0.552,12.712-9.339,23.504-22.05,24.056c-9.295,0.434-17.204-6.835-17.609-16.141
			l-15.673,0.682c0.378,8.695,4.119,16.72,10.533,22.6c6.416,5.881,14.733,8.888,23.429,8.532
			c21.353-0.929,37.971-19.056,37.043-40.412c-1.114-25.611-22.851-45.549-48.468-44.429c-14.986,0.652-28.82,7.1-38.956,18.156
			c-10.135,11.057-15.359,25.399-14.706,40.384c1.591,36.585,31.858,65.272,68.132,65.27c0.994,0,1.997-0.022,3-0.066
			c45.906-1.996,81.628-40.966,79.632-86.872c-2.45-56.299-50.246-100.142-106.544-97.664c-33.568,1.46-64.558,15.904-87.263,40.672
			c-22.704,24.768-34.404,56.895-32.944,90.463c1.193,27.456,9.488,52.955,23.027,74.804
			C97.104,303.038,79.76,261.495,79.76,215.975c0-97.196,79.076-176.27,176.271-176.27c97.197,0,176.271,79.074,176.271,176.27
			C432.303,313.172,353.228,392.246,256.031,392.246z"/>
	</g>
</g>
<g>
</g>
<g>
</g>
<g>
</g>
<g>
</g>
<g>
</g>
<g>
</g>
<g>
</g>
<g>
</g>
<g>
</g>
<g>
</g>
<g>
</g>
<g>
</g>
<g>
</g>
<g>
</g>
<g>
</g>
</svg>
