<?xml version="1.0" encoding="iso-8859-1"?>
<!-- Generator: Adobe Illustrator 19.0.0, SVG Export Plug-In . SVG Version: 6.00 Build 0)  -->
<svg version="1.1" id="Layer_1" xmlns="http://www.w3.org/2000/svg" xmlns:xlink="http://www.w3.org/1999/xlink" x="0px" y="0px"
	 viewBox="0 0 512 512" style="enable-background:new 0 0 512 512;" xml:space="preserve">
<g>
	<g>
		<path d="M308.348,0H156.164v327.646h199.664V47.479h0C355.828,21.299,334.529,0,308.348,0z M340.138,311.956h-80.241v-8.103
			h-15.689v8.103h-8.368v-16.471h-15.689v16.471h-8.368V88.384h-15.69v223.572h-24.24V15.689h24.24v24.58h15.69v-24.58h96.566
			c17.529,0,31.79,14.261,31.79,31.79V311.956z"/>
	</g>
</g>
<g>
	<g>
		<path d="M299.989,31.996c-13.146,0-23.842,10.696-23.842,23.842c0,13.147,10.696,23.843,23.842,23.843
			c13.147,0,23.843-10.696,23.843-23.843S313.136,31.996,299.989,31.996z M299.989,63.991c-4.496,0-8.152-3.658-8.152-8.153
			s3.657-8.152,8.152-8.152s8.153,3.657,8.153,8.152S304.485,63.991,299.989,63.991z"/>
	</g>
</g>
<g>
	<g>
		<rect x="196.098" y="47.591" width="15.689" height="32.425"/>
	</g>
</g>
<g>
	<g>
		<rect x="308.016" y="191.935" width="15.69" height="103.551"/>
	</g>
</g>
<g>
	<g>
		<polygon points="259.897,336.278 259.897,351.967 340.13,351.967 339.978,496.311 308.012,496.311 308.012,359.289 
			292.322,359.289 292.322,512 355.651,512 355.836,336.278 		"/>
	</g>
</g>
<g>
	<g>
		<rect x="315.338" y="472.253" width="16.735" height="15.689"/>
	</g>
</g>
<g>
	<g>
		<rect x="315.338" y="448.196" width="16.735" height="15.689"/>
	</g>
</g>
<g>
	<g>
		<rect x="315.338" y="424.139" width="16.735" height="15.69"/>
	</g>
</g>
<g>
</g>
<g>
</g>
<g>
</g>
<g>
</g>
<g>
</g>
<g>
</g>
<g>
</g>
<g>
</g>
<g>
</g>
<g>
</g>
<g>
</g>
<g>
</g>
<g>
</g>
<g>
</g>
<g>
</g>
</svg>
