<?xml version="1.0" encoding="iso-8859-1"?>
<!-- Generator: Adobe Illustrator 19.0.0, SVG Export Plug-In . SVG Version: 6.00 Build 0)  -->
<svg version="1.1" id="Layer_1" xmlns="http://www.w3.org/2000/svg" xmlns:xlink="http://www.w3.org/1999/xlink" x="0px" y="0px"
	 viewBox="0 0 512 512" style="enable-background:new 0 0 512 512;" xml:space="preserve">
<g>
	<g>
		<path d="M386.135,205.319h-57.651v-24.256H102.66V512h225.824V406.888h57.651c12.795,0,23.205-10.41,23.205-23.206V228.524
			C409.339,215.729,398.93,205.319,386.135,205.319z M312.883,496.399H118.261v-18.781l194.621-59.883V496.399z M312.883,401.412
			l-194.621,59.883v-40.277l194.621-59.883V401.412z M312.883,212.996h-162.41v15.601h162.409v116.215L118.26,404.696V228.597
			h16.611v-15.601H118.26v-16.332h194.622V212.996z M393.738,383.684c0,4.193-3.41,7.604-7.603,7.604h-57.651v-24.357h40.41V245.24
			h-40.41v-24.318h57.651c4.192,0,7.603,3.41,7.603,7.604V383.684z M328.484,351.328V260.84h24.808v90.488H328.484z"/>
	</g>
</g>
<g>
	<g>
		<rect x="239.918" y="463.664" width="56.165" height="15.601"/>
	</g>
</g>
<g>
	<g>
		<path d="M174.303,133.411c-4.467-11.167-4.467-23.468,0-34.634c5.961-14.904,5.961-31.318,0-46.221l-8.086-20.214l-14.486,5.793
			l8.086,20.214c4.467,11.167,4.467,23.467,0,34.634c-5.961,14.902-5.961,31.317,0,46.221l8.085,20.214l14.486-5.793
			L174.303,133.411z"/>
	</g>
</g>
<g>
	<g>
		<path d="M222.815,101.069c-4.467-11.166-4.467-23.468,0-34.634c5.961-14.902,5.961-31.318,0-46.221L214.73,0l-14.486,5.793
			l8.085,20.214c4.467,11.166,4.467,23.467,0,34.634c-5.961,14.902-5.961,31.318,0,46.221l8.086,20.214l14.486-5.793
			L222.815,101.069z"/>
	</g>
</g>
<g>
	<g>
		<path d="M279.414,141.497c-4.467-11.166-4.467-23.468,0-34.634c5.961-14.902,5.961-31.318,0-46.221l-8.085-20.214l-14.486,5.793
			l8.085,20.214c4.467,11.166,4.467,23.468,0,34.634c-5.961,14.902-5.961,31.318,0,46.221l8.085,20.214l14.486-5.793
			L279.414,141.497z"/>
	</g>
</g>
<g>
</g>
<g>
</g>
<g>
</g>
<g>
</g>
<g>
</g>
<g>
</g>
<g>
</g>
<g>
</g>
<g>
</g>
<g>
</g>
<g>
</g>
<g>
</g>
<g>
</g>
<g>
</g>
<g>
</g>
</svg>
