<?xml version="1.0" encoding="iso-8859-1"?>
<!-- Generator: Adobe Illustrator 19.0.0, SVG Export Plug-In . SVG Version: 6.00 Build 0)  -->
<svg version="1.1" id="Layer_1" xmlns="http://www.w3.org/2000/svg" xmlns:xlink="http://www.w3.org/1999/xlink" x="0px" y="0px"
	 viewBox="0 0 512 512" style="enable-background:new 0 0 512 512;" xml:space="preserve">
<g>
	<g>
		<path d="M203.431,40.311L163.296,0h-35.297v40.311h-31.72v47.591h319.441V40.311H203.431z M143.609,15.61h13.202l24.594,24.701
			h-37.795V15.61z M400.111,72.293h-0.001H111.889V55.92h288.222V72.293z"/>
	</g>
</g>
<g>
	<g>
		<path d="M386.936,224.208l4.472-111.818h8.201v-15.61H112.39v15.61h8.202l4.473,111.818H112.27v135.543h18.206L136.563,512
			h238.874l6.084-152.249h18.209V224.208H386.936z M375.785,112.39l-4.473,111.818H140.687l-4.473-111.818H375.785z
			 M361.395,472.455h-193.85v15.61h193.227l-0.333,8.325H151.561l-5.462-136.639h219.799L361.395,472.455z M384.119,248.715H368.39
			v15.61h15.729v56.195H160.26v15.61h223.859v8.011H127.88v-8.011h15.729v-15.61H127.88v-56.195h223.86v-15.61H127.88v-8.898
			h256.239V248.715z"/>
	</g>
</g>
<g>
	<g>
		<rect x="192.52" y="151.935" width="126.959" height="15.61"/>
	</g>
</g>
<g>
	<g>
		<rect x="216.455" y="184.195" width="79.089" height="15.61"/>
	</g>
</g>
<g>
	<g>
		<rect x="312.195" y="448.52" width="15.61" height="15.61"/>
	</g>
</g>
<g>
	<g>
		<rect x="288.26" y="448.52" width="15.61" height="15.61"/>
	</g>
</g>
<g>
	<g>
		<rect x="336.13" y="448.52" width="15.61" height="15.61"/>
	</g>
</g>
<g>
</g>
<g>
</g>
<g>
</g>
<g>
</g>
<g>
</g>
<g>
</g>
<g>
</g>
<g>
</g>
<g>
</g>
<g>
</g>
<g>
</g>
<g>
</g>
<g>
</g>
<g>
</g>
<g>
</g>
</svg>
