<?xml version="1.0" encoding="iso-8859-1"?>
<!-- Generator: Adobe Illustrator 19.0.0, SVG Export Plug-In . SVG Version: 6.00 Build 0)  -->
<svg version="1.1" id="Layer_1" xmlns="http://www.w3.org/2000/svg" xmlns:xlink="http://www.w3.org/1999/xlink" x="0px" y="0px"
	 viewBox="0 0 512 512" style="enable-background:new 0 0 512 512;" xml:space="preserve">
<g>
	<g>
		<rect x="199.547" y="248.679" width="16.726" height="15.68"/>
	</g>
</g>
<g>
	<g>
		<rect x="223.59" y="271.677" width="16.726" height="15.68"/>
	</g>
</g>
<g>
	<g>
		<rect x="271.676" y="271.677" width="16.726" height="15.68"/>
	</g>
</g>
<g>
	<g>
		<rect x="247.633" y="295.72" width="16.726" height="15.68"/>
	</g>
</g>
<g>
	<g>
		<rect x="247.633" y="343.806" width="16.726" height="15.68"/>
	</g>
</g>
<g>
	<g>
		<rect x="223.59" y="231.953" width="16.726" height="15.68"/>
	</g>
</g>
<g>
	<g>
		<rect x="199.547" y="207.91" width="16.726" height="15.68"/>
	</g>
</g>
<g>
	<g>
		<rect x="247.633" y="207.91" width="16.726" height="15.68"/>
	</g>
</g>
<g>
	<g>
		<rect x="295.719" y="207.91" width="16.726" height="15.68"/>
	</g>
</g>
<g>
	<g>
		<rect x="199.547" y="159.824" width="16.726" height="15.68"/>
	</g>
</g>
<g>
	<g>
		<rect x="247.633" y="159.824" width="16.726" height="15.68"/>
	</g>
</g>
<g>
	<g>
		<rect x="295.719" y="159.824" width="16.726" height="15.68"/>
	</g>
</g>
<g>
	<g>
		<rect x="247.633" y="111.738" width="16.726" height="15.68"/>
	</g>
</g>
<g>
	<g>
		<rect x="247.633" y="63.656" width="16.726" height="15.68"/>
	</g>
</g>
<g>
	<g>
		<rect x="247.633" y="248.679" width="16.726" height="15.68"/>
	</g>
</g>
<g>
	<g>
		<rect x="271.676" y="231.953" width="16.726" height="15.68"/>
	</g>
</g>
<g>
	<g>
		<rect x="271.676" y="183.867" width="16.726" height="15.68"/>
	</g>
</g>
<g>
	<g>
		<rect x="223.59" y="183.867" width="16.726" height="15.68"/>
	</g>
</g>
<g>
	<g>
		<rect x="271.676" y="135.781" width="16.726" height="15.68"/>
	</g>
</g>
<g>
	<g>
		<rect x="223.59" y="135.781" width="16.726" height="15.68"/>
	</g>
</g>
<g>
	<g>
		<rect x="271.676" y="87.695" width="16.726" height="15.68"/>
	</g>
</g>
<g>
	<g>
		<rect x="223.59" y="87.695" width="16.726" height="15.68"/>
	</g>
</g>
<g>
	<g>
		<rect x="295.719" y="248.679" width="16.726" height="15.68"/>
	</g>
</g>
<g>
	<g>
		<rect x="159.823" y="424.298" width="32.406" height="15.68"/>
	</g>
</g>
<g>
	<g>
		<rect x="183.867" y="367.849" width="24.043" height="15.68"/>
	</g>
</g>
<g>
	<g>
		<rect x="135.78" y="312.445" width="32.406" height="15.68"/>
	</g>
</g>
<g>
	<g>
		<rect x="304.082" y="400.255" width="24.043" height="15.68"/>
	</g>
</g>
<g>
	<g>
		<path d="M397.115,148.206c-6.469-1.568-12.867,1.355-15.873,7.188l-2.67,5.03l-5.801-24.546l-0.091-0.351
			c-1.795-6.278-6.887-10.978-13.289-12.264c-6.398-1.286-12.914,1.083-16.993,6.182l-9.644,12.056
			c-9.226-35.253-21.746-69.64-37.504-102.908l-9.303-19.641C280.494,7.439,268.738,0,255.999,0
			c-12.739,0-24.495,7.439-29.948,18.952l-9.304,19.642c-15.758,33.266-28.278,67.653-37.503,102.906l-9.644-12.055
			c-4.08-5.099-10.589-7.47-16.993-6.182c-6.402,1.286-11.494,5.986-13.289,12.264l-5.888,24.903l-2.628-4.952
			c-3.049-5.92-9.445-8.839-15.916-7.273c-6.471,1.569-10.818,7.097-10.818,13.754v206.112c0,79.362,64.566,143.928,143.928,143.928
			h15.845v-4.592l0.165-0.165V512c79.362,0,143.928-64.566,143.928-143.928V161.96C407.932,155.302,403.586,149.775,397.115,148.206
			z M354.645,139.24c0.429-0.536,0.989-0.739,1.661-0.604c0.635,0.128,1.06,0.493,1.264,1.088l9.856,41.705l-19.896,37.488
			c-2.393-19.606-5.755-39.012-10.082-58.178L354.645,139.24z M154.429,139.724c0.204-0.595,0.629-0.961,1.264-1.088
			c0.672-0.135,1.232,0.068,1.661,0.604l17.198,21.499c-4.328,19.168-7.69,38.575-10.082,58.18l-19.896-37.488L154.429,139.724z
			 M236.556,495.803c-45.666-4.056-84.524-32.143-103.806-71.502h27.078v-15.68H126.32c-4.261-12.75-6.574-26.385-6.574-40.549
			v-24.263h16.038v-15.68h-16.038v-87.81h16.038v-15.68h-16.038v-56.542l41.956,79.054c-0.006,0.089-0.015,0.178-0.021,0.268
			l0.169,0.013l4.548,8.57h-6.572v15.68h14.895l73.437,138.369v75.181l-26.64-26.641l-11.088,11.087L236.556,495.803z
			 M255.999,391.374l-29.683-55.926h14.003v-15.68h-16.726v10.55l-10.037-18.913h2.72v-15.68h-11.042l-25.521-48.086h12.52v-15.68
			h-13.444c1.112-10.864,2.53-21.669,4.25-32.406h9.194v-15.68h-6.462c3.621-19.16,8.22-38.093,13.78-56.758v0.309h16.726v-15.68
			h-11.912c6.293-19.129,13.614-37.96,21.947-56.449h14.008v-15.68h-6.705l6.607-13.947c1.601-3.382,4.236-6.092,7.416-7.833V31.25
			h16.726V17.833c3.179,1.74,5.813,4.451,7.415,7.832l6.607,13.947h-6.703v15.68h14.006c8.334,18.489,15.655,37.32,21.947,56.449
			h-11.911v15.68h16.726v-0.306c5.56,18.665,10.159,37.596,13.779,56.756h-6.461v15.68h9.194c1.721,10.737,3.138,21.542,4.25,32.406
			h-13.444v15.68h12.519l-25.521,48.086h-11.042v15.68h2.72l-10.037,18.911v-10.549h-16.726v15.68h14.003L255.999,391.374z
			 M392.252,256h-24.401v15.68h24.401v64.812h-24.401v15.68h24.401v0v15.9c0,34.351-13.578,65.59-35.646,88.635h-28.479v15.68
			h10.396c-18.099,12.967-39.698,21.34-63.081,23.416l26.125-26.127l-11.088-11.087l-26.641,26.642v-75.182l14.074-26.516h41.853
			v-15.68h-33.531l42.719-80.492h31.58v-15.68h-23.258l12.869-24.249l0.17-0.013c-0.006-0.09-0.015-0.179-0.021-0.269l41.956-79.055
			V256z"/>
	</g>
</g>
<g>
</g>
<g>
</g>
<g>
</g>
<g>
</g>
<g>
</g>
<g>
</g>
<g>
</g>
<g>
</g>
<g>
</g>
<g>
</g>
<g>
</g>
<g>
</g>
<g>
</g>
<g>
</g>
<g>
</g>
</svg>
