<?xml version="1.0" encoding="iso-8859-1"?>
<!-- Generator: Adobe Illustrator 19.0.0, SVG Export Plug-In . SVG Version: 6.00 Build 0)  -->
<svg version="1.1" id="Layer_1" xmlns="http://www.w3.org/2000/svg" xmlns:xlink="http://www.w3.org/1999/xlink" x="0px" y="0px"
	 viewBox="0 0 512.001 512.001" style="enable-background:new 0 0 512.001 512.001;" xml:space="preserve">
<g>
	<g>
		<path d="M463.898,239.907v-40.748c27.098-3.819,48.016-27.15,48.016-55.284V71.85c0-39.619-32.232-71.85-71.851-71.85h-7.829
			v16.782c-18.231,3.648-32.011,19.775-32.011,39.063v88.03c0,28.135,20.918,51.465,48.016,55.284v40.748
			c0,10.672-6.952,19.746-16.564,22.946v-29.42l-125.866-24.049c15.971-8.358,27.414-24.211,29.635-42.863
			c9.519-3.127,16.413-12.094,16.413-22.646c0-13.142-10.692-23.834-23.834-23.834s-23.834,10.692-23.834,23.834
			c0,10.213,6.458,18.943,15.504,22.33c-3.043,19.165-19.678,33.864-39.685,33.864h-48.016c-20.008,0-36.643-14.699-39.685-33.864
			c9.046-3.386,15.504-12.116,15.504-22.33c0-13.142-10.692-23.834-23.834-23.834s-23.834,10.692-23.834,23.834
			c0,10.552,6.895,19.519,16.414,22.646c2.229,18.718,13.746,34.616,29.805,42.95L80.949,233.432v29.622
			c-9.933-3.007-17.187-12.244-17.187-23.147v-40.748c27.098-3.819,48.016-27.15,48.016-55.284v-88.03
			c0-19.288-13.78-35.415-32.011-39.063V0h-7.829C32.32,0,0.087,32.231,0.087,71.85v72.024c0,28.135,20.918,51.465,48.016,55.284
			v40.748c0,19.58,14.202,35.895,32.844,39.213v10.295L7.879,305.652v38.291h15.658v-25.73l57.411-12.758v30.486
			c0,3.214,0.093,6.413,0.262,9.597L7.88,361.657v38.653h15.658v-26.065l59.201-13.012c1.676,11.78,4.516,23.272,8.471,34.338
			L7.88,417.968v38.708h15.658v-26.704l73.658-19.797c5.351,11.544,11.976,22.512,19.8,32.732L7.88,474.084V512h15.658v-26.106
			l104.552-29.87c1.343,1.442,2.705,2.87,4.101,4.274c33.085,33.228,77.166,51.528,124.121,51.528
			c46.955,0,91.036-18.299,124.121-51.528c1.321-1.327,2.61-2.677,3.883-4.039l103.727,29.635v26.106h15.658v-37.916
			l-108.259-30.931c7.851-10.216,14.5-21.182,19.872-32.727l72.729,19.548v26.702h15.658v-38.708l-82.379-22.142
			c3.978-11.075,6.841-22.578,8.534-34.37l58.187,12.79v26.065h15.658v-38.653l-72.3-15.893c0.177-3.259,0.276-6.533,0.276-9.823
			v-30.254l56.367,12.526v25.73h15.658v-38.292l-72.024-16.005v-10.639C450.01,275.441,463.898,259.269,463.898,239.907z
			 M415.88,55.845c0.001-10.594,6.852-19.614,16.354-22.875v14.871c0,10.594-6.852,19.614-16.354,22.875V55.845z M418.919,159.184
			h45.117v-15.657h-48.154V87.856V86.91c18.232-3.647,32.011-19.779,32.011-39.068V16.2c27.293,3.819,48.364,27.32,48.364,55.65
			v71.677h-15.52v15.657h12.482c-6.033,14.585-20.41,24.878-37.15,24.878C439.329,184.062,424.952,173.77,418.919,159.184z
			 M328.025,135.698c4.508,0,8.176,3.668,8.176,8.176s-3.668,8.177-8.176,8.177s-8.176-3.669-8.176-8.177
			S323.517,135.698,328.025,135.698z M183.976,152.052c-4.508,0-8.176-3.669-8.176-8.177s3.668-8.176,8.176-8.176
			c4.508,0,8.176,3.668,8.176,8.176S188.484,152.052,183.976,152.052z M79.766,32.971c9.503,3.261,16.354,12.28,16.354,22.875
			v14.871c-9.502-3.262-16.354-12.28-16.354-22.875V32.971z M55.933,184.062c-16.741,0-31.117-10.292-37.15-24.878h13.105v-15.657
			H15.745V71.85c0-28.33,21.07-51.829,48.364-55.65v31.642c0,19.289,13.78,35.42,32.011,39.068v0.947v55.671H47.546v15.657h45.537
			C87.05,173.77,72.673,184.062,55.933,184.062z M416.019,335.94c0,42.837-16.578,83.079-46.681,113.311
			c-28.403,28.525-65.709,44.961-105.718,46.748v-23.665h-15.657v23.617c-36.529-1.866-70.747-15.963-97.932-40.318h1.9v-15.657
			h-15.657v1.755c-11.223-12.793-20.218-27.107-26.785-42.464h18.434v-15.657h-24.179c-4.694-15.232-7.136-31.259-7.136-47.669
			v-48.364h55.323v-15.657H96.606v-25.536l151.356-28.919v38.798h15.657v-38.998l152.4,29.119V335.94z"/>
	</g>
</g>
<g>
	<g>
		<rect x="159.237" y="295.927" width="16.701" height="15.657"/>
	</g>
</g>
<g>
	<g>
		<rect x="127.922" y="352.294" width="88.726" height="15.657"/>
	</g>
</g>
<g>
	<g>
		<rect x="279.278" y="295.927" width="32.359" height="15.657"/>
	</g>
</g>
<g>
	<g>
		<rect x="311.637" y="280.269" width="49.06" height="15.658"/>
	</g>
</g>
<g>
	<g>
		<rect x="279.278" y="247.91" width="16.701" height="15.658"/>
	</g>
</g>
<g>
	<g>
		<path d="M317.383,441.312c-11.866,4.539-24.536,6.84-37.062,6.84v15.658c14.614,0,29.075-2.649,42.733-7.874L317.383,441.312z"/>
	</g>
</g>
<g>
	<g>
		<path d="M384.218,343.942c0,37.087-19.965,71.677-52.106,90.271l7.841,13.553c36.962-21.384,59.922-61.168,59.922-103.824H384.218
			z"/>
	</g>
</g>
<g>
	<g>
		<rect x="200.991" y="407.617" width="62.63" height="15.658"/>
	</g>
</g>
<g>
	<g>
		<rect x="279.278" y="407.617" width="16.701" height="15.658"/>
	</g>
</g>
<g>
	<g>
		<rect x="167.588" y="439.976" width="49.06" height="15.657"/>
	</g>
</g>
<g>
</g>
<g>
</g>
<g>
</g>
<g>
</g>
<g>
</g>
<g>
</g>
<g>
</g>
<g>
</g>
<g>
</g>
<g>
</g>
<g>
</g>
<g>
</g>
<g>
</g>
<g>
</g>
<g>
</g>
</svg>
