<?xml version="1.0" encoding="iso-8859-1"?>
<!-- Generator: Adobe Illustrator 19.0.0, SVG Export Plug-In . SVG Version: 6.00 Build 0)  -->
<svg version="1.1" id="Layer_1" xmlns="http://www.w3.org/2000/svg" xmlns:xlink="http://www.w3.org/1999/xlink" x="0px" y="0px"
	 viewBox="0 0 512 512" style="enable-background:new 0 0 512 512;" xml:space="preserve">
<g>
	<g>
		<path d="M164.08,0.074v120.021c0,22.148-18.019,40.168-40.168,40.168s-40.169-18.018-40.169-40.168V0.074h-15.68v120.02
			c0,28.366,21.264,51.844,48.686,55.373v8.564h15.68v-8.739c26.767-4.113,47.33-27.299,47.33-55.198V0.074H164.08z"/>
	</g>
</g>
<g>
	<g>
		<polygon points="139.747,0.055 139.747,96.225 131.678,96.225 130.764,0 115.085,0.149 115.997,96.225 107.341,96.225 
			107.341,0.055 91.662,0.055 91.662,111.905 155.426,111.905 155.426,0.055 		"/>
	</g>
</g>
<g>
	<g>
		<path d="M132.429,232.275v-39.879h-15.68v39.879h-16.68v255.882c0,13.147,10.696,23.843,23.843,23.843
			s23.843-10.695,23.843-23.843V232.275H132.429z M115.748,247.955h16.326v100.932l-16.326,16.326V247.955z M115.748,387.388
			l16.326-16.326v17.831l-16.326,16.325V387.388z M132.075,488.157c-0.001,4.501-3.663,8.163-8.163,8.163
			c-4.501,0-8.163-3.662-8.163-8.163v-60.764l16.326-16.325V488.157z"/>
	</g>
</g>
<g>
	<g>
		<path d="M284.003,296.285v-7.72h-0.001h-15.68v7.721h-16.227v191.871c0,13.147,10.696,23.843,23.843,23.843
			s23.843-10.695,23.843-23.843V296.285H284.003z M284.1,488.157c0,4.501-3.662,8.163-8.163,8.163c-4.501,0-8.163-3.662-8.163-8.163
			v-60.764l16.326-16.325V488.157z M284.1,388.893l-16.326,16.325v-17.83l16.326-16.326V388.893z M284.1,348.886l-16.326,16.326
			v-53.247H284.1V348.886z"/>
	</g>
</g>
<g>
	<g>
		<path d="M395.852,232.275v-39.879h-15.68v39.879h-16.058v255.882c0,13.147,10.696,23.843,23.843,23.843
			c13.147,0,23.843-10.695,23.843-23.843V232.275H395.852z M396.119,488.157c0,4.501-3.662,8.163-8.163,8.163
			s-8.163-3.662-8.163-8.163v-60.764l16.326-16.325V488.157z M396.119,388.893l-16.326,16.325v-17.83l16.326-16.326V388.893z
			 M396.119,348.886l-16.326,16.326V247.955h16.326V348.886z"/>
	</g>
</g>
<g>
	<g>
		<path d="M260.047,0.235c-13.072,0-23.726,10.524-23.896,23.526l-16.348,221.864l48.52,16.145v18.432h15.679v-13.214V256.16V24.078
			C284.002,10.931,273.256,0.235,260.047,0.235z M268.322,245.245l-31.985-10.642l0.799-10.847h14.46v-15.68h-13.305l0.616-8.363
			h12.689v-15.68h-11.533l0.539-7.317h10.995v-15.68h-9.839l0.693-9.408h9.146v-15.68h-7.99l8.201-111.294l0.022-0.576
			c0-4.501,3.687-8.163,8.218-8.163c4.563,0,8.275,3.662,8.275,8.163V245.245z"/>
	</g>
</g>
<g>
	<g>
		<path d="M435.869,47.629c-0.245-26.175-21.677-47.394-47.908-47.394c-26.231,0-47.596,21.219-47.84,47.394l-7.948,71.6
			l-0.031,0.866c0,28.129,20.936,51.456,48.031,55.285v8.652h15.68v-8.649c27.111-3.82,48.085-27.151,48.085-55.288v-0.434
			L435.869,47.629z M387.956,160.262c-22.009,0-39.942-17.795-40.167-39.752l7.924-71.562l0.019-0.866
			c0-17.737,14.372-32.167,32.109-32.167s32.052,14.431,32.052,32.167v0.434l8.114,71.994
			C427.785,142.47,409.968,160.262,387.956,160.262z"/>
	</g>
</g>
<g>
	<g>
		<path d="M404.12,120.268c0,8.363-7.251,16.164-16.164,16.164c-8.912,0-16.164-7.801-16.164-16.164h-15.68
			c0,17.771,14.285,31.844,31.844,31.844c17.558,0,31.844-14.073,31.844-31.844H404.12z"/>
	</g>
</g>
<g>
</g>
<g>
</g>
<g>
</g>
<g>
</g>
<g>
</g>
<g>
</g>
<g>
</g>
<g>
</g>
<g>
</g>
<g>
</g>
<g>
</g>
<g>
</g>
<g>
</g>
<g>
</g>
<g>
</g>
</svg>
