<?xml version="1.0" encoding="iso-8859-1"?>
<!-- Generator: Adobe Illustrator 19.0.0, SVG Export Plug-In . SVG Version: 6.00 Build 0)  -->
<svg version="1.1" id="Layer_1" xmlns="http://www.w3.org/2000/svg" xmlns:xlink="http://www.w3.org/1999/xlink" x="0px" y="0px"
	 viewBox="0 0 512 512" style="enable-background:new 0 0 512 512;" xml:space="preserve">
<g>
	<g>
		<path d="M512,255.999c0-68.38-26.629-132.667-74.981-181.018C388.667,26.628,324.38,0,255.999,0
			C187.619,0,123.332,26.628,74.98,74.981C26.629,123.332,0,187.619,0,255.999c0,0.145,0.005,0.287,0.005,0.432H0
			c0,0.129,0.009,0.257,0.009,0.386C0.221,324.891,26.822,388.86,74.98,437.019C123.332,485.371,187.619,512,255.999,512
			s132.667-26.628,181.02-74.981c48.156-48.156,74.756-112.119,74.971-180.189c0.001-0.133,0.01-0.264,0.01-0.398h-0.005
			C511.995,256.287,512,256.144,512,255.999z M425.899,425.899c-45.382,45.381-105.72,70.374-169.899,70.374
			S131.484,471.28,86.102,425.899C51.928,391.726,29.322,349.07,20.238,302.68c11.432,10.749,26.786,17.43,43.657,17.43
			c35.231,0,63.894-28.663,63.894-63.894c0-8.905,7.245-16.15,16.15-16.15s16.15,6.93,16.15,16.366h0.005
			c0.234,52.687,43.165,95.48,95.906,95.48c52.742,0,95.672-42.792,95.906-95.48h0.005c0-23.065,18.017-40.326,40.163-40.326
			c22.147,0,40.164,17.856,40.164,40.002c0,21.991,17.89,39.989,39.881,39.989c8.049,0,15.542-2.372,21.816-6.449
			C486.773,341.063,463.249,388.548,425.899,425.899z M175.814,255.999c0-44.214,35.971-80.184,80.185-80.184
			c44.214,0,80.185,35.971,80.185,80.184c0,44.215-35.97,80.185-80.185,80.185C211.785,336.185,175.814,300.214,175.814,255.999z
			 M496.262,256.79c-0.204,12.437-10.954,23.633-24.145,23.633c-7.946,0-15.006-3.916-19.411-9.902l24.97-24.971l-11.12-11.121
			l-18.677,18.677c-1.313-24.684-18.722-45.102-41.9-51.036l7.662-7.663l-32.017-32.016l-11.12,11.121l27.088,27.087
			c-1.816-0.178-3.657-0.274-5.519-0.274c-18.859,0-35.553,9.242-45.68,23.615c-13.221-37.168-48.747-63.852-90.395-63.852
			c-44.251,0-81.591,30.124-92.608,70.941c-5.387-4.165-12.133-6.637-19.453-6.637c-17.577,0-31.876,14.138-31.876,31.715
			c0,26.56-21.608,48.276-48.168,48.276c-26.429,0-47.944-21.527-48.158-47.563c-0.001-0.275-0.01-0.546-0.01-0.821
			c0-7.301,0.34-14.55,0.98-21.736l28.734-28.734l-11.12-11.121L20.44,208.29c9.216-45.992,31.74-88.269,65.662-122.189
			C131.483,40.72,191.82,15.726,255.999,15.726S380.517,40.72,425.898,86.101c4.852,4.852,9.456,9.885,13.836,15.065l-29.207,29.207
			l11.12,11.121l27.918-27.918c12.035,16.283,21.863,33.897,29.353,52.463l-28.369,28.369l11.12,11.121l23.153-23.153
			c7.528,23.485,11.45,48.252,11.45,73.624C496.272,256.263,496.263,256.526,496.262,256.79z"/>
	</g>
</g>
<g>
	<g>
		
			<rect x="129.303" y="176.102" transform="matrix(0.7071 -0.7071 0.7071 0.7071 -85.5799 161.3224)" width="45.281" height="15.726"/>
	</g>
</g>
<g>
	<g>
		<rect x="97.3" y="96.053" transform="matrix(0.7071 -0.7071 0.7071 0.7071 -38.3498 115.2469)" width="45.281" height="15.726"/>
	</g>
</g>
<g>
	<g>
		
			<rect x="169.329" y="88.043" transform="matrix(0.7071 -0.7071 0.7071 0.7071 -11.5896 163.8331)" width="45.281" height="15.726"/>
	</g>
</g>
<g>
	<g>
		
			<rect x="337.421" y="128.063" transform="matrix(0.7071 -0.7071 0.7071 0.7071 9.3454 294.4139)" width="45.281" height="15.726"/>
	</g>
</g>
<g>
	<g>
		
			<rect x="64.043" y="225.353" transform="matrix(0.7071 -0.7071 0.7071 0.7071 -154.2974 123.4813)" width="15.726" height="45.281"/>
	</g>
</g>
<g>
	<g>
		
			<rect x="72.042" y="137.306" transform="matrix(0.7071 -0.7071 0.7071 0.7071 -89.6955 103.349)" width="15.726" height="45.281"/>
	</g>
</g>
<g>
	<g>
		
			<rect x="336.185" y="41.249" transform="matrix(0.7071 -0.7071 0.7071 0.7071 55.5929 261.9922)" width="15.726" height="45.281"/>
	</g>
</g>
<g>
	<g>
		
			<rect x="256.147" y="97.285" transform="matrix(0.7071 -0.7071 0.7071 0.7071 -7.4732 221.8087)" width="15.726" height="45.281"/>
	</g>
</g>
<g>
	<g>
		<rect x="248.133" y="25.24" transform="matrix(0.7071 -0.7071 0.7071 0.7071 41.1227 195.0406)" width="15.726" height="45.281"/>
	</g>
</g>
<g>
</g>
<g>
</g>
<g>
</g>
<g>
</g>
<g>
</g>
<g>
</g>
<g>
</g>
<g>
</g>
<g>
</g>
<g>
</g>
<g>
</g>
<g>
</g>
<g>
</g>
<g>
</g>
<g>
</g>
</svg>
