<?xml version="1.0" encoding="iso-8859-1"?>
<!-- Generator: Adobe Illustrator 19.0.0, SVG Export Plug-In . SVG Version: 6.00 Build 0)  -->
<svg version="1.1" id="Layer_1" xmlns="http://www.w3.org/2000/svg" xmlns:xlink="http://www.w3.org/1999/xlink" x="0px" y="0px"
	 viewBox="0 0 511.999 511.999" style="enable-background:new 0 0 511.999 511.999;" xml:space="preserve">
<g>
	<g>
		<path d="M297.715,56.396V39.863c0-13.332,10.846-24.178,24.178-24.178c13.332,0,24.178,10.847,24.178,24.178h15.685
			C361.755,17.883,343.873,0,321.893,0S282.03,17.883,282.03,39.863v16.55c-44.746,4.033-79.886,41.733-79.886,87.517v12.689
			l7.841-3.93v87.289c0,23.842-8.907,46.62-25.077,64.139l-21.207,22.974c-30.036,32.538-37.805,78.309-20.281,119.451
			c16.833,39.515,53.547,64.586,95.817,65.432c0.86,0.018,1.722,0.025,2.589,0.025c2.06,0,4.132-0.048,6.19-0.145
			c33.103-1.559,63.917-16.153,86.768-41.096c22.555-24.619,34.976-56.606,34.976-90.068V152.594l8.054,4.024v-12.689
			C377.814,98.074,342.561,60.328,297.715,56.396z M323.218,460.163c-20.034,21.868-47.004,34.661-75.939,36.024
			c-2.576,0.121-5.177,0.158-7.729,0.106c-18.55-0.371-36.019-6.077-50.519-16.502c-13.579-9.762-24.362-23.385-31.181-39.395
			c-15.074-35.386-8.417-74.726,17.374-102.666l21.207-22.974c18.854-20.425,29.238-46.982,29.238-74.778v-95.149l10.92-5.473
			l26.603,13.342l26.686-13.342l26.688,13.342l26.696-13.342l10.811,5.402v235.934h0.002
			C354.075,410.22,343.118,438.444,323.218,460.163z M343.24,121.82l-26.684,13.342l-26.682-13.342l-26.684,13.342l-26.684-13.342
			l-17.614,8.807c6.261-33.482,35.708-58.905,70.981-58.905s64.719,25.423,70.981,58.905L343.24,121.82z"/>
	</g>
</g>
<g>
	<g>
		<path d="M196.908,343.981c-12.078,9.684-20.845,23.23-24.684,38.146l15.188,3.91c3-11.653,9.857-22.242,19.307-29.818
			L196.908,343.981z"/>
	</g>
</g>
<g>
	<g>
		<path d="M185.643,400.226h-15.685c0,39.735,32.184,71.749,71.92,71.749V456.29C210.508,456.29,185.643,431.596,185.643,400.226z"
			/>
	</g>
</g>
<g>
</g>
<g>
</g>
<g>
</g>
<g>
</g>
<g>
</g>
<g>
</g>
<g>
</g>
<g>
</g>
<g>
</g>
<g>
</g>
<g>
</g>
<g>
</g>
<g>
</g>
<g>
</g>
<g>
</g>
</svg>
