<?xml version="1.0" encoding="iso-8859-1"?>
<!-- Generator: Adobe Illustrator 19.0.0, SVG Export Plug-In . SVG Version: 6.00 Build 0)  -->
<svg version="1.1" id="Layer_1" xmlns="http://www.w3.org/2000/svg" xmlns:xlink="http://www.w3.org/1999/xlink" x="0px" y="0px"
	 viewBox="0 0 512 512" style="enable-background:new 0 0 512 512;" xml:space="preserve">
<g>
	<g>
		<path d="M336.074,63.794V48.195H175.926v15.599h8.286v432.607h-8.286V512h160.148v-15.599h-8.189V63.794H336.074z M199.811,86.672
			h14.362l-14.362,14.361V86.672z M199.811,123.095l36.423-36.423h33.971l-70.394,70.394V123.095z M199.811,423.607h13.622
			l-13.622,13.622V423.607z M199.811,459.289l35.683-35.683h33.971l-48.876,48.876h-20.778V459.289z M312.286,496.401H199.811
			v-8.319h112.475V496.401z M312.286,472.483h-13.602l13.602-13.603V472.483z M312.286,436.818l-35.664,35.665h-33.971
			l48.876-48.876h20.759V436.818z M312.286,408.008H199.811v-80.074h112.475V408.008z M312.286,312.335h-21.552l21.552-21.552
			V312.335z M312.286,268.721l-43.613,43.613h-33.971l77.584-77.584V268.721z M312.286,212.688l-99.646,99.646h-12.828v-21.142
			l112.475-112.475V212.688z M312.286,156.657L199.811,269.132V235.16l112.475-112.475V156.657z M312.286,100.624L199.811,213.099
			v-33.97l92.456-92.456h20.018V100.624z M312.286,71.073H199.811v-7.279h112.475V71.073z"/>
	</g>
</g>
<g>
	<g>
		<path d="M256.048,0c-13.128,0-23.809,10.681-23.809,23.809v16.01h15.599v-16.01h0.001c0-4.528,3.682-8.21,8.21-8.21
			s8.211,3.682,8.211,8.21v16.01h15.599v-16.01C279.858,10.681,269.177,0,256.048,0z"/>
	</g>
</g>
<g>
	<g>
		<rect x="216.481" y="344.578" width="80.074" height="15.599"/>
	</g>
</g>
<g>
	<g>
		<rect x="232.08" y="375.776" width="47.836" height="15.599"/>
	</g>
</g>
<g>
</g>
<g>
</g>
<g>
</g>
<g>
</g>
<g>
</g>
<g>
</g>
<g>
</g>
<g>
</g>
<g>
</g>
<g>
</g>
<g>
</g>
<g>
</g>
<g>
</g>
<g>
</g>
<g>
</g>
</svg>
