<?xml version="1.0" encoding="iso-8859-1"?>
<!-- Generator: Adobe Illustrator 19.0.0, SVG Export Plug-In . SVG Version: 6.00 Build 0)  -->
<svg version="1.1" id="Layer_1" xmlns="http://www.w3.org/2000/svg" xmlns:xlink="http://www.w3.org/1999/xlink" x="0px" y="0px"
	 viewBox="0 0 512 512" style="enable-background:new 0 0 512 512;" xml:space="preserve">
<g>
	<g>
		<path d="M438.974,80.028H73.026C32.759,80.028,0,112.787,0,153.054v205.892c0,40.267,32.759,73.026,73.026,73.026h365.948
			c40.266,0,73.026-32.759,73.026-73.026V153.054C512,112.787,479.241,80.028,438.974,80.028z M496.174,358.946
			c0,31.541-25.659,57.199-57.199,57.199H73.026c-31.541,0-57.199-25.66-57.199-57.199V153.054
			c0-31.541,25.659-57.199,57.199-57.199h365.948c31.541,0,57.199,25.66,57.199,57.199V358.946z"/>
	</g>
</g>
<g>
	<g>
		<rect x="400.543" y="248.61" width="15.826" height="15.826"/>
	</g>
</g>
<g>
	<g>
		<path d="M180.063,340.407c0,16.881-14.4,32.101-32.101,32.101c-17.7,0-32.101-15.22-32.101-32.101h-15.826
			c0,26.377,21.501,47.927,47.927,47.927c26.427,0,47.927-21.55,47.927-47.927H180.063z"/>
	</g>
</g>
<g>
	<g>
		<path d="M156.055,340.407c0,4.22-3.63,8.093-8.093,8.093s-8.092-3.872-8.092-8.093h-15.826c0,12.661,10.73,23.919,23.919,23.919
			c13.189,0,23.919-11.258,23.919-23.919H156.055z"/>
	</g>
</g>
<g>
	<g>
		<path d="M431.798,140.223c-9.053-9.053-21.088-14.038-33.889-14.038c-12.802,0-24.838,4.985-33.89,14.038l11.191,11.19
			c12.517-12.514,32.884-12.513,45.397,0.001c12.516,12.517,12.516,32.882,0,45.397l11.191,11.19
			c9.052-9.053,14.038-21.088,14.038-33.889C445.835,161.311,440.849,149.275,431.798,140.223z"/>
	</g>
</g>
<g>
	<g>
		<path d="M414.82,157.201c-9.327-9.326-24.5-9.326-33.827,0l11.191,11.19c3.155-3.155,8.287-3.156,11.445,0
			c1.528,1.528,2.37,3.561,2.37,5.722c0,2.162-0.842,4.194-2.37,5.722l11.189,11.191c4.518-4.518,7.007-10.524,7.007-16.914
			C421.826,167.724,419.337,161.717,414.82,157.201z"/>
	</g>
</g>
<g>
	<g>
		<path d="M89.177,141.196c-4.518,4.518-7.007,10.524-7.007,16.913c0,6.39,2.488,12.396,7.007,16.914l11.19-11.193
			c-1.528-1.529-2.37-3.561-2.37-5.722s0.842-4.194,2.371-5.722c3.155-3.155,8.288-3.155,11.443,0l11.191-11.19
			C113.676,131.869,98.5,131.871,89.177,141.196z"/>
	</g>
</g>
<g>
	<g>
		<path d="M430.825,328.974l-11.189,11.193c1.528,1.529,2.37,3.561,2.37,5.722s-0.842,4.194-2.371,5.722
			c-3.155,3.155-8.288,3.155-11.443,0L397,362.801c4.663,4.664,10.788,6.995,16.913,6.994c6.125,0,12.251-2.332,16.912-6.994
			c4.518-4.518,7.007-10.525,7.007-16.913C437.832,339.499,435.344,333.492,430.825,328.974z"/>
	</g>
</g>
<g>
	<g>
		<path d="M191.977,136.047h-24.009c-13.189,0-23.919,10.73-23.919,23.919c0,2.839,0.5,5.563,1.412,8.093h-9.504
			c-13.189,0-23.919,10.73-23.919,23.919s10.73,23.919,23.919,23.919h24.009c13.189,0,23.919-10.73,23.919-23.919
			c0-2.839-0.5-5.563-1.412-8.093h9.504c13.189,0,23.919-10.73,23.919-23.919C215.896,146.777,205.166,136.047,191.977,136.047z
			 M159.966,200.07h-24.008c-4.462,0-8.093-3.631-8.093-8.093s3.631-8.093,8.093-8.093h24.008c4.462,0,8.093,3.631,8.093,8.093
			S164.429,200.07,159.966,200.07z M191.977,168.058h-24.009c-4.462,0-8.093-3.631-8.093-8.093c0-4.462,3.631-8.092,8.093-8.092
			h24.009c4.462,0,8.092,3.631,8.092,8.092C200.07,164.428,196.44,168.058,191.977,168.058z"/>
	</g>
</g>
<g>
	<g>
		<rect x="55.533" y="344.623" width="16.881" height="15.826"/>
	</g>
</g>
<g>
	<g>
		<rect x="72.411" y="367.835" width="15.826" height="15.826"/>
	</g>
</g>
<g>
	<g>
		<rect x="360.449" y="344.623" width="15.826" height="15.826"/>
	</g>
</g>
<g>
	<g>
		<rect x="327.742" y="367.835" width="15.826" height="15.826"/>
	</g>
</g>
<g>
	<g>
		<polygon points="159.987,311.92 159.987,304.534 144.161,304.534 144.161,320.36 159.987,320.36 159.987,327.746 175.813,327.746 
			175.813,311.92 		"/>
	</g>
</g>
<g>
	<g>
		<rect x="360.449" y="168.424" width="15.826" height="15.826"/>
	</g>
</g>
<g>
	<g>
		<rect x="231.729" y="128.33" width="15.826" height="15.826"/>
	</g>
</g>
<g>
	<g>
		<path d="M434.941,104.036H77.058c-29.252,0-53.05,23.799-53.05,53.05v197.827c0,29.252,23.799,53.05,53.05,53.05h357.882
			c29.252,0,53.05-23.799,53.05-53.05V157.087C487.992,127.834,464.193,104.036,434.941,104.036z M296.013,127.865h24.008
			c4.463,0,8.093,3.631,8.093,8.093s-3.63,8.093-8.093,8.093h-24.008c-4.462,0-8.093-3.631-8.093-8.093
			S291.55,127.865,296.013,127.865z M472.164,200.081h-8.313v15.826h8.313v38.042c-7.65-5.89-23.635-17.386-45.627-28.96
			c-31.183-16.411-59.359-24.994-82.821-29.228c-2.114-20.037-19.11-35.704-39.7-35.704h-86.001l24.398,40.664
			c-24.021,6.568-44.955,15.869-60.918,24.268c-17.13,9.016-30.612,17.982-39.355,24.291c-6.669-28.176-32.018-49.21-62.203-49.21
			H40.013v7.913c0,24.103,13.412,45.127,33.161,56.02c-19.749,10.892-33.161,31.916-33.161,56.02v7.913h39.924
			c30.185,0,55.533-21.034,62.203-49.21c8.742,6.309,22.224,15.277,39.355,24.291c22.004,11.58,42.507,19.255,60.92,24.266
			l-24.4,40.667h86.001c20.582,0,37.571-15.655,39.697-35.681c33.209-6.013,62.176-18.385,82.824-29.251
			c21.992-11.574,37.977-23.071,45.627-28.96v80.857c0.001,20.523-16.698,37.221-37.224,37.221h-8.543
			c7.846-2.104,15.261-6.214,21.406-12.358c18.686-18.687,18.686-49.092,0-67.779l-11.191,11.19
			c12.515,12.516,12.515,32.882,0,45.397c-12.513,12.514-32.881,12.516-45.396,0l-11.191,11.19
			c6.145,6.145,13.56,10.255,21.406,12.358H224.347v-8.471h-15.826v8.471H77.058c-20.525,0-37.223-16.699-37.223-37.223V157.087
			c0-20.526,16.699-37.223,37.223-37.223h0.161c-1.747,1.32-3.429,2.765-5.02,4.355c-18.687,18.687-18.687,49.092,0,67.779
			l11.191-11.19c-12.516-12.516-12.516-32.882,0-45.397c12.514-12.515,32.882-12.516,45.396,0l11.191-11.19
			c-1.591-1.591-3.273-3.035-5.019-4.355h143.377c-3.875,4.252-6.242,9.903-6.242,16.095c0,13.189,10.73,23.919,23.919,23.919
			h24.008c13.189,0,23.919-10.73,23.919-23.919c0-6.192-2.367-11.843-6.242-16.095h97.242c20.525,0,37.224,16.699,37.224,37.224
			V200.081z M381.02,222.217c36.672,13.216,65.105,32.195,78.134,41.786c-13.03,9.591-41.463,28.57-78.135,41.786
			c7.125-12.615,10.938-26.904,10.938-41.786C391.957,249.121,388.144,234.832,381.02,222.217z M252.8,214.37
			c12.659-3.123,25.989-5.31,39.754-6.116l-88.243,88.243c-8.073-3.701-15.545-7.545-22.318-11.32L252.8,214.37z M167.913,276.876
			c-8.022-5.007-14.476-9.518-19.036-12.873c12.175-8.961,37.8-26.118,71.022-39.113L167.913,276.876z M245.967,175.882h58.05
			c10.991,0,20.281,7.4,23.165,17.476c-8.628-0.94-16.392-1.292-23.165-1.292c-15.795,0-31.063,1.823-45.466,4.787L245.967,175.882z
			 M314.964,208.228c10.209,0.572,20.177,1.904,29.814,3.824l-99.573,99.574c-8.78-2.465-17.195-5.341-25.178-8.46L314.964,208.228z
			 M359.846,219.364c5.393,6.392,9.54,13.603,12.292,21.344l-79.068,79.069c-10.209-0.572-20.176-1.904-29.814-3.824
			L359.846,219.364z M258.561,331.136c17.882,3.662,33.27,4.803,45.456,4.803c7.865,0,15.597-0.454,23.16-1.272
			c-2.891,10.068-12.176,17.457-23.16,17.457h-58.05L258.561,331.136z M315.478,319.752l60.475-60.475
			c0.104,1.567,0.177,3.141,0.177,4.727c0,18.529-7.216,35.949-20.32,49.052l-0.579,0.579
			C342.573,316.757,329.244,318.944,315.478,319.752z M103.947,256.09c-23.832,0-43.672-17.418-47.457-40.194h23.448
			c23.832,0,43.672,17.418,47.457,40.194H103.947z M127.394,271.916c-3.785,22.775-23.624,40.194-47.457,40.194H56.49
			c3.785-22.775,23.624-40.194,47.457-40.194H127.394z"/>
	</g>
</g>
<g>
</g>
<g>
</g>
<g>
</g>
<g>
</g>
<g>
</g>
<g>
</g>
<g>
</g>
<g>
</g>
<g>
</g>
<g>
</g>
<g>
</g>
<g>
</g>
<g>
</g>
<g>
</g>
<g>
</g>
</svg>
