<?xml version="1.0" encoding="iso-8859-1"?>
<!-- Generator: Adobe Illustrator 19.0.0, SVG Export Plug-In . SVG Version: 6.00 Build 0)  -->
<svg version="1.1" id="Layer_1" xmlns="http://www.w3.org/2000/svg" xmlns:xlink="http://www.w3.org/1999/xlink" x="0px" y="0px"
	 viewBox="0 0 512 512" style="enable-background:new 0 0 512 512;" xml:space="preserve">
<g>
	<g>
		<rect x="183.399" y="279.985" width="144.951" height="15.642"/>
	</g>
</g>
<g>
	<g>
		<rect x="215.727" y="312.312" width="80.297" height="15.642"/>
	</g>
</g>
<g>
	<g>
		<rect x="143.773" y="408.251" width="16.685" height="15.642"/>
	</g>
</g>
<g>
	<g>
		<rect x="167.757" y="408.251" width="15.642" height="15.642"/>
	</g>
</g>
<g>
	<g>
		<rect x="191.742" y="408.251" width="16.685" height="15.642"/>
	</g>
</g>
<g>
	<g>
		<rect x="215.727" y="408.251" width="15.642" height="15.642"/>
	</g>
</g>
<g>
	<g>
		<path d="M421.418,138.81c-6.724-38.441-26.906-73.593-56.825-98.98C334.322,14.145,295.756,0,256,0
			c-39.756,0-78.321,14.145-108.593,39.83c-29.919,25.386-50.101,60.538-56.825,98.98c-2.321,13.271-2.688,27.716-1.121,44.162
			L120.797,512h270.408l31.335-329.028C424.107,166.526,423.738,152.08,421.418,138.81z M105.989,141.504
			c5-28.582,18.217-55.16,37.781-76.5v30.402h15.642V79.765h8.342v56.312h15.642V64.122h-38.809
			c4.053-4.353,8.368-8.487,12.938-12.366C184.975,28.468,219.947,15.642,256,15.642s71.025,12.826,98.474,36.115
			c14.517,12.318,26.502,27.168,35.446,43.65h-29.244v69.674l-8.342,14.67V55.78h-40.67v160.593h-7.3V31.795h-40.67V55.78h15.642
			v-8.342h9.385v168.936h-9.385V64.123h-38.584v152.251h-9.385V40.138h-38.584v95.939h15.642V55.78h7.3v160.593h-7.3v-72.997h-40.67
			v50.599l-8.343-14.67v-74.513H120.83v55.269h-16.625C104.373,153.523,104.964,147.365,105.989,141.504z M383.618,111.049v49.012
			h-7.3v-49.012H383.618z M336.692,71.422v135.836l-5.184,9.115h-4.201V71.422C327.306,71.422,336.692,71.422,336.692,71.422z
			 M263.695,79.765v136.608h-7.3V79.765H263.695z M192.784,159.018v57.355h-9.385v-57.355H192.784z M143.772,120.434v39.627h-7.3
			v-39.627H143.772z M376.982,496.358H135.019l-1.538-16.153H378.52L376.982,496.358z M380.009,464.562H131.991l-0.795-8.342
			h249.608L380.009,464.562z M382.294,440.578H129.707L107.56,208.031h15.799l32.023,56.312H356.62l32.024-56.312h15.798
			L382.294,440.578z M406.968,181.488l-1.038,10.901h-26.387L347.519,248.7H164.481l-32.023-56.312H106.07l-1.038-10.901
			c-0.187-1.963-0.341-3.888-0.468-5.784h34.806l32.023,56.312h169.216l32.023-56.312h3.687h31.117
			C407.309,177.6,407.156,179.526,406.968,181.488z M399.261,160.061v-43.877c2.968,8.197,5.236,16.666,6.75,25.321
			c1.025,5.861,1.616,12.018,1.784,18.557H399.261z"/>
	</g>
</g>
<g>
</g>
<g>
</g>
<g>
</g>
<g>
</g>
<g>
</g>
<g>
</g>
<g>
</g>
<g>
</g>
<g>
</g>
<g>
</g>
<g>
</g>
<g>
</g>
<g>
</g>
<g>
</g>
<g>
</g>
</svg>
