<?xml version="1.0" encoding="iso-8859-1"?>
<!-- Generator: Adobe Illustrator 19.0.0, SVG Export Plug-In . SVG Version: 6.00 Build 0)  -->
<svg version="1.1" id="Layer_1" xmlns="http://www.w3.org/2000/svg" xmlns:xlink="http://www.w3.org/1999/xlink" x="0px" y="0px"
	 viewBox="0 0 512 512" style="enable-background:new 0 0 512 512;" xml:space="preserve">
<g>
	<g>
		<rect x="175.79" y="441.433" width="16.483" height="15.453"/>
	</g>
</g>
<g>
	<g>
		<rect x="199.484" y="441.433" width="16.483" height="15.453"/>
	</g>
</g>
<g>
	<g>
		<rect x="224.209" y="441.433" width="15.453" height="15.453"/>
	</g>
</g>
<g>
	<g>
		<rect x="247.903" y="441.433" width="16.483" height="15.453"/>
	</g>
</g>
<g>
	<g>
		<rect x="271.597" y="441.433" width="16.483" height="15.453"/>
	</g>
</g>
<g>
	<g>
		<rect x="296.321" y="441.433" width="15.453" height="15.453"/>
	</g>
</g>
<g>
	<g>
		<rect x="320.015" y="441.433" width="16.483" height="15.453"/>
	</g>
</g>
<g>
	<g>
		<path d="M346.816,381.031c28.631-25.74,45.052-62.555,45.052-101.004v-7.726h-23.639c10.246-26.974,15.63-57.274,15.63-88.38
			c0-48.6-12.973-94.391-36.528-128.941C323.156,19.526,290.722,0,256,0s-67.156,19.526-91.33,54.98
			c-23.556,34.549-36.528,80.341-36.528,128.941c0,31.106,5.385,61.406,15.63,88.38h-23.64v7.726
			c0,38.449,16.421,75.264,45.052,101.004c3.251,2.922,5.042,6.871,5.042,11.12c0,4.248-1.79,8.197-5.042,11.119
			c-28.631,25.74-45.052,62.555-45.052,101.004V512h271.735v-7.726c0-38.449-16.421-75.264-45.052-101.004
			c-3.251-2.922-5.042-6.871-5.042-11.119C341.774,387.902,343.564,383.953,346.816,381.031z M143.594,183.92
			c0-92.893,50.425-168.468,112.406-168.468S368.406,91.027,368.406,183.92c0,31.389-5.803,61.823-16.802,88.38H160.397
			C149.397,245.745,143.594,215.309,143.594,183.92z M135.835,287.753h240.331c-0.205,3.173-0.543,6.325-0.996,9.454H136.831
			C136.377,294.079,136.04,290.925,135.835,287.753z M376.165,496.547H135.835c0.168-2.59,0.427-5.165,0.76-7.726h238.81
			C375.739,491.382,375.998,493.957,376.165,496.547z M327.438,400.225c1.548,5.527,4.66,10.594,9.045,14.536
			c8.725,7.843,16.168,16.848,22.182,26.671h-14.959v15.453h22.951c2.292,5.344,4.199,10.852,5.7,16.483H139.639
			c1.501-5.631,3.408-11.139,5.7-16.483h22.205v-15.453h-14.212c6.014-9.823,13.457-18.828,22.182-26.671
			c4.385-3.943,7.497-9.01,9.045-14.536h23.163v-15.453h-22.978c-1.476-5.797-4.657-11.127-9.227-15.234
			c-17.087-15.361-29.26-35.173-35.395-56.878h231.758c-6.134,21.705-18.306,41.517-35.394,56.878
			c-4.569,4.107-7.751,9.436-9.227,15.234h-22.698v15.453H327.438z"/>
	</g>
</g>
<g>
	<g>
		<rect x="224.209" y="384.773" width="63.871" height="15.453"/>
	</g>
</g>
<g>
	<g>
		<rect x="288.08" y="329.143" width="48.419" height="15.453"/>
	</g>
</g>
<g>
	<g>
		<path d="M215.338,75.096c-25.242,34.951-39.144,82.007-39.144,132.485h15.453c0-46.358,13.201-91.659,36.218-123.529
			L215.338,75.096z"/>
	</g>
</g>
<g>
	<g>
		<rect x="175.79" y="224.064" width="15.453" height="23.694"/>
	</g>
</g>
<g>
</g>
<g>
</g>
<g>
</g>
<g>
</g>
<g>
</g>
<g>
</g>
<g>
</g>
<g>
</g>
<g>
</g>
<g>
</g>
<g>
</g>
<g>
</g>
<g>
</g>
<g>
</g>
<g>
</g>
</svg>
