<?xml version="1.0" encoding="iso-8859-1"?>
<!-- Generator: Adobe Illustrator 19.0.0, SVG Export Plug-In . SVG Version: 6.00 Build 0)  -->
<svg version="1.1" id="Layer_1" xmlns="http://www.w3.org/2000/svg" xmlns:xlink="http://www.w3.org/1999/xlink" x="0px" y="0px"
	 viewBox="0 0 512 512" style="enable-background:new 0 0 512 512;" xml:space="preserve">
<g>
	<g>
		<path d="M489.855,217.187c-13.01-17.442-31.164-30.925-51.512-38.351c-8.164-45.246-47.854-78.775-94.288-78.775
			c-9.796,0-19.5,1.521-28.924,4.528c-15.52-20.077-35.374-36.786-57.73-48.533c-24.944-13.107-53.11-20.035-81.45-20.035
			C78.931,36.022,0,114.953,0,211.973c0,44.617,16.743,87.15,47.146,119.765c29.142,31.261,68.231,50.707,110.519,55.084
			c24.639,54.32,78.433,89.157,138.361,89.157c29.526,0,58.144-8.501,82.765-24.584c22.93-14.978,41.34-35.768,53.427-60.279
			C479.378,377.004,512,333.484,512,284.018C512,259.721,504.342,236.61,489.855,217.187z M424.672,376.94l-3.564,0.94l-1.55,3.344
			c-10.796,23.275-27.859,42.996-49.346,57.032c-22.063,14.413-47.716,22.031-74.185,22.031
			c-55.171,0-104.544-32.926-125.783-83.882l-1.85-4.437l-4.794-0.366c-40.161-3.07-77.442-21.028-104.976-50.564
			c-27.687-29.7-42.933-68.434-42.933-109.066c0-36.133,12.026-69.508,32.278-96.343H79.95v-15.69H61.477
			c29.11-29.738,69.67-48.226,114.473-48.226c26.177,0,51.126,6.135,74.152,18.234c21.949,11.533,41.256,28.321,55.829,48.546
			l3.545,4.919l5.654-2.19c9.367-3.63,19.099-5.47,28.924-5.47c40.221,0,74.389,30.082,79.479,69.975l0.636,4.985l4.794,1.506
			c19.112,6.005,36.27,18.205,48.313,34.35c12.452,16.692,19.033,36.559,19.033,57.449
			C496.31,327.595,466.851,365.807,424.672,376.94z"/>
	</g>
</g>
<g>
	<g>
		<path d="M296.025,268.167c-44.052,0-79.89,35.838-79.89,79.89c0,44.051,35.838,79.89,79.89,79.89s79.89-35.838,79.89-79.89
			C375.915,304.005,340.076,268.167,296.025,268.167z M296.025,412.258c-35.4,0-64.2-28.8-64.2-64.2c0-35.4,28.8-64.2,64.2-64.2
			s64.2,28.8,64.2,64.2C360.225,383.458,331.425,412.258,296.025,412.258z"/>
	</g>
</g>
<g>
	<g>
		<path d="M322,367.36c-6.147,8.184-16.113,12.877-25.527,12.877v15.69c14.644,0,29.045-6.978,38.184-19.144L322,367.36z"/>
	</g>
</g>
<g>
	<g>
		<path d="M296.474,300.187v15.69c17.782,0,31.955,14.436,31.955,32.18c0,2.172-0.44,4.339-0.868,6.444l15.376,3.121
			c0.635-3.131,1.182-6.349,1.182-9.567C344.119,321.661,322.624,300.187,296.474,300.187z"/>
	</g>
</g>
<g>
	<g>
		<path d="M343.544,132.082v15.69c17.782,0,32.691,14.927,32.691,31.663h15.69C391.926,153.284,370.74,132.082,343.544,132.082z"/>
	</g>
</g>
<g>
	<g>
		<rect x="280.779" y="196.167" width="15.69" height="15.69"/>
	</g>
</g>
<g>
	<g>
		<rect x="303.792" y="220.226" width="24.058" height="15.69"/>
	</g>
</g>
<g>
	<g>
		<path d="M464.291,284.035c0,21.966-18.238,40.167-40.204,40.167v15.69c30.334,0,55.894-25.523,55.894-55.857H464.291z"/>
	</g>
</g>
<g>
	<g>
		<rect x="424.082" y="236.962" width="15.69" height="15.69"/>
	</g>
</g>
<g>
	<g>
		<rect x="392.702" y="259.974" width="31.38" height="15.69"/>
	</g>
</g>
<g>
	<g>
		<rect x="392.702" y="315.412" width="15.69" height="15.69"/>
	</g>
</g>
<g>
	<g>
		<path d="M63.72,220.229h-15.69c0,61.714,49.703,111.659,111.417,111.659v-15.69C107.147,316.198,63.72,272.529,63.72,220.229z"/>
	</g>
</g>
<g>
	<g>
		<rect x="96.682" y="172.109" width="15.69" height="15.69"/>
	</g>
</g>
<g>
	<g>
		<rect x="112.372" y="196.167" width="24.058" height="15.69"/>
	</g>
</g>
<g>
	<g>
		<rect x="152.121" y="268.342" width="48.116" height="15.69"/>
	</g>
</g>
<g>
	<g>
		<rect x="175.133" y="348.884" width="16.736" height="15.69"/>
	</g>
</g>
<g>
	<g>
		<rect x="208.605" y="227.548" width="23.012" height="15.69"/>
	</g>
</g>
<g>
	<g>
		<rect x="167.811" y="156.419" width="48.116" height="15.69"/>
	</g>
</g>
<g>
	<g>
		<rect x="215.927" y="180.477" width="24.058" height="15.69"/>
	</g>
</g>
<g>
	<g>
		<rect x="47.52" y="180.477" width="15.69" height="23.012"/>
	</g>
</g>
<g>
	<g>
		<rect x="128.062" y="108.303" width="15.69" height="15.69"/>
	</g>
</g>
<g>
	<g>
		<rect x="167.811" y="75.877" width="40.794" height="15.69"/>
	</g>
</g>
<g>
	<g>
		<rect x="224.295" y="99.935" width="15.69" height="15.69"/>
	</g>
</g>
<g>
	<g>
		<rect x="71.578" y="123.993" width="25.104" height="15.69"/>
	</g>
</g>
<g>
</g>
<g>
</g>
<g>
</g>
<g>
</g>
<g>
</g>
<g>
</g>
<g>
</g>
<g>
</g>
<g>
</g>
<g>
</g>
<g>
</g>
<g>
</g>
<g>
</g>
<g>
</g>
<g>
</g>
</svg>
