<?xml version="1.0" encoding="iso-8859-1"?>
<!-- Generator: Adobe Illustrator 19.0.0, SVG Export Plug-In . SVG Version: 6.00 Build 0)  -->
<svg version="1.1" id="Layer_1" xmlns="http://www.w3.org/2000/svg" xmlns:xlink="http://www.w3.org/1999/xlink" x="0px" y="0px"
	 viewBox="0 0 512 512" style="enable-background:new 0 0 512 512;" xml:space="preserve">
<g>
	<g>
		<path d="M338.993,357.829l-4.789,28.728c-0.51,3.061-3.132,5.282-6.234,5.282s-5.725-2.221-6.234-5.282l-4.788-28.726
			c-1.35-8.096-8.285-13.972-16.492-13.972H68.077v15.68h24.076v23.883h8.922L117.131,512h277.736l16.04-128.578h9.484v-23.883
			h23.531v-15.68h-88.438C347.277,343.859,340.341,349.735,338.993,357.829z M384.023,472.277h-36.805v15.68h34.849l-1.043,8.363
			H130.977l-1.044-8.363h42.713v-15.68h-44.671l-11.095-88.855h14.999v-15.68h-24.043v-8.203h192.619c0.51,0,0.941,0.366,1.024,0.87
			l1.222,7.333H147.557v15.68h157.759l0.952,5.715c1.775,10.652,10.903,18.383,21.701,18.383s19.925-7.731,21.701-18.383
			l0.952-5.715h44.484L384.023,472.277z M404.712,367.742h-51.475l1.222-7.334c0.084-0.503,0.515-0.869,1.025-0.869h49.228V367.742z
			"/>
	</g>
</g>
<g>
	<g>
		<path d="M372.307,232.612v-24.564c0-14.989-5.925-29.181-16.685-39.963c-8.697-8.715-19.623-14.263-31.401-16.075v-32.683
			c0-16.325-10.272-30.746-24.516-36.915c-1.245-28.669-12.38-55.965-31.677-77.374C265.142,1.837,261.015,0,256.704,0h-1.409
			c-4.309,0-8.435,1.836-11.322,5.038c-19.31,21.42-30.446,48.737-31.679,77.424c-4.506,1.967-8.66,4.794-12.248,8.414
			c-7.564,7.63-11.681,17.722-11.589,28.418l0.281,33.009c-12.029,1.689-23.131,7.231-31.861,16.018
			c-10.643,10.714-16.446,24.923-16.346,39.977l0.056,24.184c-27.301,3.895-48.363,27.418-48.363,55.78v47.444h15.68v-47.443
			c0-22.429,18.248-40.677,40.677-40.677h95.424v-15.68h-87.738l-0.055-23.777c-0.073-10.88,4.115-21.227,11.79-28.955
			c7.647-7.699,17.817-12.138,28.638-12.138h7.907l-0.411-48.075c-0.056-6.482,2.446-12.408,7.044-17.044
			c4.481-4.52,10.389-7.01,16.636-7.01h15.913v-15.68h-15.512c1.869-23.548,11.371-45.843,27.273-63.546h1.019
			c15.901,17.704,25.404,40,27.274,63.546h-16.011v15.68h16.683c13.055,0,24.086,11.183,24.086,24.421v32.027h-88.855v15.68h96
			c22.192,0,40.941,18.782,40.941,41.013v23.856h-40.651v15.68h47.444c22.429,0,40.677,18.248,40.677,40.677v47.444h15.68v-47.444
			C419.776,260.21,399.173,236.886,372.307,232.612z"/>
	</g>
</g>
<g>
	<g>
		<rect x="188.33" y="472.278" width="143.213" height="15.68"/>
	</g>
</g>
<g>
	<g>
		<rect x="131.881" y="319.657" width="96.172" height="15.68"/>
	</g>
</g>
<g>
	<g>
		<rect x="243.733" y="319.657" width="15.68" height="15.68"/>
	</g>
</g>
<g>
</g>
<g>
</g>
<g>
</g>
<g>
</g>
<g>
</g>
<g>
</g>
<g>
</g>
<g>
</g>
<g>
</g>
<g>
</g>
<g>
</g>
<g>
</g>
<g>
</g>
<g>
</g>
<g>
</g>
</svg>
