<?xml version="1.0" encoding="iso-8859-1"?>
<!-- Generator: Adobe Illustrator 19.0.0, SVG Export Plug-In . SVG Version: 6.00 Build 0)  -->
<svg version="1.1" id="Layer_1" xmlns="http://www.w3.org/2000/svg" xmlns:xlink="http://www.w3.org/1999/xlink" x="0px" y="0px"
	 viewBox="0 0 512 512" style="enable-background:new 0 0 512 512;" xml:space="preserve">
<g>
	<g>
		<path d="M368.082,15.638V0H143.918v15.638c8.932,0,16.199,7.267,16.199,16.199v143.836h-8.292v15.638h8.292v48.678
			c0,15.078,10.537,27.74,24.633,31.015c3.317,18.643,19.645,32.845,39.227,32.845h64.047c19.583,0,35.911-14.201,39.227-32.845
			c14.096-3.275,24.632-15.937,24.632-31.015V191.31h8.446v-15.638h-8.446V31.837C351.883,22.905,359.149,15.638,368.082,15.638z
			 M336.245,239.988c0,8.932-7.266,16.199-16.198,16.199h-7.819v7.819c0,13.346-10.858,24.204-24.204,24.204h-64.047
			c-13.346,0-24.204-10.858-24.204-24.204v-7.819h-7.819c-8.932,0-16.199-7.267-16.199-16.199v-23.657h160.49V239.988z
			 M336.245,175.673h-16.574v15.638h16.574v9.383h-160.49v-9.383h15.686v-15.638h-15.686v-8.34h160.49V175.673z M336.245,151.695
			h-160.49v-32.318h160.49V151.695z M337.368,23.464h-17.697v15.638h16.574v64.636h-160.49V39.102h128.278V23.464h-129.4
			c-0.758-2.777-1.878-5.406-3.314-7.826h169.363C339.246,18.059,338.125,20.687,337.368,23.464z"/>
	</g>
</g>
<g>
	<g>
		<rect x="216.459" y="255.95" width="79.232" height="15.638"/>
	</g>
</g>
<g>
	<g>
		<path d="M216.461,312.243v15.638h8.802c2.944,10.963,11.556,19.504,22.474,22.414v18.244h15.638v-18.024
			c11.336-2.673,20.339-11.376,23.363-22.634h8.955v-15.638H216.461z M256,335.74c-5.962,0-11.17-3.047-13.981-7.859h27.963
			C267.17,332.692,261.962,335.74,256,335.74z"/>
	</g>
</g>
<g>
	<g>
		<rect x="247.735" y="375.84" width="15.638" height="72.977"/>
	</g>
</g>
<g>
	<g>
		<path d="M296.03,472.345h-16.011c-8.932,0-16.199-7.267-16.199-16.199h-15.638c0,8.931-7.266,16.199-16.199,16.199h-16.012
			c-17.554,0-31.837,14.281-31.837,31.837V512h143.732v-7.819C327.866,486.626,313.584,472.345,296.03,472.345z M201.788,496.362
			c2.763-4.993,8.085-8.38,14.183-8.38h16.012c9.575,0,18.176-4.249,24.018-10.961c5.841,6.712,14.443,10.961,24.018,10.961h16.011
			c6.099,0,11.421,3.387,14.184,8.38H201.788z"/>
	</g>
</g>
<g>
	<g>
		<rect x="199.779" y="175.676" width="16.68" height="15.638"/>
	</g>
</g>
<g>
	<g>
		<rect x="224.799" y="175.676" width="15.638" height="15.638"/>
	</g>
</g>
<g>
	<g>
		<rect x="247.735" y="175.676" width="16.68" height="15.638"/>
	</g>
</g>
<g>
	<g>
		<rect x="271.713" y="175.676" width="15.638" height="15.638"/>
	</g>
</g>
<g>
	<g>
		<rect x="295.691" y="175.676" width="15.638" height="15.638"/>
	</g>
</g>
<g>
</g>
<g>
</g>
<g>
</g>
<g>
</g>
<g>
</g>
<g>
</g>
<g>
</g>
<g>
</g>
<g>
</g>
<g>
</g>
<g>
</g>
<g>
</g>
<g>
</g>
<g>
</g>
<g>
</g>
</svg>
