<?xml version="1.0" encoding="iso-8859-1"?>
<!-- Generator: Adobe Illustrator 19.0.0, SVG Export Plug-In . SVG Version: 6.00 Build 0)  -->
<svg version="1.1" id="Layer_1" xmlns="http://www.w3.org/2000/svg" xmlns:xlink="http://www.w3.org/1999/xlink" x="0px" y="0px"
	 viewBox="0 0 512.001 512.001" style="enable-background:new 0 0 512.001 512.001;" xml:space="preserve">
<g>
	<g>
		<path d="M423.936,247.994c0-20.53-15.61-37.479-35.584-39.612c2.279-5.013,3.56-10.573,3.56-16.429
			c0-21.969-17.873-39.842-39.842-39.842c-13.11,0-24.759,6.367-32.024,16.17c-7.265-9.802-18.914-16.17-32.024-16.17
			c-9.099,0-17.49,3.073-24.205,8.226v-32.838c6.715,5.153,15.105,8.226,24.205,8.226c18.448,0,79.292-27.261,91.303-32.726
			l15.639-7.117l-15.639-7.117c-0.177-0.08-17.975-8.167-37.708-16.144c-41.02-16.581-50.485-16.581-53.594-16.581
			c-10.336,0-19.764,3.958-26.852,10.436C251.59,28.332,217.018,0,175.943,0v15.637c39.833,0,72.24,32.406,72.24,72.24v72.461
			c-6.715-5.153-15.105-8.226-24.205-8.226c-13.11,0-24.759,6.367-32.024,16.17c-7.265-9.802-18.914-16.17-32.024-16.17
			c-21.969,0-39.842,17.873-39.842,39.842c0,5.857,1.28,11.416,3.56,16.429c-19.974,2.133-35.584,19.081-35.584,39.612
			c0,20.53,15.61,37.479,35.584,39.612c-2.279,5.013-3.56,10.573-3.56,16.429c0,20.529,15.61,37.479,35.584,39.612
			c-2.279,5.013-3.56,10.574-3.56,16.429c0,20.53,15.61,37.479,35.583,39.612c-2.279,5.013-3.56,10.573-3.56,16.429
			c0,20.529,15.61,37.479,35.584,39.612c-2.279,5.013-3.56,10.574-3.56,16.429c0,21.969,17.873,39.842,39.842,39.842
			s39.842-17.873,39.842-39.842c0-5.857-1.28-11.416-3.56-16.429c19.974-2.133,35.584-19.081,35.584-39.612
			c0-5.857-1.28-11.416-3.56-16.429c19.973-2.133,35.583-19.081,35.583-39.612c0-5.857-1.28-11.416-3.56-16.429
			c19.974-2.133,35.584-19.081,35.584-39.612c0-5.857-1.28-11.416-3.56-16.429C408.327,285.473,423.936,268.524,423.936,247.994z
			 M288.025,71.678c9.538,0,42.499,12.887,68.74,24.205c-26.241,11.318-59.204,24.205-68.74,24.205
			c-10.575,0-19.581-6.819-22.869-16.289h23.162V88.163h-23.228C268.32,78.592,277.377,71.678,288.025,71.678z M352.071,167.749
			c13.347,0,24.205,10.858,24.205,24.205c0,13.347-10.858,24.205-24.205,24.205c-13.347,0-24.205-10.858-24.205-24.205
			C327.866,178.607,338.724,167.749,352.071,167.749z M320.047,223.789c13.347,0,24.205,10.858,24.205,24.205
			c0,13.347-10.858,24.205-24.205,24.205s-24.205-10.858-24.205-24.205C295.842,234.647,306.701,223.789,320.047,223.789z
			 M256.001,335.871c13.347,0,24.205,10.858,24.205,24.205c0,13.347-10.858,24.205-24.205,24.205
			c-13.347,0-24.205-10.858-24.205-24.205S242.654,335.871,256.001,335.871z M223.977,328.24c-13.347,0-24.205-10.858-24.205-24.205
			c0-13.347,10.858-24.205,24.205-24.205c13.347,0,24.205,10.858,24.205,24.205C248.183,317.382,237.324,328.24,223.977,328.24z
			 M263.82,304.035c0-13.347,10.858-24.205,24.205-24.205s24.205,10.858,24.205,24.205s-10.859,24.205-24.205,24.205
			C274.678,328.24,263.82,317.382,263.82,304.035z M288.025,167.749c13.347,0,24.205,10.858,24.205,24.205
			c0,13.347-10.858,24.205-24.205,24.205s-24.205-10.858-24.205-24.205C263.82,178.607,274.678,167.749,288.025,167.749z
			 M256.001,223.789c13.347,0,24.205,10.858,24.205,24.205c0,13.347-10.858,24.205-24.205,24.205
			c-13.347,0-24.205-10.858-24.205-24.205C231.796,234.647,242.654,223.789,256.001,223.789z M223.977,167.749
			c13.347,0,24.205,10.858,24.205,24.205c0,13.347-10.858,24.205-24.205,24.205c-13.347,0-24.205-10.858-24.205-24.205
			C199.772,178.607,210.631,167.749,223.977,167.749z M191.954,223.789c13.347,0,24.205,10.858,24.205,24.205
			c0,13.347-10.858,24.205-24.205,24.205c-13.347,0-24.205-10.858-24.205-24.205C167.749,234.647,178.608,223.789,191.954,223.789z
			 M159.931,167.749c13.347,0,24.205,10.858,24.205,24.205c0,13.347-10.858,24.205-24.205,24.205
			c-13.347,0-24.205-10.858-24.205-24.205C135.726,178.607,146.585,167.749,159.931,167.749z M127.908,272.199
			c-13.347,0-24.205-10.858-24.205-24.205c0-13.347,10.858-24.205,24.205-24.205c13.347,0,24.205,10.858,24.205,24.205
			C152.113,261.341,141.254,272.199,127.908,272.199z M159.931,328.24c-13.347,0-24.205-10.858-24.205-24.205
			s10.858-24.205,24.205-24.205c13.347,0,24.205,10.858,24.205,24.205C184.136,317.382,173.278,328.24,159.931,328.24z
			 M191.955,384.281c-13.347,0-24.205-10.858-24.205-24.205c0-13.347,10.858-24.205,24.205-24.205
			c13.347,0,24.205,10.858,24.205,24.205S205.302,384.281,191.955,384.281z M223.977,440.322c-13.347,0-24.205-10.858-24.205-24.205
			c0-13.347,10.858-24.205,24.205-24.205c13.347,0,24.205,10.858,24.205,24.205C248.183,429.464,237.324,440.322,223.977,440.322z
			 M256.001,496.363c-13.347,0-24.205-10.858-24.205-24.205c0-13.347,10.858-24.205,24.205-24.205
			c13.347,0,24.205,10.858,24.205,24.205C280.206,485.505,269.348,496.363,256.001,496.363z M288.025,440.322
			c-13.347,0-24.205-10.858-24.205-24.205c0-13.347,10.858-24.205,24.205-24.205s24.205,10.858,24.205,24.205
			C312.229,429.464,301.37,440.322,288.025,440.322z M320.047,384.281c-13.347,0-24.205-10.858-24.205-24.205
			s10.858-24.205,24.205-24.205s24.205,10.858,24.205,24.205C344.252,373.423,333.394,384.281,320.047,384.281z M352.071,328.24
			c-13.347,0-24.205-10.858-24.205-24.205s10.858-24.205,24.205-24.205c13.347,0,24.205,10.858,24.205,24.205
			S365.418,328.24,352.071,328.24z M384.094,272.199c-13.347,0-24.205-10.858-24.205-24.205c0-13.347,10.858-24.205,24.205-24.205
			s24.205,10.858,24.205,24.205C408.299,261.341,397.441,272.199,384.094,272.199z"/>
	</g>
</g>
<g>
</g>
<g>
</g>
<g>
</g>
<g>
</g>
<g>
</g>
<g>
</g>
<g>
</g>
<g>
</g>
<g>
</g>
<g>
</g>
<g>
</g>
<g>
</g>
<g>
</g>
<g>
</g>
<g>
</g>
</svg>
