<?xml version="1.0" encoding="iso-8859-1"?>
<!-- Generator: Adobe Illustrator 19.0.0, SVG Export Plug-In . SVG Version: 6.00 Build 0)  -->
<svg version="1.1" id="Layer_1" xmlns="http://www.w3.org/2000/svg" xmlns:xlink="http://www.w3.org/1999/xlink" x="0px" y="0px"
	 viewBox="0 0 512 512" style="enable-background:new 0 0 512 512;" xml:space="preserve">
<g>
	<g>
		<path d="M451.212,233.858l-23.558,18.847c-6.806,5.446-16.314,5.446-23.12,0l-7.092-5.674c-12.583-10.067-30.159-10.067-42.743,0
			l-7.092,5.674c-6.806,5.446-16.314,5.445-23.12,0l-7.093-5.674c-12.583-10.067-30.161-10.066-42.741,0l-7.094,5.674
			c-6.805,5.445-16.314,5.445-23.12,0l-7.094-5.675c-12.584-10.066-30.161-10.066-42.743,0.001l-7.089,5.672
			c-6.807,5.446-16.315,5.446-23.121,0.001l-7.094-5.675c-12.584-10.066-30.16-10.065-42.743,0.001l-7.091,5.673
			c-6.807,5.446-16.315,5.445-23.122,0l-23.558-18.847l-9.811,12.264l23.558,18.847c12.583,10.066,30.16,10.066,42.743,0
			l7.091-5.674c6.807-5.445,16.315-5.446,23.121-0.001l7.094,5.675c12.584,10.066,30.161,10.066,42.743-0.002l7.089-5.672
			c6.806-5.445,16.314-5.446,23.121,0l7.094,5.675c12.583,10.065,30.159,10.066,42.741,0l7.094-5.674
			c6.805-5.446,16.314-5.446,23.119,0l7.094,5.674c6.292,5.033,13.831,7.549,21.371,7.549c7.54,0,15.079-2.517,21.371-7.55
			l7.092-5.674c6.807-5.446,16.313-5.446,23.12,0l7.092,5.674c12.585,10.066,30.161,10.067,42.743,0l23.558-18.847L451.212,233.858z
			"/>
	</g>
</g>
<g>
	<g>
		<rect x="128.262" y="271.706" width="15.706" height="15.706"/>
	</g>
</g>
<g>
	<g>
		<polygon points="176.425,231.918 176.425,224.589 159.673,224.589 159.673,240.295 176.425,240.295 176.425,247.624 
			192.131,247.624 192.131,231.918 		"/>
	</g>
</g>
<g>
	<g>
		<rect x="328.245" y="224.589" width="15.706" height="15.706"/>
	</g>
</g>
<g>
	<g>
		<rect x="383.738" y="271.706" width="16.753" height="15.706"/>
	</g>
</g>
<g>
	<g>
		<rect x="455.984" y="271.706" width="15.706" height="15.706"/>
	</g>
</g>
<g>
	<g>
		<rect x="280.082" y="280.082" width="15.706" height="15.706"/>
	</g>
</g>
<g>
	<g>
		<rect x="295.787" y="264.376" width="16.753" height="15.706"/>
	</g>
</g>
<g>
	<g>
		<rect x="119.885" y="176.425" width="32.458" height="15.706"/>
	</g>
</g>
<g>
	<g>
		<rect x="343.951" y="319.869" width="39.787" height="15.706"/>
	</g>
</g>
<g>
	<g>
		<path d="M495.771,216.669v-8.698c0-30.674-24.97-55.628-55.661-55.628H71.89c-30.692,0-55.661,24.954-55.661,55.628v8.698
			C6.205,226.775,0,240.676,0,256s6.205,29.225,16.229,39.331v8.698c0,30.674,24.97,55.628,55.661,55.628h368.219
			c30.692,0,55.661-24.954,55.661-55.628v-8.698C505.795,285.225,512,271.324,512,256S505.795,226.775,495.771,216.669z
			 M71.89,168.049h32.289v8.376h15.706v-8.376h256.523v8.376h15.706v-8.376h47.995c21.194,0,38.579,16.576,39.87,37.433
			c-7.241-3.434-15.329-5.363-23.861-5.363H55.881c-8.532,0-16.621,1.929-23.861,5.363C33.311,184.625,50.696,168.049,71.89,168.049
			z M424.251,223.981c0,4.498-3.658,8.156-8.156,8.156s-8.156-3.659-8.156-8.156s3.658-8.156,8.156-8.156
			S424.251,219.484,424.251,223.981z M264.156,223.981c0,4.498-3.658,8.156-8.156,8.156s-8.157-3.659-8.157-8.156
			s3.659-8.156,8.157-8.156S264.156,219.484,264.156,223.981z M104.062,223.981c0,4.498-3.659,8.156-8.157,8.156
			c-4.497,0-8.156-3.659-8.156-8.156s3.659-8.156,8.156-8.156C100.403,215.824,104.062,219.484,104.062,223.981z M440.109,343.951
			H192.131v-15.706h-15.706v-8.376h-16.753v15.706h16.753v8.376H71.89c-21.194,0-38.579-16.576-39.87-37.433
			c7.241,3.434,15.329,5.363,23.861,5.363h400.237c8.532,0,16.621-1.929,23.861-5.363
			C478.689,327.375,461.304,343.951,440.109,343.951z M207.82,288.019c0-4.498,3.659-8.156,8.157-8.156
			c4.497,0,8.156,3.659,8.156,8.156s-3.659,8.156-8.156,8.156C211.479,296.176,207.82,292.516,207.82,288.019z M495.41,264.376
			c-3.865,18.145-20.01,31.799-39.291,31.799h-72.38v-7.718h-15.706v7.718H238.401c0.929-2.546,1.437-5.293,1.437-8.156
			c0-13.158-10.705-23.862-23.862-23.862c-13.158,0-23.863,10.705-23.863,23.862c0,2.864,0.508,5.611,1.437,8.156H55.881
			c-1.888,0-3.743-0.135-5.563-0.388h14.074v-15.706H47.64v15.235c-15.504-3.247-27.752-15.454-31.05-30.941h15.344v-15.705H16.387
			c2.486-13.422,11.659-24.526,23.924-29.704v12.952h15.706v-16.094H73.48c-0.929,2.546-1.437,5.293-1.437,8.156
			c0,13.158,10.705,23.862,23.862,23.862c13.158,0,23.863-10.705,23.863-23.862c0-2.864-0.508-5.611-1.437-8.156h115.244
			c-0.929,2.546-1.437,5.293-1.437,8.156c0,13.158,10.705,23.862,23.863,23.862c13.157,0,23.862-10.705,23.862-23.862
			c0-2.864-0.508-5.611-1.437-8.156h115.245c-0.929,2.546-1.437,5.293-1.437,8.156c0,13.158,10.705,23.862,23.862,23.862
			s23.862-10.705,23.862-23.862c0-2.864-0.508-5.611-1.437-8.156h17.599c19.65,0,36.038,14.183,39.494,32.846h-15.551v15.706H495.41
			z"/>
	</g>
</g>
<g>
	<g>
		<rect x="392.115" y="176.425" width="15.706" height="15.706"/>
	</g>
</g>
<g>
</g>
<g>
</g>
<g>
</g>
<g>
</g>
<g>
</g>
<g>
</g>
<g>
</g>
<g>
</g>
<g>
</g>
<g>
</g>
<g>
</g>
<g>
</g>
<g>
</g>
<g>
</g>
<g>
</g>
</svg>
