<?xml version="1.0" encoding="iso-8859-1"?>
<!-- Generator: Adobe Illustrator 19.0.0, SVG Export Plug-In . SVG Version: 6.00 Build 0)  -->
<svg version="1.1" id="Layer_1" xmlns="http://www.w3.org/2000/svg" xmlns:xlink="http://www.w3.org/1999/xlink" x="0px" y="0px"
	 viewBox="0 0 512 512" style="enable-background:new 0 0 512 512;" xml:space="preserve">
<g>
	<g>
		<path d="M87.905,135.746V512h159.906V135.746H87.905z M103.58,423.204h16.131V407.53H103.58v-48.068h24.49v73.146h-24.49V423.204z
			 M232.138,376.182h-31.966v15.674h31.966v8.36h-16.292v15.674h16.292v16.719h-57.045v-73.146h57.045V376.182z M232.138,343.788
			h-72.719v104.495h72.719v48.043H103.58v-48.043h40.165V343.788H103.58V151.42h128.558V343.788z"/>
	</g>
</g>
<g>
	<g>
		<polygon points="104.036,95.09 104.036,127.484 119.71,127.484 119.71,110.765 215.846,110.765 215.846,127.484 231.52,127.484 
			231.52,95.09 		"/>
	</g>
</g>
<g>
	<g>
		<path d="M200.172,71.057h-9.378L182.885,0h-30.051l-7.921,71.057h-8.483v15.674h63.742V71.057H200.172z M160.684,71.057
			l6.174-55.382h2.001l6.163,55.382H160.684z"/>
	</g>
</g>
<g>
	<g>
		<rect x="111.35" y="463.957" width="48.068" height="15.674"/>
	</g>
</g>
<g>
	<g>
		<rect x="167.777" y="463.957" width="15.674" height="15.674"/>
	</g>
</g>
<g>
	<g>
		<rect x="152.103" y="168.237" width="63.742" height="15.674"/>
	</g>
</g>
<g>
	<g>
		<rect x="127.024" y="168.237" width="16.719" height="15.674"/>
	</g>
</g>
<g>
	<g>
		<path d="M264.189,135.746V512h159.905V135.746H264.189z M279.864,415.89h16.443v-15.674h-16.443v-8.36h32.118v-15.674h-32.118
			v-16.719h57.196v73.146h-57.196V415.89z M408.421,343.788h-40.013v104.495h40.013v48.043H279.864v-48.043h72.871V343.788h-72.871
			V151.42h128.557V343.788z M408.42,423.204v9.405h-24.339v-73.146h24.339v48.068h-17.024v15.674H408.42z"/>
	</g>
</g>
<g>
	<g>
		<polygon points="280.633,95.09 280.633,127.484 296.307,127.484 296.307,110.765 392.442,110.765 392.442,127.484 
			408.116,127.484 408.116,95.09 		"/>
	</g>
</g>
<g>
	<g>
		<path d="M375.723,71.057h-8.634L359.168,0h-30.051l-7.908,71.057h-9.227v15.674h63.742V71.057H375.723z M336.979,71.057
			l6.162-55.382h2.001l6.175,55.382H336.979z"/>
	</g>
</g>
<g>
	<g>
		<rect x="296.306" y="463.957" width="87.776" height="15.674"/>
	</g>
</g>
<g>
	<g>
		<polygon points="287.947,168.237 287.947,240.338 303.621,240.338 303.621,183.911 311.981,183.911 311.981,168.237 		"/>
	</g>
</g>
<g>
	<g>
		<rect x="287.946" y="256.013" width="15.674" height="15.674"/>
	</g>
</g>
<g>
</g>
<g>
</g>
<g>
</g>
<g>
</g>
<g>
</g>
<g>
</g>
<g>
</g>
<g>
</g>
<g>
</g>
<g>
</g>
<g>
</g>
<g>
</g>
<g>
</g>
<g>
</g>
<g>
</g>
</svg>
