<?xml version="1.0" encoding="iso-8859-1"?>
<!-- Generator: Adobe Illustrator 19.0.0, SVG Export Plug-In . SVG Version: 6.00 Build 0)  -->
<svg version="1.1" id="Layer_1" xmlns="http://www.w3.org/2000/svg" xmlns:xlink="http://www.w3.org/1999/xlink" x="0px" y="0px"
	 viewBox="0 0 511.999 511.999" style="enable-background:new 0 0 511.999 511.999;" xml:space="preserve">
<g>
	<g>
		<rect x="79.077" y="474.028" width="432.922" height="15.686"/>
	</g>
</g>
<g>
	<g>
		<path d="M438.802,265.824V40.062h-56.468V22.285h-15.686v48.102h15.686v-14.64h40.782v196.537
			c-33.44-26.111-75.017-42.343-120.256-44.272v-16.323h-15.686v16.226c-44.608,1.416-86.971,17.144-121.302,44.126V55.748h32.417
			v14.64h15.686V22.285H198.29v17.777h-48.102v225.661c-8.035,7.738-15.507,16.155-22.292,25.232l-23.528-23.565l-50.824,50.847
			l40.247,40.773c-5.599,19.56-8.436,38.909-8.436,57.581v48.027h418.282v-48.027C503.635,357.384,478.732,303.857,438.802,265.824z
			 M293.766,223.49c28.663,0,55.892,6.214,80.405,17.347h-160.01C238.786,229.566,265.864,223.49,293.766,223.49z M487.95,417.56
			H126.136v15.686H487.95v15.686H101.039V416.59c0-18.543,3.057-37.885,9.085-57.488l1.377-4.479l-35.85-36.317l28.709-28.722
			l25.69,25.731l5.333-7.85c13.832-20.362,31.197-37.528,50.955-50.943h215.935c51.655,34.738,85.677,93.526,85.677,160.068V417.56z
			"/>
	</g>
</g>
<g>
	<g>
		
			<rect x="31.285" y="273.479" transform="matrix(0.7071 -0.7071 0.7071 0.7071 -179.1674 130.0956)" width="72.341" height="15.685"/>
	</g>
</g>
<g>
	<g>
		
			<rect x="22.271" y="256.439" transform="matrix(0.7071 -0.7071 0.7071 0.7071 -172.1127 113.0472)" width="56.265" height="15.685"/>
	</g>
</g>
<g>
	<g>
		<rect x="318.544" y="385.143" width="73.199" height="15.686"/>
	</g>
</g>
<g>
	<g>
		<rect x="400.109" y="385.143" width="15.686" height="15.686"/>
	</g>
</g>
<g>
	<g>
		<rect x="424.16" y="385.143" width="15.686" height="15.686"/>
	</g>
</g>
<g>
	<g>
		<rect x="448.211" y="385.143" width="15.686" height="15.686"/>
	</g>
</g>
<g>
	<g>
		<polygon points="270.443,159.272 270.443,174.958 287.175,174.958 287.175,183.324 302.86,183.324 302.86,174.958 
			318.546,174.958 318.546,159.272 		"/>
	</g>
</g>
<g>
	<g>
		<path d="M222.341,23.331v48.102h136.987V23.331H222.341z M343.643,55.748H238.026V39.016h105.616V55.748z"/>
	</g>
</g>
<g>
	<g>
		<path d="M17.424,201.474c2.94-11.761,2.94-24.195,0-35.957c-2.318-9.271-2.318-19.074,0-28.347l4.019-16.076l-15.218-3.803
			l-4.019,16.075c-2.941,11.762-2.941,24.195,0,35.957c2.318,9.272,2.318,19.074,0,28.346c-2.941,11.761-2.941,24.195,0,35.956
			L6.224,249.7l15.218-3.803l-4.019-16.077C15.105,220.547,15.105,210.745,17.424,201.474z"/>
	</g>
</g>
<g>
	<g>
		<path d="M49.576,161.284c2.939-11.76,2.939-24.193,0-35.955c-2.318-9.271-2.318-19.074,0-28.346l4.019-16.076l-15.218-3.803
			l-4.019,16.075c-2.941,11.761-2.941,24.194,0,35.954c2.317,9.273,2.317,19.076,0,28.347c-2.941,11.761-2.941,24.195,0,35.956
			l4.019,16.076l15.218-3.803l-4.019-16.077C47.257,180.359,47.257,170.558,49.576,161.284z"/>
	</g>
</g>
<g>
</g>
<g>
</g>
<g>
</g>
<g>
</g>
<g>
</g>
<g>
</g>
<g>
</g>
<g>
</g>
<g>
</g>
<g>
</g>
<g>
</g>
<g>
</g>
<g>
</g>
<g>
</g>
<g>
</g>
</svg>
