<?xml version="1.0" encoding="iso-8859-1"?>
<!-- Generator: Adobe Illustrator 19.0.0, SVG Export Plug-In . SVG Version: 6.00 Build 0)  -->
<svg version="1.1" id="Layer_1" xmlns="http://www.w3.org/2000/svg" xmlns:xlink="http://www.w3.org/1999/xlink" x="0px" y="0px"
	 viewBox="0 0 512 512" style="enable-background:new 0 0 512 512;" xml:space="preserve">
<g>
	<g>
		<path d="M437.019,74.981C388.667,26.629,324.381,0,256,0C187.62,0,123.332,26.629,74.981,74.981C26.629,123.333,0,187.619,0,256
			c0,68.381,26.629,132.668,74.981,181.019C123.332,485.372,187.619,512,256,512s132.668-26.628,181.019-74.981
			C485.37,388.667,512,324.38,512,256C512,187.62,485.372,123.333,437.019,74.981z M425.904,425.904
			C380.521,471.286,320.181,496.28,256,496.28s-124.52-24.994-169.903-70.376C40.714,380.521,15.72,320.181,15.72,256
			c0-64.181,24.994-124.521,70.376-169.904C131.479,40.714,191.818,15.72,256,15.72s124.521,24.994,169.904,70.376
			C471.287,131.479,496.28,191.819,496.28,256C496.28,320.181,471.286,380.521,425.904,425.904z"/>
	</g>
</g>
<g>
	<g>
		<path d="M420.039,91.96C376.222,48.144,317.966,24.014,256,24.014S135.777,48.144,91.96,91.96
			C48.143,135.777,24.013,194.034,24.013,256s24.13,120.223,67.948,164.04c43.817,43.817,102.073,67.947,164.038,67.947
			s120.223-24.131,164.04-67.947c43.817-43.817,67.947-102.074,67.947-164.04S463.856,135.777,420.039,91.96z M256,472.266
			c-119.249,0-216.266-97.017-216.266-216.266S136.751,39.734,256,39.734S472.266,136.751,472.266,256S375.249,472.266,256,472.266z
			"/>
	</g>
</g>
<g>
	<g>
		<path d="M256,176.1c-44.058,0-79.9,35.844-79.9,79.9c-0.001,44.058,35.842,79.901,79.9,79.901
			c44.058,0,79.901-35.844,79.901-79.901C335.901,211.942,300.058,176.1,256,176.1z M256,320.181
			c-35.39,0-64.18-28.792-64.18-64.181s28.791-64.18,64.18-64.18c35.391,0,64.181,28.792,64.181,64.18
			C320.181,291.389,291.39,320.181,256,320.181z"/>
	</g>
</g>
<g>
	<g>
		<rect x="247.882" y="135.223" width="15.72" height="25.152"/>
	</g>
</g>
<g>
	<g>
		
			<rect x="220.168" y="139.607" transform="matrix(0.9659 -0.2588 0.2588 0.9659 -31.4699 64.1817)" width="15.719" height="24.013"/>
	</g>
</g>
<g>
	<g>
		<rect x="194.116" y="150.412" transform="matrix(0.866 -0.5 0.5 0.866 -54.15 122.7513)" width="15.72" height="24.013"/>
	</g>
</g>
<g>
	<g>
		
			<rect x="171.74" y="167.578" transform="matrix(0.7071 -0.7071 0.7071 0.7071 -74.3819 179.5956)" width="15.72" height="24.013"/>
	</g>
</g>
<g>
	<g>
		<rect x="154.549" y="189.957" transform="matrix(0.5 -0.866 0.866 0.5 -93.7027 241.6294)" width="15.72" height="24.014"/>
	</g>
</g>
<g>
	<g>
		
			<rect x="143.754" y="216.011" transform="matrix(0.2588 -0.9659 0.9659 0.2588 -107.8739 315.4525)" width="15.719" height="24.013"/>
	</g>
</g>
<g>
	<g>
		<rect x="135.747" y="248.406" width="24.104" height="15.72"/>
	</g>
</g>
<g>
	<g>
		
			<rect x="139.613" y="276.097" transform="matrix(0.9659 -0.2588 0.2588 0.9659 -68.3246 48.9153)" width="24.013" height="15.719"/>
	</g>
</g>
<g>
	<g>
		<rect x="150.406" y="302.158" transform="matrix(0.866 -0.5 0.5 0.866 -133.2519 122.7449)" width="24.014" height="15.72"/>
	</g>
</g>
<g>
	<g>
		
			<rect x="167.57" y="324.542" transform="matrix(0.7071 -0.7071 0.7071 0.7071 -182.4464 224.3375)" width="24.014" height="15.72"/>
	</g>
</g>
<g>
	<g>
		<rect x="189.966" y="341.733" transform="matrix(0.5 -0.866 0.866 0.5 -201.7697 349.7043)" width="24.013" height="15.72"/>
	</g>
</g>
<g>
	<g>
		
			<rect x="216.033" y="352.533" transform="matrix(0.2588 -0.9659 0.9659 0.2588 -179.0921 487.3889)" width="24.013" height="15.718"/>
	</g>
</g>
<g>
	<g>
		<rect x="247.882" y="352.147" width="15.72" height="24.104"/>
	</g>
</g>
<g>
	<g>
		
			<rect x="276.102" y="348.388" transform="matrix(0.9659 -0.2588 0.2588 0.9659 -83.5984 85.7709)" width="15.718" height="24.013"/>
	</g>
</g>
<g>
	<g>
		<rect x="302.166" y="337.576" transform="matrix(0.866 -0.5 0.5 0.866 -133.2577 201.8539)" width="15.72" height="24.013"/>
	</g>
</g>
<g>
	<g>
		
			<rect x="324.545" y="320.409" transform="matrix(0.7071 -0.7071 0.7071 0.7071 -137.6941 332.407)" width="15.72" height="24.014"/>
	</g>
</g>
<g>
	<g>
		<rect x="341.723" y="298.019" transform="matrix(0.5 -0.866 0.866 0.5 -93.7007 457.754)" width="15.72" height="24.013"/>
	</g>
</g>
<g>
	<g>
		
			<rect x="352.521" y="271.943" transform="matrix(0.2588 -0.9659 0.9659 0.2588 -7.1631 558.5645)" width="15.719" height="24.014"/>
	</g>
</g>
<g>
	<g>
		<rect x="351.634" y="248.406" width="25.152" height="15.72"/>
	</g>
</g>
<g>
	<g>
		
			<rect x="348.363" y="220.148" transform="matrix(0.9659 -0.2588 0.2588 0.9659 -46.7319 101.0347)" width="24.014" height="15.719"/>
	</g>
</g>
<g>
	<g>
		<rect x="337.586" y="194.113" transform="matrix(0.866 -0.5 0.5 0.866 -54.1498 201.861)" width="24.013" height="15.72"/>
	</g>
</g>
<g>
	<g>
		
			<rect x="320.426" y="171.726" transform="matrix(0.7071 -0.7071 0.7071 0.7071 -29.619 287.6651)" width="24.013" height="15.72"/>
	</g>
</g>
<g>
	<g>
		<rect x="298.011" y="154.553" transform="matrix(0.5 -0.866 0.866 0.5 14.3529 349.6864)" width="24.013" height="15.72"/>
	</g>
</g>
<g>
	<g>
		
			<rect x="271.948" y="143.769" transform="matrix(0.2589 -0.9659 0.9659 0.2589 63.9792 386.6451)" width="24.014" height="15.72"/>
	</g>
</g>
<g>
	<g>
		<path d="M256,200.113c-30.815,0-55.886,25.071-55.886,55.887s25.07,55.887,55.886,55.887s55.887-25.071,55.887-55.887
			S286.816,200.113,256,200.113z M256,296.168c-22.148,0-40.167-18.019-40.167-40.168s18.018-40.168,40.167-40.168
			s40.168,18.019,40.168,40.168S278.148,296.168,256,296.168z"/>
	</g>
</g>
<g>
	<g>
		<rect x="175.92" y="114.715" transform="matrix(0.873 -0.4877 0.4877 0.873 -38.4642 105.7222)" width="15.72" height="24.014"/>
	</g>
</g>
<g>
	<g>
		
			<rect x="136.052" y="147.221" transform="matrix(0.6536 -0.7569 0.7569 0.6536 -70.6595 164.084)" width="15.721" height="24.015"/>
	</g>
</g>
<g>
	<g>
		
			<rect x="109.723" y="191.388" transform="matrix(0.3553 -0.9348 0.9348 0.3553 -114.3173 241.0439)" width="15.721" height="24.015"/>
	</g>
</g>
<g>
	<g>
		
			<rect x="100.081" y="241.896" transform="matrix(0.0141 -0.9999 0.9999 0.0141 -147.4583 358.253)" width="15.72" height="24.013"/>
	</g>
</g>
<g>
	<g>
		
			<rect x="104.137" y="296.802" transform="matrix(0.9444 -0.3287 0.3287 0.9444 -93.6914 55.1074)" width="24.013" height="15.719"/>
	</g>
</g>
<g>
	<g>
		
			<rect x="129.236" y="341.695" transform="matrix(0.7751 -0.6319 0.6319 0.7751 -189.1056 167.8742)" width="24.015" height="15.721"/>
	</g>
</g>
<g>
	<g>
		
			<rect x="168.148" y="375.305" transform="matrix(0.5122 -0.8589 0.8589 0.5122 -241.2087 341.6448)" width="24.014" height="15.72"/>
	</g>
</g>
<g>
	<g>
		
			<rect x="216.223" y="393.574" transform="matrix(0.1876 -0.9822 0.9822 0.1876 -208.8913 550.307)" width="24.015" height="15.721"/>
	</g>
</g>
<g>
	<g>
		
			<rect x="271.801" y="390.173" transform="matrix(0.9872 -0.1597 0.1597 0.9872 -60.6374 49.8221)" width="15.719" height="24.015"/>
	</g>
</g>
<g>
	<g>
		
			<rect x="320.351" y="373.283" transform="matrix(0.873 -0.4877 0.4877 0.873 -146.2277 208.9987)" width="15.72" height="24.013"/>
	</g>
</g>
<g>
	<g>
		
			<rect x="360.224" y="340.74" transform="matrix(0.6536 -0.7569 0.7569 0.6536 -139.467 400.7936)" width="15.721" height="24.015"/>
	</g>
</g>
<g>
	<g>
		
			<rect x="386.563" y="296.586" transform="matrix(0.3553 -0.9348 0.9348 0.3553 -34.1683 567.6464)" width="15.721" height="24.015"/>
	</g>
</g>
<g>
	<g>
		
			<rect x="396.213" y="246.089" transform="matrix(0.0142 -0.9999 0.9999 0.0142 140.2656 658.4628)" width="15.72" height="24.014"/>
	</g>
</g>
<g>
	<g>
		
			<rect x="383.861" y="199.474" transform="matrix(0.9444 -0.3287 0.3287 0.9444 -46.1546 141.647)" width="24.013" height="15.719"/>
	</g>
</g>
<g>
	<g>
		
			<rect x="358.762" y="154.578" transform="matrix(0.7751 -0.6319 0.6319 0.7751 -19.2432 270.818)" width="24.015" height="15.721"/>
	</g>
</g>
<g>
	<g>
		
			<rect x="319.843" y="120.961" transform="matrix(0.5122 -0.8589 0.8589 0.5122 51.2398 347.8583)" width="24.014" height="15.72"/>
	</g>
</g>
<g>
	<g>
		
			<rect x="271.776" y="102.706" transform="matrix(0.1876 -0.9822 0.9822 0.1876 121.9441 368.5707)" width="24.015" height="15.721"/>
	</g>
</g>
<g>
	<g>
		<rect x="224.49" y="97.816" transform="matrix(0.9872 -0.1597 0.1597 0.9872 -14.5564 38.5146)" width="15.719" height="24.015"/>
	</g>
</g>
<g>
</g>
<g>
</g>
<g>
</g>
<g>
</g>
<g>
</g>
<g>
</g>
<g>
</g>
<g>
</g>
<g>
</g>
<g>
</g>
<g>
</g>
<g>
</g>
<g>
</g>
<g>
</g>
<g>
</g>
</svg>
