<?xml version="1.0" encoding="iso-8859-1"?>
<!-- Generator: Adobe Illustrator 19.0.0, SVG Export Plug-In . SVG Version: 6.00 Build 0)  -->
<svg version="1.1" id="Layer_1" xmlns="http://www.w3.org/2000/svg" xmlns:xlink="http://www.w3.org/1999/xlink" x="0px" y="0px"
	 viewBox="0 0 512 512" style="enable-background:new 0 0 512 512;" xml:space="preserve">
<g>
	<g>
		<path d="M304.278,335.888v72.393h-0.001c0,5.384-0.514,10.647-1.447,15.766H159.444v15.743h138.956
			c-12.744,32.988-44.861,56.468-82.396,56.468c-23.604,0-45.768-9.161-62.409-25.798c-8.854-8.852-15.577-19.284-19.954-30.67
			h10.061v-15.743h-14.49c-0.506-2.766-0.896-5.566-1.141-8.396h167.811v-15.743H112.217v7.871
			c0,27.953,10.709,54.166,30.362,73.813C162.194,501.202,188.198,512,216.006,512c57.354,0,104.015-46.528,104.015-103.719v-72.393
			H304.278z"/>
	</g>
</g>
<g>
	<g>
		<path d="M352.03,0c-26.331,0-47.753,21.493-47.753,47.911v184.075h-8.396v15.743h8.396v8.396h-8.396v15.743h8.396v8.396h-8.396
			v15.743h8.396v24.664l0.058,7.871h7.871c17.618,0,31.952-14.523,31.952-32.375V31.529h-15.743v176.318h-8.396V47.911
			c0-17.738,14.36-32.169,32.01-32.169c17.65,0,32.01,14.431,32.01,32.169v31.896h15.743V47.911C399.783,21.493,378.361,0,352.03,0z
			 M328.416,223.59v72.576c0,6.125-3.426,11.604-8.396,14.488V223.59H328.416z"/>
	</g>
</g>
<g>
</g>
<g>
</g>
<g>
</g>
<g>
</g>
<g>
</g>
<g>
</g>
<g>
</g>
<g>
</g>
<g>
</g>
<g>
</g>
<g>
</g>
<g>
</g>
<g>
</g>
<g>
</g>
<g>
</g>
</svg>
