<?xml version="1.0" encoding="iso-8859-1"?>
<!-- Generator: Adobe Illustrator 19.0.0, SVG Export Plug-In . SVG Version: 6.00 Build 0)  -->
<svg version="1.1" id="Layer_1" xmlns="http://www.w3.org/2000/svg" xmlns:xlink="http://www.w3.org/1999/xlink" x="0px" y="0px"
	 viewBox="0 0 512 512" style="enable-background:new 0 0 512 512;" xml:space="preserve">
<g>
	<g>
		<path d="M349.548,306.004l-39.743,39.743l39.743,39.743l39.743-39.743L349.548,306.004z M331.948,345.746l17.6-17.6l17.6,17.6
			l-17.6,17.6L331.948,345.746z"/>
	</g>
</g>
<g>
	<g>
		<path d="M292.205,378.989l-39.743,39.743l39.743,39.743l39.743-39.743L292.205,378.989z M292.204,436.333l-17.6-17.6l17.6-17.6
			l17.6,17.6L292.204,436.333z"/>
	</g>
</g>
<g>
	<g>
		<rect x="240.144" y="74.738" width="31.315" height="15.657"/>
	</g>
</g>
<g>
	<g>
		<path d="M408.865,66.535h-63.298v-8.497h-24.972v-7.986c0-13.106-9.778-24.438-22.742-26.359L139.77,0.272
			c-10.19-1.515-19.929,3.381-24.801,12.461c-4.873,9.08-3.567,19.898,3.327,27.556l40.671,45.189v73.612
			c-28.055,14.317-51.825,35.76-68.959,62.26c-18.55,28.694-28.356,61.994-28.356,96.301c0,34.545,9.744,67.968,28.179,96.66
			c17.12,26.643,40.951,48.105,69.135,62.318V512h161.629v-35.371c28.183-14.213,52.016-35.675,69.135-62.318
			c18.435-28.691,28.179-62.115,28.179-96.66c0-16.982-2.41-33.714-7.087-49.765c22.46-4.172,39.525-23.9,39.525-47.551V108.018
			C450.349,85.144,431.74,66.535,408.865,66.535z M320.595,73.696h9.314v65.761h-9.314V73.696z M103.156,229.852
			c16.458-25.456,39.627-45.797,67.003-58.824l4.464-2.124V90.397h48.816V74.739h-53.073l-40.433-44.926
			c-3.698-4.11-1.829-8.447-1.168-9.677c0.661-1.231,3.238-5.195,8.71-4.376l158.083,23.422c5.348,0.792,9.379,5.466,9.379,10.87
			v118.852l4.464,2.124c27.377,13.026,50.546,33.368,67.003,58.824c8.429,13.039,14.876,27.122,19.223,41.844
			c-5.437,2.938-20.438,10.339-41.466,15.07c-35.346,7.954-70.092,4.997-103.269-8.783c-8.938-3.713-18.362-6.706-28.13-8.982
			l-35.982-35.983l-31.488,31.488c-31.25,2.467-57.795,10.122-73.586,15.651C85.925,262.368,93.125,245.367,103.156,229.852z
			 M204.38,272.761l-17.6,17.6l-17.6-17.6l17.6-17.6L204.38,272.761z M376.558,405.846c-16.201,25.215-39.004,45.321-65.984,58.244
			h-94.442v15.657h88.806v16.595H174.624v-16.595h24.808V464.09h-30.443c-26.981-12.923-49.784-33.029-65.984-58.244
			c-15.454-24.049-24.188-51.768-25.501-80.586h8.15v-15.657h-8.122c0.19-3.871,0.518-7.72,0.98-11.548
			c11.864-4.645,40.863-14.719,76.036-17.785l32.234,32.234l29.026-29.026c10.155,2.153,19.904,5.154,29.081,8.966
			c25.639,10.647,49.976,14.226,71.106,14.226c16.272,0,30.644-2.122,42.242-4.771c18.99-4.338,33.338-10.592,41.17-14.508
			c1.382,7.304,2.258,14.722,2.626,22.213h-7.403v15.657h7.431C400.746,354.078,392.011,381.797,376.558,405.846z M434.693,220.336
			L434.693,220.336c-0.001,16.789-12.715,30.658-29.018,32.504c-4.293-10.95-9.663-21.504-16.119-31.489
			c-17.133-26.501-40.904-47.943-68.959-62.26v-3.976h24.972V82.192h63.298c14.241,0,25.826,11.586,25.826,25.825V220.336z"/>
	</g>
</g>
<g>
	<g>
		<path d="M122.396,307.19l-5.535,5.535c-25.186,25.187-25.186,66.167,0,91.354c12.594,12.593,29.132,18.889,45.676,18.889
			c16.54,0,33.084-6.298,45.676-18.889l5.536-5.536L122.396,307.19z M140.518,347.454l32.966,32.966
			c-9.207,4.567-20.691,3.041-28.348-4.616C137.476,368.146,135.95,356.661,140.518,347.454z M127.931,393.006
			c-17.196-17.197-18.893-44.114-5.093-63.231l6.234,6.235c-10.475,15.642-8.815,37.059,4.991,50.866
			c7.851,7.85,18.162,11.774,28.473,11.774c7.823,0,15.645-2.265,22.393-6.784l6.234,6.234
			C172.047,411.9,145.127,410.203,127.931,393.006z"/>
	</g>
</g>
<g>
	<g>
		<rect x="150.374" y="301.25" width="16.701" height="15.657"/>
	</g>
</g>
<g>
	<g>
		<rect x="206.741" y="341.959" width="16.701" height="15.657"/>
	</g>
</g>
<g>
	<g>
		<rect x="223.443" y="317.951" width="16.701" height="15.657"/>
	</g>
</g>
<g>
	<g>
		<rect x="271.459" y="341.959" width="17.745" height="15.657"/>
	</g>
</g>
<g>
	<g>
		<rect x="289.204" y="317.951" width="15.657" height="15.657"/>
	</g>
</g>
<g>
	<g>
		<rect x="231.793" y="374.318" width="15.657" height="15.657"/>
	</g>
</g>
<g>
	<g>
		<rect x="175.426" y="430.685" width="15.657" height="15.657"/>
	</g>
</g>
<g>
	<g>
		<rect x="231.793" y="440.08" width="15.657" height="15.658"/>
	</g>
</g>
<g>
	<g>
		<rect x="345.571" y="399.37" width="15.657" height="15.658"/>
	</g>
</g>
<g>
	<g>
		<path d="M344.372,231.31l-11.664,10.447c4.237,4.731,8.102,9.849,11.488,15.211l13.239-8.361
			C353.585,242.509,349.19,236.69,344.372,231.31z"/>
	</g>
</g>
<g>
	<g>
		<path d="M247.447,188.178v15.657c29.227,0,56.468,10.766,77.564,30.316l10.532-11.484
			C311.543,200.426,280.849,188.178,247.447,188.178z"/>
	</g>
</g>
<g>
</g>
<g>
</g>
<g>
</g>
<g>
</g>
<g>
</g>
<g>
</g>
<g>
</g>
<g>
</g>
<g>
</g>
<g>
</g>
<g>
</g>
<g>
</g>
<g>
</g>
<g>
</g>
<g>
</g>
</svg>
