<?xml version="1.0" encoding="iso-8859-1"?>
<!-- Generator: Adobe Illustrator 19.0.0, SVG Export Plug-In . SVG Version: 6.00 Build 0)  -->
<svg version="1.1" id="Layer_1" xmlns="http://www.w3.org/2000/svg" xmlns:xlink="http://www.w3.org/1999/xlink" x="0px" y="0px"
	 viewBox="0 0 511.999 511.999" style="enable-background:new 0 0 511.999 511.999;" xml:space="preserve">
<g>
	<g>
		<rect x="180.051" y="472.29" width="79.41" height="15.673"/>
	</g>
</g>
<g>
	<g>
		<path d="M218.549,217.117l-33.717,33.717l33.717,33.717l33.717-33.717L218.549,217.117z M206.998,250.835l11.552-11.552
			l11.552,11.552l-11.552,11.552L206.998,250.835z"/>
	</g>
</g>
<g>
	<g>
		<path d="M219.922,391.795l-33.717,33.717l33.717,33.717l33.717-33.717L219.922,391.795z M208.37,425.513l11.552-11.552
			l11.552,11.552l-11.552,11.552L208.37,425.513z"/>
	</g>
</g>
<g>
	<g>
		<path d="M299.946,32.075c-41.46,0-75.631,31.791-79.485,72.138h-41.425L178.826,0l-15.673,0.03l0.21,104.182h-31.301v407.787
			h175.72V191.534c40.36-3.845,72.154-38.073,72.154-79.544C379.937,67.957,343.98,32.075,299.946,32.075z M147.735,119.885h15.659
			l0.064,31.635h-15.723V119.885z M292.11,183.913h-15.93v15.673h15.93v101.842l-26.919-26.92l-33.717,33.717l33.717,33.717
			l26.919-26.92v157.274h-24.289v15.673h24.289v8.359H147.735v-0.001v-8.359h23.958v-15.673h-23.958v-152.55h8.285v-15.673h-8.285
			v-72.096h8.285v-15.673h-8.285v-49.109h15.755l0.582,288.971l15.673-0.03l-0.582-288.94H292.11V183.913z M276.742,308.223
			l-11.552,11.552l-11.552-11.552l11.552-11.552L276.742,308.223z M292.11,151.52H179.131l-0.064-31.635H292.11V151.52z
			 M260.514,104.212c0.645-3.291,1.697-6.444,3.107-9.404l9.404,9.404H260.514z M283.775,104.212l5.707-5.708L273.1,82.122
			c5.209-4.688,11.642-8.054,18.751-9.531v23.551h15.674V72.473c5.39,1.029,10.409,3.137,14.815,6.098l-11.931,11.932l11.083,11.081
			l11.93-11.93c2.775,4.13,4.801,8.797,5.897,13.803h-23.435v15.673h23.732c-1.001,5.581-3.149,10.769-6.203,15.302l-11.921-11.921
			l-11.082,11.083l11.899,11.899c-4.335,2.898-9.253,4.969-14.526,5.995v-47.276H283.775z M307.783,175.774v-8.416
			c26.846-3.764,48.146-27.177,48.146-55.366c0-30.797-25.186-55.91-55.983-55.91c-28.179,0-51.537,21.299-55.306,48.131h-8.415
			c3.773-31.905,30.962-56.465,63.787-56.465c35.392,0,64.251,28.909,64.251,64.301
			C364.264,144.884,339.701,172.024,307.783,175.774z"/>
	</g>
</g>
<g>
	<g>
		<rect x="196.769" y="183.907" width="14.628" height="15.673"/>
	</g>
</g>
<g>
	<g>
		<rect x="252.147" y="207.939" width="15.673" height="15.673"/>
	</g>
</g>
<g>
	<g>
		<rect x="259.461" y="360.489" width="16.718" height="15.673"/>
	</g>
</g>
<g>
	<g>
		<rect x="219.756" y="343.771" width="16.718" height="15.673"/>
	</g>
</g>
<g>
	<g>
		<rect x="267.82" y="408.553" width="16.718" height="15.673"/>
	</g>
</g>
<g>
	<g>
		<rect x="196.769" y="368.848" width="14.628" height="15.673"/>
	</g>
</g>
<g>
	<g>
		<rect x="187.365" y="304.066" width="16.718" height="15.673"/>
	</g>
</g>
<g>
	<g>
		<rect x="187.365" y="448.258" width="16.718" height="15.673"/>
	</g>
</g>
<g>
</g>
<g>
</g>
<g>
</g>
<g>
</g>
<g>
</g>
<g>
</g>
<g>
</g>
<g>
</g>
<g>
</g>
<g>
</g>
<g>
</g>
<g>
</g>
<g>
</g>
<g>
</g>
<g>
</g>
</svg>
