<?xml version="1.0" encoding="iso-8859-1"?>
<!-- Generator: Adobe Illustrator 19.0.0, SVG Export Plug-In . SVG Version: 6.00 Build 0)  -->
<svg version="1.1" id="Layer_1" xmlns="http://www.w3.org/2000/svg" xmlns:xlink="http://www.w3.org/1999/xlink" x="0px" y="0px"
	 viewBox="0 0 511.999 511.999" style="enable-background:new 0 0 511.999 511.999;" xml:space="preserve">
<g>
	<g>
		<path d="M331.876,47.857c0-13.146-10.695-23.84-23.841-23.84c-13.146,0-23.839,10.695-23.839,23.84
			c0,10.355,6.639,19.186,15.883,22.47c-0.956,13.423-7.706,25.722-18.555,33.746h-51.045c-10.85-8.024-17.6-20.323-18.556-33.746
			c9.244-3.284,15.883-12.113,15.883-22.47c0-13.146-10.695-23.84-23.84-23.84s-23.84,10.694-23.84,23.839
			c0,10.439,6.748,19.327,16.108,22.546c0.775,14.265,6.425,27.648,15.84,38.047c-9.522,5.571-15.938,15.902-15.938,27.708v111.594
			c0,13.547,8.444,25.152,20.341,29.85l11.125,147.44c-22.402,3.977-39.472,23.578-39.472,47.106v39.852h7.829
			c13.978,0,26.574-6.025,35.332-15.614c4.537,9.237,14.039,15.614,25.007,15.614c10.967,0,20.47-6.376,25.006-15.614
			c8.757,9.588,21.353,15.614,35.332,15.614h7.829v-39.852c0-22.363-15.421-41.187-36.187-46.411l11.325-150.088
			c9.702-5.524,16.263-15.956,16.263-27.896V136.158c0-11.806-6.415-22.138-15.937-27.708c9.415-10.399,15.067-23.782,15.84-38.047
			C325.128,67.184,331.876,58.296,331.876,47.857z M203.964,56.038c-4.512,0-8.182-3.67-8.182-8.182s3.67-8.182,8.182-8.182
			s8.182,3.67,8.182,8.182S208.476,56.038,203.964,56.038z M228.157,464.143c0,15.055-10.386,27.73-24.37,31.236v-23.231
			c0-15.055,10.386-27.73,24.37-31.237V464.143z M268.482,484.156h-0.001c0,6.72-5.466,12.185-12.184,12.185
			s-12.184-5.466-12.184-12.185v-44.207h24.37V484.156z M282.365,295.966h-30.533v15.658h29.351l-3.623,48.019h-25.728v15.658
			h24.546l-3.696,48.989h-3.906h-24.962h-0.567l-1.175-15.584h18.114v-15.658h-19.296l-3.702-49.063h22.997v-15.658h-24.179
			l-3.659-48.488h51.235L282.365,295.966z M308.805,472.148v23.231c-13.983-3.506-24.369-16.181-24.369-31.236v-23.231
			C298.419,444.418,308.805,457.093,308.805,472.148z M300.206,136.157v79.429h-16.012v15.658h16.012v16.507
			c0,9.059-7.37,16.428-16.428,16.428h-55.556c-9.059,0-16.429-7.37-16.429-16.428v-16.507h16.03v-15.658h-16.03v-79.429
			c0-9.059,7.37-16.428,16.429-16.428h55.556C292.837,119.729,300.206,127.099,300.206,136.157z M308.036,56.038
			c-4.512,0-8.181-3.67-8.181-8.182s3.669-8.182,8.181-8.182s8.182,3.67,8.182,8.182S312.547,56.038,308.036,56.038z"/>
	</g>
</g>
<g>
	<g>
		<path d="M364.25,72.05v99.892c0,19.809,13.205,36.583,31.273,42.005c-2.669,10.457-12.167,18.212-23.444,18.212h-48.033v15.658
			h48.033c19.337,0,35.495-13.846,39.096-32.142c22.752-1.584,40.783-20.588,40.783-43.735V72.05H364.25z M436.3,171.942
			c0,15.548-12.649,28.196-28.196,28.196c-15.548,0-28.196-12.648-28.196-28.196V87.708H436.3V171.942z"/>
	</g>
</g>
<g>
	<g>
		<path d="M404.102,0h-7.829v63.868h15.658V16.621c13.983,3.505,24.369,16.18,24.369,31.235v16.011h15.658V47.856
			C451.958,21.468,430.491,0,404.102,0z"/>
	</g>
</g>
<g>
	<g>
		<path d="M364.25,47.856v16.011h15.658V47.856c0-4.512,3.67-8.182,8.182-8.182V24.016C374.945,24.016,364.25,34.711,364.25,47.856z
			"/>
	</g>
</g>
<g>
	<g>
		<path d="M107.899,0C81.51,0,60.042,21.468,60.042,47.856v16.011H75.7V47.856c0-15.055,10.386-27.729,24.37-31.235v47.247h15.658V0
			H107.899z"/>
	</g>
</g>
<g>
	<g>
		<path d="M123.91,24.016v15.658c4.511,0,8.181,3.669,8.181,8.182v16.011h15.658V47.856C147.75,34.711,137.055,24.016,123.91,24.016
			z"/>
	</g>
</g>
<g>
	<g>
		<path d="M139.919,232.16c-11.275-0.001-20.773-7.756-23.443-18.213c18.067-5.422,31.272-22.197,31.272-42.005V72.05H60.041v99.892
			c0,23.147,18.031,42.15,40.783,43.735c3.601,18.295,19.76,32.142,39.096,32.142h48.033V232.16H139.919z M103.896,200.138
			c-15.548,0-28.196-12.649-28.196-28.196V87.708h56.391v84.234C132.091,187.49,119.442,200.138,103.896,200.138z"/>
	</g>
</g>
<g>
</g>
<g>
</g>
<g>
</g>
<g>
</g>
<g>
</g>
<g>
</g>
<g>
</g>
<g>
</g>
<g>
</g>
<g>
</g>
<g>
</g>
<g>
</g>
<g>
</g>
<g>
</g>
<g>
</g>
</svg>
