<?xml version="1.0" encoding="iso-8859-1"?>
<!-- Generator: Adobe Illustrator 19.0.0, SVG Export Plug-In . SVG Version: 6.00 Build 0)  -->
<svg version="1.1" id="Layer_1" xmlns="http://www.w3.org/2000/svg" xmlns:xlink="http://www.w3.org/1999/xlink" x="0px" y="0px"
	 viewBox="0 0 511.999 511.999" style="enable-background:new 0 0 511.999 511.999;" xml:space="preserve">
<g>
	<g>
		<path d="M399.936,456.179c0-0.024,0.002-0.048,0.002-0.071c0-0.056-0.005-0.109-0.005-0.165
			c-0.219-76.876-60.738-139.675-136.529-143.468v-8.221h-15.735v8.293c-75.382,4.374-135.388,66.717-135.605,143.394
			c0,0.056-0.005,0.109-0.005,0.165c0,0.023,0.002,0.047,0.002,0.071c0,0.061-0.002,0.12-0.002,0.18h0.008
			c0.344,36.141,74.316,55.641,143.932,55.641c69.617,0,143.588-19.5,143.933-55.641h0.008
			C399.939,456.298,399.936,456.239,399.936,456.179z M152.21,478.49c-15.789-7.13-24.37-15.305-24.414-22.328
			c0-0.05,0.002-0.1,0.002-0.15c0.077-7.305,9.188-15.508,24.412-22.377V478.49z M183.68,488.732
			c-5.637-1.308-10.888-2.748-15.735-4.29v-56.714c4.971-1.565,10.231-2.982,15.735-4.251V488.732z M216.199,494.163
			c-5.849-0.643-11.451-1.416-16.784-2.307v-71.487c5.43-0.901,11.04-1.663,16.784-2.294V494.163z M247.669,496.175
			c-5.4-0.113-10.647-0.335-15.735-0.657v-78.799c5.169-0.33,10.42-0.555,15.735-0.67V496.175z M255.997,400.213
			c-48.163,0-98.409,9.334-124.919,27.054c13.15-57.127,64.233-99.24,125.065-99.24c60.63,0,111.554,42.392,124.74,99.215
			C354.362,409.539,304.139,400.213,255.997,400.213z M280.188,495.488c-5.509,0.354-11.109,0.592-16.784,0.701v-80.171
			c5.772,0.108,11.366,0.342,16.784,0.686V495.488z M311.658,491.988c-5.103,0.831-10.357,1.543-15.735,2.136v-76.06
			c5.468,0.602,10.718,1.322,15.735,2.143V491.988z M344.177,484.448c-5.283,1.668-10.9,3.164-16.784,4.494v-65.673
			c6.036,1.376,11.639,2.903,16.784,4.542V484.448z M359.912,478.522v-44.741c15.675,7.103,24.209,15.234,24.287,22.227
			c0,0.051,0.002,0.102,0.002,0.153C384.156,463.456,375.089,471.652,359.912,478.522z"/>
	</g>
</g>
<g>
	<g>
		<polygon points="207.807,256 207.807,271.735 247.669,271.735 247.669,295.862 263.404,295.862 263.404,271.735 304.315,271.735 
			304.315,256 		"/>
	</g>
</g>
<g>
	<g>
		<path d="M287.878,231.873V31.88c0-17.579-14.302-31.88-31.88-31.88c-17.579,0-31.88,14.301-31.88,31.88v199.993h-7.919v15.735
			h79.724v-15.735H287.878z M272.142,231.873h-32.29v-15.735h32.29V231.873z M272.143,200.403h-32.291V31.88
			c0-8.903,7.243-16.145,16.146-16.145c8.903,0,16.145,7.242,16.145,16.145V200.403z"/>
	</g>
</g>
<g>
	<g>
		<rect x="247.667" y="176.274" width="15.735" height="15.735"/>
	</g>
</g>
<g>
	<g>
		<rect x="247.667" y="152.147" width="15.735" height="15.735"/>
	</g>
</g>
<g>
	<g>
		<rect x="247.667" y="128.02" width="15.735" height="15.735"/>
	</g>
</g>
<g>
</g>
<g>
</g>
<g>
</g>
<g>
</g>
<g>
</g>
<g>
</g>
<g>
</g>
<g>
</g>
<g>
</g>
<g>
</g>
<g>
</g>
<g>
</g>
<g>
</g>
<g>
</g>
<g>
</g>
</svg>
