<?xml version="1.0" encoding="iso-8859-1"?>
<!-- Generator: Adobe Illustrator 19.0.0, SVG Export Plug-In . SVG Version: 6.00 Build 0)  -->
<svg version="1.1" id="Layer_1" xmlns="http://www.w3.org/2000/svg" xmlns:xlink="http://www.w3.org/1999/xlink" x="0px" y="0px"
	 viewBox="0 0 512 512" style="enable-background:new 0 0 512 512;" xml:space="preserve">
<g>
	<g>
		<path d="M200.733,0v39.625H312.31V0H200.733z M296.668,23.984h-80.293v-8.342h80.293V23.984z"/>
	</g>
</g>
<g>
	<g>
		<rect x="192.391" y="159.544" width="15.642" height="56.31"/>
	</g>
</g>
<g>
	<g>
		<rect x="216.375" y="215.853" width="15.642" height="31.283"/>
	</g>
</g>
<g>
	<g>
		<rect x="232.016" y="183.528" width="15.642" height="15.642"/>
	</g>
</g>
<g>
	<g>
		<rect x="271.642" y="423.365" width="16.684" height="15.642"/>
	</g>
</g>
<g>
	<g>
		<rect x="296.668" y="423.365" width="15.642" height="15.642"/>
	</g>
</g>
<g>
	<g>
		<path d="M311.995,119.593c-9.026-0.057-16.369-7.321-16.369-16.194v-39.79h8.342V47.967h-95.935v15.642h8.342v39.79
			c0,8.873-7.202,16.138-16.057,16.193c-17.596,0.113-31.911,14.395-31.911,31.837v332.579c0,15.435,12.557,27.992,27.992,27.992
			h119.201c15.435,0,27.992-12.557,27.992-27.992V151.43C343.593,133.987,329.418,119.706,311.995,119.593z M327.951,375.397
			h-32.326v-8.342h32.326V375.397z M327.951,351.413h-47.967v39.625h47.967v8.342h-23.984v15.642h23.984v8.342h-7.299v15.642h7.299
			v8.342h-63.609V335.772h63.609V351.413z M304.338,320.13h-55.637V462.99h54.403c-2.274,5.192-7.456,8.832-13.478,8.832H222.62
			c-8.113,0-14.712-6.6-14.712-14.712V293.624l1.538-0.384c14.62-3.656,29.906-3.067,44.204,1.698
			c16.39,5.462,33.866,6.342,50.688,2.568V320.13z M327.951,320.13h-7.971v-42.63l-17.18,4.295
			c-14.621,3.657-29.908,3.068-44.205-1.698c-17.125-5.708-35.433-6.411-52.945-2.033l-13.385,3.347v175.696
			c0,16.737,13.616,30.354,30.354,30.354h67.006c14.725,0,27.031-10.541,29.777-24.474h8.548v21.018
			c0,6.811-5.54,12.352-12.351,12.352H196.399c-6.81,0-12.351-5.54-12.351-12.351V151.43c0-8.872,7.343-16.138,16.369-16.195
			c17.424-0.109,31.598-14.391,31.598-31.835V63.609h47.967v39.79c0,17.442,14.316,31.724,31.912,31.836
			c8.853,0.057,16.055,7.321,16.055,16.194V320.13z"/>
	</g>
</g>
<g>
</g>
<g>
</g>
<g>
</g>
<g>
</g>
<g>
</g>
<g>
</g>
<g>
</g>
<g>
</g>
<g>
</g>
<g>
</g>
<g>
</g>
<g>
</g>
<g>
</g>
<g>
</g>
<g>
</g>
</svg>
