<?xml version="1.0" encoding="iso-8859-1"?>
<!-- Generator: Adobe Illustrator 19.0.0, SVG Export Plug-In . SVG Version: 6.00 Build 0)  -->
<svg version="1.1" id="Layer_1" xmlns="http://www.w3.org/2000/svg" xmlns:xlink="http://www.w3.org/1999/xlink" x="0px" y="0px"
	 viewBox="0 0 512 512" style="enable-background:new 0 0 512 512;" xml:space="preserve">
<g>
	<g>
		<path d="M415.308,298.617c-2.112-25.599-10.279-50.137-23.977-71.863c-13.974-22.161-33.123-40.505-55.718-53.503
			c5.126-5.656,8.254-13.156,8.254-21.373c0-15.451-11.058-28.364-25.675-31.252c1.074-2.713,1.671-5.664,1.671-8.754
			c0-13.155-10.703-23.858-23.858-23.858h-12.558c2.799-4.739,4.412-10.257,4.412-16.148c0-14.857-10.224-27.369-24.003-30.877
			V27.86c0-6.699,5.449-12.148,12.148-12.148c6.698,0,12.147,5.449,12.147,12.148v4h15.712v-4C303.861,12.499,291.363,0,276.002,0
			s-27.86,12.499-27.86,27.86v13.128c-13.78,3.508-24.003,16.02-24.003,30.877c0,5.891,1.613,11.409,4.412,16.148h-12.558
			c-13.155,0-23.858,10.703-23.858,23.858c0,3.09,0.597,6.042,1.671,8.754c-14.617,2.888-25.674,15.801-25.674,31.252
			c0,8.218,3.129,15.719,8.256,21.375c-22.594,12.995-41.744,31.335-55.716,53.493c-13.699,21.723-21.866,46.263-23.98,71.858
			l-17.988-5.915L105.007,512h301.984l26.306-219.34L415.308,298.617z M255.999,55.718c8.904,0,16.147,7.243,16.147,16.147
			s-7.243,16.148-16.147,16.148s-16.147-7.245-16.147-16.148S247.095,55.718,255.999,55.718z M215.992,103.726h80.013
			c4.492,0,8.145,3.654,8.145,8.145c0,4.492-3.654,8.146-8.145,8.146h-80.013c-4.492,0-8.145-3.655-8.145-8.146
			C207.847,107.38,211.5,103.726,215.992,103.726z M199.991,135.731h16.002h80.013h16.003c8.904,0,16.147,7.243,16.147,16.147
			s-7.243,16.147-16.147,16.147H199.991c-8.904,0-16.147-7.243-16.147-16.147S191.087,135.731,199.991,135.731z M113.595,289.517
			l3.938,3.936l16.001-16.003l-11.111-11.109l-4.678,4.679c3.718-12.599,9.147-24.683,16.215-35.892
			c7.411-11.751,16.444-22.303,26.76-31.399l9.712,9.711l11.109-11.111l-8.4-8.4c5.839-4.107,11.982-7.806,18.41-11.024
			l-0.182-0.365c2.744,0.772,5.633,1.195,8.621,1.195h45.042l-2.592,2.591l11.111,11.111l13.702-13.702h44.753
			c2.995,0,5.89-0.424,8.64-1.2l-0.191,0.38c23.58,11.807,43.492,29.867,57.584,52.215c12.999,20.618,20.474,44.182,21.866,68.501
			l-23.885-7.988l-24.006,7.989l-24.004-8.009l-23.777,7.922h-0.455l-23.778-7.926l-24.003,8.001l-24.003-8.002l-24.003,8.001
			l-24.004-8.002l-24.003,8.002l-24.003-8.002l-23.888,7.963C112.365,298.859,112.867,294.166,113.595,289.517z M395.814,473.243
			h-52.447v15.712h50.563l-0.88,7.332H118.948l-0.88-7.332h210.634v-15.712H116.184L97.243,315.326l14.751,4.852l17.38-5.794
			l14.814,118.511l15.592-1.949l-14.456-115.651l14.662,4.888l14.736-4.912v19.703h15.712v-20.644l17.559,5.852l24.003-8.001
			l16.05,5.35v114.858h15.712V317.598l16.245-5.414l15.18,5.061v17.729h15.712V317.89l17.113-5.7l24.002,8.007l14.662-4.879
			l-14.453,115.629l15.592,1.949l14.808-118.476l17.389,5.816l14.742-4.881L395.814,473.243z"/>
	</g>
</g>
<g>
	<g>
		<rect x="196.693" y="208.03" transform="matrix(0.707 -0.7072 0.7072 0.707 -91.7309 210.3578)" width="22.631" height="15.712"/>
	</g>
</g>
<g>
	<g>
		
			<rect x="292.69" y="264.025" transform="matrix(0.7071 -0.7071 0.7071 0.7071 -103.2082 294.5964)" width="22.631" height="15.712"/>
	</g>
</g>
<g>
	<g>
		
			<rect x="268.708" y="208.026" transform="matrix(0.707 -0.7072 0.7072 0.707 -70.6282 261.2862)" width="22.631" height="15.712"/>
	</g>
</g>
<g>
	<g>
		
			<rect x="240.151" y="236.566" transform="matrix(0.7071 -0.7071 0.7071 0.7071 -102.6393 247.9704)" width="15.712" height="22.631"/>
	</g>
</g>
<g>
	<g>
		
			<rect x="192.131" y="260.578" transform="matrix(0.7071 -0.7071 0.7071 0.7071 -133.6832 221.0478)" width="15.712" height="22.631"/>
	</g>
</g>
<g>
	<g>
		
			<rect x="360.167" y="268.559" transform="matrix(0.7072 -0.707 0.707 0.7072 -90.1182 342.1396)" width="15.712" height="22.631"/>
	</g>
</g>
<g>
	<g>
		
			<rect x="336.151" y="228.556" transform="matrix(0.7072 -0.707 0.707 0.7072 -68.8677 313.4471)" width="15.712" height="22.631"/>
	</g>
</g>
<g>
	<g>
		
			<rect x="320.142" y="188.562" transform="matrix(0.7071 -0.7071 0.7071 0.7071 -45.266 290.4726)" width="15.712" height="22.631"/>
	</g>
</g>
<g>
	<g>
		
			<rect x="148.654" y="248.031" transform="matrix(0.7072 -0.707 0.707 0.7072 -134.0761 188.0216)" width="22.631" height="15.712"/>
	</g>
</g>
<g>
</g>
<g>
</g>
<g>
</g>
<g>
</g>
<g>
</g>
<g>
</g>
<g>
</g>
<g>
</g>
<g>
</g>
<g>
</g>
<g>
</g>
<g>
</g>
<g>
</g>
<g>
</g>
<g>
</g>
</svg>
