<?xml version="1.0" encoding="iso-8859-1"?>
<!-- Generator: Adobe Illustrator 19.0.0, SVG Export Plug-In . SVG Version: 6.00 Build 0)  -->
<svg version="1.1" id="Layer_1" xmlns="http://www.w3.org/2000/svg" xmlns:xlink="http://www.w3.org/1999/xlink" x="0px" y="0px"
	 viewBox="0 0 512.001 512.001" style="enable-background:new 0 0 512.001 512.001;" xml:space="preserve">
<g>
	<g>
		<path d="M136.182,0C62.017,0,1.679,60.338,1.679,134.504c0,58.056,81.914,275.016,117.133,365.602
			c2.809,7.227,9.628,11.895,17.37,11.895c7.743,0,14.562-4.669,17.371-11.895c35.219-90.586,117.133-307.545,117.133-365.602
			C270.685,60.338,210.348,0,136.182,0z M136.182,15.719c63.944,0,116.24,50.791,118.686,114.146
			c-28.583-36.107-72.552-57.834-119.251-57.834c-46.056,0-89.457,21.129-118.062,56.346
			C20.754,65.714,72.739,15.719,136.182,15.719z M227.902,247.089h-20.485v15.719h15.438c-1.001,3.075-2.032,6.22-3.092,9.431h-35.4
			v15.719h30.154c-1.971,5.848-4.029,11.893-6.188,18.166c-22.943,66.673-48.949,135.319-64.835,176.439v-66.758h-15.719v63.919
			c-15.966-41.391-41.312-108.427-63.739-173.6c-5.425-15.763-10.246-30.162-14.526-43.316h5.96v-15.719H44.463
			c-1.734-5.48-3.365-10.717-4.896-15.719H79.57v-15.719H34.857c-1.203-4.107-2.333-8.039-3.386-11.786l0.024,0.014
			c21.446-37.073,61.343-60.104,104.122-60.104c43.472,0,83.604,23.541,104.888,61.467
			C237.095,217.308,232.941,231.169,227.902,247.089z M246.038,184.736c-2.276-3.167-4.664-6.235-7.182-9.172v-23.836h-15.72v8.275
			c-22.178-18.65-50.039-29.984-79.642-31.703v-8.01h-15.719v8.009c-16.841,0.982-33.165,5.093-48.204,11.919v-12.593H63.851v21
			c-14.578,9.063-27.462,20.888-37.816,34.96c-3.224-12.728-5.352-22.73-6.688-30.587c1.169-1.91,2.38-3.788,3.635-5.628v4.356
			h15.719v-23.415c11.805-11.92,25.684-21.551,40.869-28.426v3.636h15.719v-9.614c12.903-4.021,26.48-6.159,40.327-6.159
			c8.343,0,16.584,0.791,24.644,2.286v21.871h15.719V93.921c5.366,1.675,10.616,3.67,15.719,5.982v27.723h15.719v-19.334
			c18.333,11.374,34.004,27.096,45.347,46.169C251.375,162.328,249.227,172.244,246.038,184.736z"/>
	</g>
</g>
<g>
	<g>
		<path d="M393.187,11.896C390.379,4.67,383.56,0,375.818,0c0,0,0,0-0.001,0c-7.743,0-14.562,4.669-17.37,11.895
			c-35.218,90.584-117.131,307.544-117.131,365.602c0,74.165,60.337,134.504,134.503,134.504s134.504-60.338,134.504-134.504
			C510.32,319.432,428.405,102.477,393.187,11.896z M485.032,424.187c-1.068,2.489-2.214,4.937-3.445,7.335h-17.431v15.719h7.748
			c-21.612,29.696-56.632,49.04-96.088,49.04c-48.931,0-91.04-29.741-109.215-72.094h5.788v-15.719h-11.252
			c-0.745-2.756-1.393-5.552-1.941-8.383h20.527v-15.719h-22.487c-0.131-2.274-0.203-4.564-0.203-6.87
			c0-16.466,8.091-59.606,46.638-171.619c22.588-65.64,48.134-133.166,64.078-174.48v64.791h15.719V30.32
			c10.271,26.597,24.657,64.407,39.697,105.689h-22.931v15.719h28.627c6.416,17.801,12.872,36.046,19.102,54.149
			c38.547,112.015,46.638,155.154,46.638,171.619c0,10.712-1.434,21.094-4.105,30.972h-17.955v15.719H485.032z"/>
	</g>
</g>
<g>
	<g>
		<path d="M439.606,328.001v-40.018c0-35.226-28.659-63.883-63.883-63.883c-35.226,0-63.884,28.659-63.884,63.883v96.042
			c0,35.226,28.659,63.885,63.884,63.885c35.225,0,63.883-28.659,63.883-63.885h-15.719c0,26.559-21.606,48.166-48.165,48.166
			c-26.558,0-48.166-21.607-48.166-48.166v-96.042c0-26.559,21.607-48.165,48.166-48.165c26.559,0,48.165,21.606,48.165,48.165
			v40.018H439.606z"/>
	</g>
</g>
<g>
	<g>
		<g>
			<path d="M335.848,287.957h15.719c0-13.623,10.942-24.129,24.565-24.129v-15.719C354.126,248.109,335.848,265.951,335.848,287.957
				z"/>
			<polygon points="376.132,248.109 376.132,248.109 376.132,248.109 			"/>
		</g>
	</g>
</g>
<g>
	<g>
		<rect x="423.287" y="360.265" width="15.719" height="15.719"/>
	</g>
</g>
<g>
	<g>
		<rect x="423.287" y="336.163" width="15.719" height="15.719"/>
	</g>
</g>
<g>
	<g>
		<path d="M391.728,368.162c-13.16,0-23.865,10.707-23.865,23.866s10.707,23.866,23.865,23.866
			c13.161,0,23.866-10.707,23.866-23.866S404.888,368.162,391.728,368.162z M391.728,400.175c-4.492,0-8.146-3.655-8.146-8.148
			s3.654-8.148,8.146-8.148c4.492,0,8.148,3.655,8.148,8.148S396.221,400.175,391.728,400.175z"/>
	</g>
</g>
<g>
	<g>
		<rect x="95.287" y="352.93" width="16.767" height="15.719"/>
	</g>
</g>
<g>
	<g>
		<rect x="112.054" y="327.78" width="15.719" height="15.719"/>
	</g>
</g>
<g>
	<g>
		<rect x="127.773" y="360.265" width="15.719" height="15.719"/>
	</g>
</g>
<g>
	<g>
		<rect x="335.261" y="160.112" width="15.719" height="15.719"/>
	</g>
</g>
<g>
	<g>
		<rect x="376.13" y="184.214" width="15.719" height="15.719"/>
	</g>
</g>
<g>
</g>
<g>
</g>
<g>
</g>
<g>
</g>
<g>
</g>
<g>
</g>
<g>
</g>
<g>
</g>
<g>
</g>
<g>
</g>
<g>
</g>
<g>
</g>
<g>
</g>
<g>
</g>
<g>
</g>
</svg>
