<?xml version="1.0" encoding="iso-8859-1"?>
<!-- Generator: Adobe Illustrator 19.0.0, SVG Export Plug-In . SVG Version: 6.00 Build 0)  -->
<svg version="1.1" id="Layer_1" xmlns="http://www.w3.org/2000/svg" xmlns:xlink="http://www.w3.org/1999/xlink" x="0px" y="0px"
	 viewBox="0 0 512 512" style="enable-background:new 0 0 512 512;" xml:space="preserve">
<g>
	<g>
		<rect x="279.711" y="400.066" width="15.709" height="15.709"/>
	</g>
</g>
<g>
	<g>
		<path d="M176.14,160.266V512h159.72V160.266H176.14z M191.85,375.979h16.643v47.128H191.85V375.979z M320.15,320.472H271.33
			v15.709h48.821v8.378h-32.064v15.709h32.064v39.797h-15.307v15.709h15.307v7.331h-71.861V296.384h71.861V320.472z M320.15,280.675
			H232.58v158.141h87.571v57.474H191.85v-57.474h32.352v-78.547H191.85V224.121H320.15V280.675z M320.15,175.976v32.436H191.85
			v-32.436L320.15,175.976L320.15,175.976z"/>
	</g>
</g>
<g>
	<g>
		<polygon points="248.289,56.554 248.289,49.223 232.58,49.223 232.58,56.554 199.066,56.554 199.066,72.263 215.823,72.263 
			215.823,151.858 231.533,151.858 231.533,72.263 279.708,72.263 279.708,151.858 295.418,151.858 295.418,72.263 312.174,72.263 
			312.174,56.554 		"/>
	</g>
</g>
<g>
	<g>
		<polygon points="208.492,0 208.492,48.176 224.202,48.176 224.202,39.797 232.58,39.797 232.58,24.088 224.202,24.088 
			224.202,15.709 288.087,15.709 288.087,48.176 303.796,48.176 303.796,0 		"/>
	</g>
</g>
<g>
	<g>
		<rect x="264.002" y="24.088" width="15.709" height="15.709"/>
	</g>
</g>
<g>
	<g>
		<rect x="256.671" y="400.066" width="14.662" height="15.709"/>
	</g>
</g>
<g>
	<g>
		<rect x="208.495" y="463.951" width="96.351" height="15.709"/>
	</g>
</g>
<g>
</g>
<g>
</g>
<g>
</g>
<g>
</g>
<g>
</g>
<g>
</g>
<g>
</g>
<g>
</g>
<g>
</g>
<g>
</g>
<g>
</g>
<g>
</g>
<g>
</g>
<g>
</g>
<g>
</g>
</svg>
