<?xml version="1.0" encoding="iso-8859-1"?>
<!-- Generator: Adobe Illustrator 19.0.0, SVG Export Plug-In . SVG Version: 6.00 Build 0)  -->
<svg version="1.1" id="Layer_1" xmlns="http://www.w3.org/2000/svg" xmlns:xlink="http://www.w3.org/1999/xlink" x="0px" y="0px"
	 viewBox="0 0 512 512" style="enable-background:new 0 0 512 512;" xml:space="preserve">
<g>
	<g>
		<path d="M437.301,114.819c-37.727-37.657-87.908-58.395-141.3-58.395h-8c-8.912,0-15.967-7.309-15.967-16.294
			c0-8.985,6.955-16.294,16.359-16.294V8.163c-10.189,0-19.221,4.723-25.077,12.073V0h-15.673v18.99
			c-5.858-6.633-14.432-10.826-24.033-10.826v15.673c9.404,0,16.359,7.309,16.359,16.294c0,8.985-7.055,16.293-15.967,16.293h-8
			c-53.392,0-103.573,20.738-141.3,58.395c-37.748,37.676-58.537,87.815-58.537,141.18c0,53.365,20.788,103.504,58.536,141.18
			c37.727,37.657,87.909,58.395,141.3,58.395h24.326v6.566l-15.247,30.34l14.004,7.037l9.072-18.051l-0.006,30.53L263.823,512
			l0.006-30.565l9.087,18.083l14.004-7.037l-15.247-30.34v-6.566h24.326c53.392,0,103.573-20.738,141.3-58.395
			c37.748-37.677,58.536-87.815,58.536-141.18S475.049,152.495,437.301,114.819z M426.23,386.087
			c-34.769,34.702-81.018,53.814-130.229,53.814h-40h-40c-49.21,0-95.46-19.112-130.228-53.814
			c-34.78-34.716-53.935-80.915-53.935-130.087s19.155-95.372,53.934-130.087c34.769-34.702,81.018-53.814,130.229-53.814h8
			c17.554,0,31.64-14.34,31.64-31.968c0-0.142-0.008-0.283-0.01-0.424h0.74c-0.002,0.142-0.01,0.282-0.01,0.424
			c0,17.626,14.086,31.968,31.64,31.968h8c49.21,0,95.46,19.112,130.228,53.814c34.78,34.716,53.935,80.915,53.935,130.087
			S461.009,351.371,426.23,386.087z"/>
	</g>
</g>
<g>
	<g>
		<path d="M304.164,80.457c0,11.494-19.78,24.163-48.162,24.163c-28.384,0-48.163-12.669-48.163-24.163h-15.673
			c0,21.943,28.04,39.837,63.837,39.837c35.797,0,63.836-17.894,63.836-39.837H304.164z"/>
	</g>
</g>
<g>
	<g>
		<path d="M256.002,391.705c-35.796,0-63.837,17.894-63.837,39.837h15.673c0-10.449,19.78-24.163,48.163-24.163
			s48.162,13.714,48.162,24.163h15.673C319.837,409.599,291.798,391.705,256.002,391.705z"/>
	</g>
</g>
<g>
	<g>
		<path d="M152.002,124.051l-4.856-6.151c-13.614,10.746-25.546,23.401-35.462,37.618l12.855,8.966
			c9.036-12.955,19.909-24.488,32.317-34.281L152.002,124.051z"/>
	</g>
</g>
<g>
	<g>
		<path d="M95.838,255.999c0-26.636,6.669-53.006,19.286-76.261l-13.777-7.474c-13.857,25.541-21.182,54.497-21.182,83.735
			c0,29.249,7.329,58.213,21.196,83.761l13.776-7.476C102.512,309.024,95.838,282.645,95.838,255.999z"/>
	</g>
</g>
<g>
</g>
<g>
</g>
<g>
</g>
<g>
</g>
<g>
</g>
<g>
</g>
<g>
</g>
<g>
</g>
<g>
</g>
<g>
</g>
<g>
</g>
<g>
</g>
<g>
</g>
<g>
</g>
<g>
</g>
</svg>
