<?xml version="1.0" encoding="iso-8859-1"?>
<!-- Generator: Adobe Illustrator 19.0.0, SVG Export Plug-In . SVG Version: 6.00 Build 0)  -->
<svg version="1.1" id="Layer_1" xmlns="http://www.w3.org/2000/svg" xmlns:xlink="http://www.w3.org/1999/xlink" x="0px" y="0px"
	 viewBox="0 0 511.999 511.999" style="enable-background:new 0 0 511.999 511.999;" xml:space="preserve">
<g>
	<g>
		<rect x="75.521" y="227.955" width="16.628" height="15.589"/>
	</g>
</g>
<g>
	<g>
		<rect x="122.287" y="251.857" width="15.589" height="15.589"/>
	</g>
</g>
<g>
	<g>
		<rect x="137.875" y="267.446" width="15.589" height="15.589"/>
	</g>
</g>
<g>
	<g>
		<rect x="75.521" y="290.309" width="16.628" height="15.589"/>
	</g>
</g>
<g>
	<g>
		<rect x="208.543" y="298.623" width="15.589" height="15.589"/>
	</g>
</g>
<g>
	<g>
		<rect x="254.27" y="227.955" width="15.589" height="15.589"/>
	</g>
</g>
<g>
	<g>
		<polygon points="176.327,212.369 176.327,220.683 160.739,220.683 160.739,236.272 176.327,236.272 176.327,227.958 
			191.916,227.958 191.916,212.369 		"/>
	</g>
</g>
<g>
	<g>
		<rect x="285.447" y="314.211" width="15.589" height="15.589"/>
	</g>
</g>
<g>
	<g>
		<rect x="160.739" y="375.526" width="15.589" height="15.589"/>
	</g>
</g>
<g>
	<g>
		<rect x="146.189" y="391.115" width="14.549" height="15.589"/>
	</g>
</g>
<g>
	<g>
		<rect x="176.327" y="417.095" width="15.589" height="15.589"/>
	</g>
</g>
<g>
	<g>
		<rect x="43.305" y="267.446" width="15.589" height="15.589"/>
	</g>
</g>
<g>
	<g>
		<rect x="92.149" y="345.388" width="14.549" height="15.589"/>
	</g>
</g>
<g>
	<g>
		<rect x="75.521" y="383.84" width="16.628" height="15.589"/>
	</g>
</g>
<g>
	<g>
		<rect x="106.698" y="329.8" width="15.589" height="15.589"/>
	</g>
</g>
<g>
	<g>
		<path d="M339.013,337.079v-0.001c1.058-7.569,1.605-15.24,1.605-22.916c0-87.787-69.357-159.673-156.152-163.756V52.874
			l19.952-13.301l-8.646-12.97l-26.895,17.928v20.405c-3.825-2.408-8.317-4.609-13.443-6.562
			c-16.348-6.228-37.921-9.658-60.743-9.658c-47.596,0-85.443,31.737-87.031,33.088l-6.976,5.936l6.976,5.936
			c0.673,0.573,7.884,6.613,19.575,13.376c-10.274,9.068-19.757,18.611-20.306,19.165L0,133.203l8.388,5.145
			c1.555,0.953,34.097,20.601,73.701,20.599c5.673,0,11.497-0.404,17.39-1.323c22.549-3.518,43.335-10.232,58.528-18.906
			c4.129-2.357,7.755-4.826,10.868-7.374v19.062c-86.795,4.083-156.152,75.97-156.152,163.756
			c0,90.4,73.547,163.946,163.947,163.946c35.231,0,69.459-11.366,97.581-32.201c25.239,24.432,59.591,39.489,97.452,39.489
			c77.485,0,140.297-63.039,140.297-140.523v-7.794H339.013z M25.841,87.741c12.713-8.586,39.018-23.437,68.85-23.437
			c20.973,0,40.574,3.068,55.194,8.637c5.516,2.101,9.614,4.299,12.578,6.406h-31.862v15.589h33.436
			c-3.016,2.46-7.579,5.101-14.152,7.604c-14.619,5.569-34.221,8.637-55.194,8.637C64.859,111.177,38.55,96.324,25.841,87.741z
			 M150.279,125.18c-13.586,7.757-32.48,13.809-53.203,17.042c-4.992,0.779-9.943,1.121-14.804,1.121
			c-23.721-0.001-45.099-8.166-56.667-13.584c4.634-4.431,10.765-10.126,16.6-15.034c14.529,6.526,32.654,12.04,52.486,12.04
			c22.823,0,44.395-3.43,60.743-9.658c3.595-1.37,6.876-2.861,9.836-4.46C163.11,116.11,158.494,120.491,150.279,125.18z
			 M473.088,352.665c-1.615,21.914-10.044,42.31-24.221,58.708l-58.708-58.708H473.088z M378.978,363.531l58.831,58.831
			c-16.507,14.031-36.959,22.301-58.831,23.778V363.531z M353.564,352.666l-58.708,58.708
			c-14.177-16.399-22.608-36.794-24.221-58.708H353.564z M363.389,364.885v81.151c-21.36-1.721-41.31-9.934-57.476-23.675
			L363.389,364.885z M176.671,462.517c-33.422,0.001-64.294-11.112-89.126-29.83h11.878v-15.589H82.796v11.856
			c-25.533-20.919-43.983-50.171-51.165-83.563h11.674v-15.589H29.137c-0.541-5.141-0.824-10.359-0.824-15.642
			c0-59.817,35.588-111.472,86.699-134.924v10.268h15.589v-15.589h-2.329c12.835-4.442,26.459-7.174,40.605-7.91v16.223h-8.138
			v15.589h31.177V182.23h-7.451v-16.223c35.649,1.854,68.003,16.357,92.662,39.087h-7.269v15.589h15.589v-7.291
			c17.575,18.957,30.266,42.496,36.059,68.606h-4.882v15.589h7.473c0.608,5.444,0.931,10.972,0.931,16.575
			c0,7.686-0.596,15.365-1.765,22.916h-91.856v7.794c0,7.966,0.674,15.776,1.95,23.383h-1.95v15.589h5.484
			c5.402,18.746,14.596,35.892,26.704,50.542C238.412,452.596,207.981,462.517,176.671,462.517z M371.861,469.807
			c-66.27,0-120.655-51.87-124.695-117.141h7.364c1.868,28.674,13.998,55.201,34.299,75.38
			c22.01,21.878,51.656,33.927,83.032,33.927s60.864-12.049,82.874-33.927c20.299-20.179,32.298-46.706,34.144-75.38h7.677
			C492.515,417.936,438.131,469.807,371.861,469.807z"/>
	</g>
</g>
<g>
	<g>
		<rect x="333.252" y="417.095" width="15.589" height="15.589"/>
	</g>
</g>
<g>
	<g>
		<rect x="442.371" y="360.977" width="15.589" height="15.589"/>
	</g>
</g>
<g>
</g>
<g>
</g>
<g>
</g>
<g>
</g>
<g>
</g>
<g>
</g>
<g>
</g>
<g>
</g>
<g>
</g>
<g>
</g>
<g>
</g>
<g>
</g>
<g>
</g>
<g>
</g>
<g>
</g>
</svg>
