<?xml version="1.0" encoding="iso-8859-1"?>
<!-- Generator: Adobe Illustrator 19.0.0, SVG Export Plug-In . SVG Version: 6.00 Build 0)  -->
<svg version="1.1" id="Layer_1" xmlns="http://www.w3.org/2000/svg" xmlns:xlink="http://www.w3.org/1999/xlink" x="0px" y="0px"
	 viewBox="0 0 511.999 511.999" style="enable-background:new 0 0 511.999 511.999;" xml:space="preserve">
<g>
	<g>
		<path d="M469.152,392.302c1.803-3.684,2.819-7.821,2.819-12.192c0-7.852-3.274-14.95-8.521-20.015
			c5.247-5.065,8.521-12.163,8.521-20.015c0-7.852-3.274-14.949-8.52-20.014c5.247-5.065,8.52-12.163,8.52-20.015
			c0-7.724-3.207-14.714-8.364-19.736c5.617-5.184,9.196-12.501,9.209-20.469c0-0.007,0-0.015,0-0.022c0-0.008,0-0.016,0-0.022
			h0.022c-0.014-7.91-3.544-15.181-9.133-20.339c5.098-4.953,8.329-11.826,8.398-19.421l0.133-0.004
			c0-7.98-3.524-15.181-8.959-20.254c4.717-4.427,7.889-10.362,8.552-16.978c0.786-7.853-1.783-15.694-7.049-21.514
			c-5.269-5.823-12.794-9.162-20.643-9.162h-48.662c2.819-4.749,4.445-10.287,4.445-16.199c0-17.555-14.282-31.837-31.838-31.837
			c-9.578,0-18.176,4.258-24.017,10.973c-5.842-6.715-14.439-10.973-24.017-10.973c-5.715,0-11.08,1.521-15.721,4.17
			c-13.928-31.61-45.094-52.242-80.378-52.242c-48.462,0-87.889,39.439-87.889,87.916v8.192H69.005
			c-14.764,0-27.43,10.976-28.833,24.99c-0.786,7.854,1.783,15.696,7.049,21.516c0.424,0.469,0.868,0.915,1.321,1.351
			c-5.242,5.065-8.512,12.159-8.512,20.006c0,7.849,3.266,14.95,8.51,20.014c-5.243,5.065-8.51,12.166-8.51,20.015
			c0,7.852,3.274,14.949,8.52,20.014c-5.247,5.065-8.52,12.163-8.52,20.015c0,7.852,3.274,14.95,8.52,20.015
			c-5.247,5.065-8.52,12.162-8.52,20.014c0,7.852,3.274,14.95,8.521,20.015c-5.247,5.065-8.521,12.163-8.521,20.015
			c0,4.372,1.015,8.51,2.82,12.194H0v7.819c0,30.798,25.056,55.855,55.854,55.855h400.291c30.798,0,55.854-25.057,55.854-55.855
			v-7.819H469.152z M368.081,119.732c8.932,0,16.199,7.267,16.199,16.198c0,8.932-7.267,16.199-16.199,16.199
			c-8.931,0-16.198-7.267-16.198-16.199C351.884,126.999,359.151,119.732,368.081,119.732z M320.047,119.732
			c8.931,0,16.198,7.267,16.198,16.198c0,8.932-7.267,16.199-16.198,16.199c-8.931,0-16.198-7.267-16.198-16.199
			C303.849,126.999,311.115,119.732,320.047,119.732z M288.209,135.93c0,8.932-7.267,16.199-16.198,16.199
			c-8.931,0-16.198-7.266-16.198-16.199c0-8.931,7.267-16.198,16.198-16.198C280.943,119.732,288.209,126.999,288.209,135.93z
			 M151.697,143.937c0-2.746,0.169-5.452,0.468-8.12h16.213v-15.639h-12.652c9.847-28.215,36.7-48.518,68.22-48.518
			c26.306,0,49.82,13.946,62.514,35.915c-4.339-2.22-9.248-3.481-14.448-3.481c-17.555,0-31.837,14.281-31.837,31.837
			c0,5.911,1.625,11.45,4.445,16.199h-29.325v-7.972h-15.639v7.972h-47.959V143.937z M55.733,178.679
			c0.613-6.118,6.442-10.91,13.271-10.91h375.133c3.44,0,6.737,1.464,9.048,4.017c2.34,2.586,3.435,5.947,3.083,9.463
			c-0.612,6.118-6.441,10.911-13.271,10.911h-50.261c-17.906,0-32.473,14.567-32.473,32.473v7.37
			c0,8.931-7.267,16.198-16.198,16.198c-8.931,0-16.198-7.267-16.198-16.198v-7.37c0-17.906-14.567-32.473-32.473-32.473h-59.408
			c-19.762,0-35.84,16.078-35.84,35.84v24.017c0,5.597-2.237,10.801-6.298,14.657c-4.06,3.849-9.395,5.813-15,5.515
			c-10.534-0.552-19.103-10.313-19.103-21.758V228c0-19.762-16.078-35.84-35.84-35.84h-56.04c-3.44-0.001-6.737-1.465-9.047-4.017
			C56.476,185.556,55.38,182.194,55.733,178.679z M67.863,207.798h56.04c11.139,0,20.201,9.062,20.201,20.201v22.431
			c0,19.962,14.901,36.379,33.924,37.376c0.652,0.034,1.299,0.052,1.945,0.052c9.223-0.001,17.909-3.454,24.638-9.84
			c7.101-6.738,11.172-16.215,11.172-26v-24.017c0-11.139,9.062-20.201,20.201-20.201h59.408c9.281,0,16.834,7.552,16.834,16.834
			v7.37c0,17.555,14.281,31.837,31.837,31.837c17.555,0,31.837-14.281,31.837-31.837v-7.37c0-9.281,7.552-16.834,16.834-16.834
			h50.261c0.56,0,1.117-0.021,1.67-0.052v0.143c6.256,0,11.794,5.314,11.927,11.897l-0.216,0.004c0,6.7-5.377,11.947-12.241,11.947
			h-59.941v15.639h59.941c6.938,0,13.027,5.815,13.041,12.448c-0.014,6.583-6.223,12.575-13.041,12.575H216.338v15.639h227.798
			c6.839,0,12.195,5.278,12.195,12.014c0,6.725-5.47,12.195-12.195,12.195H67.863c-6.725-0.002-12.195-5.473-12.195-12.198
			c0-6.725,5.47-12.195,12.195-12.195h76.055v-15.639H67.863c-6.725,0-12.195-5.471-12.195-12.194
			c0-6.725,5.47-12.195,12.195-12.195h68.05v-15.639h-68.05c-6.725,0-12.195-5.471-12.195-12.194
			C55.668,213.269,61.139,207.798,67.863,207.798z M444.137,352.275H67.863c-6.725,0-12.195-5.471-12.195-12.195
			c0-6.724,5.47-12.194,12.195-12.194h376.273c6.725,0,12.195,5.471,12.195,12.194C456.332,346.804,450.861,352.275,444.137,352.275
			z M456.332,380.11c0,6.724-5.47,12.194-12.195,12.194H67.863c-6.725,0-12.195-5.471-12.195-12.194
			c0-6.725,5.47-12.195,12.195-12.195h376.273C450.861,367.915,456.332,373.385,456.332,380.11z M456.146,440.339H55.854
			c-19.501,0-35.804-13.951-39.453-32.396h51.461h376.273h51.461C491.95,426.388,475.647,440.339,456.146,440.339z"/>
	</g>
</g>
<g>
	<g>
		<rect x="224.679" y="231.737" width="79.237" height="15.639"/>
	</g>
</g>
<g>
	<g>
		<rect x="231.977" y="79.519" width="15.639" height="15.639"/>
	</g>
</g>
<g>
	<g>
		<rect x="191.316" y="87.859" width="16.682" height="15.639"/>
	</g>
</g>
<g>
	<g>
		<rect x="207.997" y="104.541" width="16.681" height="15.639"/>
	</g>
</g>
<g>
</g>
<g>
</g>
<g>
</g>
<g>
</g>
<g>
</g>
<g>
</g>
<g>
</g>
<g>
</g>
<g>
</g>
<g>
</g>
<g>
</g>
<g>
</g>
<g>
</g>
<g>
</g>
<g>
</g>
</svg>
