<?xml version="1.0" encoding="iso-8859-1"?>
<!-- Generator: Adobe Illustrator 19.0.0, SVG Export Plug-In . SVG Version: 6.00 Build 0)  -->
<svg version="1.1" id="Layer_1" xmlns="http://www.w3.org/2000/svg" xmlns:xlink="http://www.w3.org/1999/xlink" x="0px" y="0px"
	 viewBox="0 0 512.001 512.001" style="enable-background:new 0 0 512.001 512.001;" xml:space="preserve">
<g>
	<g>
		<path d="M406.693,347.739c-25.809-48.318-38.895-96.864-38.895-144.29v-36.591c14.255,0.822,24.034,1.032,24.202,1.037
			l12.112,0.247l-4.748-11.144c-0.088-0.206-8.899-20.845-20.278-43.884c-15.526-31.435-28.303-52.278-37.975-61.951
			c-21.056-21.055-53.282-24.288-77.774-9.707V0h-15.659v54.622c-0.658,0.761-1.295,1.534-1.91,2.318
			C188.9,62.124,144.2,110.069,144.2,168.265v35.185c0,47.426-13.086,95.972-38.894,144.29
			c-10.636,19.912-14.915,42.476-12.375,65.25c2.697,24.19,13.687,47.293,30.949,65.057c17.257,17.759,40.036,29.414,64.14,32.819
			c5.372,0.759,10.73,1.136,16.05,1.136c18.112,0,35.767-4.371,51.93-12.909c20.91,11.047,44.32,15.114,67.979,11.773
			c24.104-3.404,46.883-15.059,64.14-32.819c17.261-17.764,28.253-40.868,30.95-65.057
			C421.609,390.213,417.329,367.65,406.693,347.739z M253.984,72.762l41.047,33.583l9.916-12.119l-41.2-33.707
			c9.134-8.242,20.685-12.363,32.241-12.363c12.33-0.001,24.664,4.695,34.051,14.081c5.813,5.813,16.599,20.55,34.976,57.747
			c6.051,12.247,11.362,23.804,14.98,31.87c-43.291-1.777-105.054-8.517-118.055-21.517
			C246.367,114.763,243.725,91.098,253.984,72.762z M403.507,411.254c-4.764,42.719-39.13,78.09-81.717,84.105
			c-17.385,2.455-34.597,0.257-50.449-6.344l19.658-9.819l-6.998-14.009l-20.662,10.322V456.21H247.68v19.047l-20.167-10.084
			l-7.003,14.006l19.885,9.943c-15.779,6.515-32.896,8.68-50.183,6.238c-42.587-6.015-76.954-41.387-81.717-84.105
			c-2.187-19.616,1.488-39.028,10.625-56.137c27.034-50.611,40.74-101.64,40.74-151.667v-35.185
			c0-46.206,32.767-84.898,76.283-94.072c-8.317,22.637-3.421,49.073,14.722,67.216c10.512,10.512,36.937,17.886,80.788,22.545
			c7.049,0.75,13.977,1.359,20.487,1.857v37.639c0,50.028,13.707,101.055,40.742,151.667
			C402.02,372.225,405.693,391.637,403.507,411.254z"/>
	</g>
</g>
<g>
	<g>
		<path d="M159.861,392.528h-15.659c0,30.275,25.181,55.486,55.456,55.486v-15.659C177.733,432.355,159.861,414.451,159.861,392.528
			z"/>
	</g>
</g>
<g>
</g>
<g>
</g>
<g>
</g>
<g>
</g>
<g>
</g>
<g>
</g>
<g>
</g>
<g>
</g>
<g>
</g>
<g>
</g>
<g>
</g>
<g>
</g>
<g>
</g>
<g>
</g>
<g>
</g>
</svg>
