<?xml version="1.0" encoding="iso-8859-1"?>
<!-- Generator: Adobe Illustrator 19.0.0, SVG Export Plug-In . SVG Version: 6.00 Build 0)  -->
<svg version="1.1" id="Layer_1" xmlns="http://www.w3.org/2000/svg" xmlns:xlink="http://www.w3.org/1999/xlink" x="0px" y="0px"
	 viewBox="0 0 511.999 511.999" style="enable-background:new 0 0 511.999 511.999;" xml:space="preserve">
<g>
	<g>
		<path d="M310.678,126.373c19.38-14.1,32.012-36.939,32.012-62.685V38.807h-16.991c-14.491,0-28.061,4.008-39.676,10.96L255.878,0
			l-30.083,49.663c-11.574-6.886-25.077-10.856-39.495-10.856h-16.991v24.881c0,25.746,12.633,48.586,32.012,62.685
			c-35.899,5.195-63.572,36.157-63.572,73.471V437.75c0,40.941,33.309,74.249,74.25,74.249h88c40.941,0,74.249-33.308,74.249-74.249
			V199.845C374.249,162.53,346.577,131.568,310.678,126.373z M335.916,153.509l-24.462,24.462l-32.374-32.374l4.418-4.418H300
			C313.523,141.179,325.982,145.791,335.916,153.509z M268.059,308.152l-32.374-32.374l32.374-32.374l32.374,32.374L268.059,308.152
			z M311.453,286.798l32.374,32.374l-32.374,32.374l-32.374-32.374L311.453,286.798z M235.685,188.991l32.374-32.374l32.374,32.374
			l-32.374,32.374L235.685,188.991z M257.039,232.384l-32.374,32.374l-32.374-32.374l32.374-32.374L257.039,232.384z
			 M257.039,319.172l-32.374,32.374l-32.374-32.374l32.374-32.374L257.039,319.172z M257.038,405.96l-32.374,32.374l-32.374-32.374
			l32.374-32.374L257.038,405.96z M235.686,362.566l32.374-32.374l32.374,32.374L268.06,394.94L235.686,362.566z M311.453,373.586
			l36.319,36.319l-32.374,32.374l-36.319-36.319L311.453,373.586z M322.473,362.567l32.374-32.374l3.817,3.817v64.748
			L322.473,362.567z M354.847,308.152l-32.374-32.374l32.374-32.374l3.817,3.817v57.113L354.847,308.152z M311.453,264.759
			l-32.374-32.374l32.374-32.374l32.374,32.374L311.453,264.759z M325.7,54.391h1.406v9.297c0,32.848-25.718,59.79-58.074,61.776
			l23.204-17.402l-9.351-12.467l-18.728,14.047C267.489,78.625,293.814,54.391,325.7,54.391z M239.774,56.665l16.104-26.585
			l16.104,26.585v3.862c-6.529,6.29-11.969,13.701-15.982,21.935c-4.063-8.337-9.589-15.827-16.225-22.167V56.665z M184.893,63.688
			v-9.297h1.407c31.886,0,58.212,24.234,61.544,55.25l-18.728-14.047l-9.351,12.467l23.204,17.402
			C210.613,123.478,184.893,96.536,184.893,63.688z M212,141.18h40.622v-0.001l4.418,4.418l-32.374,32.374l-33.109-33.109
			C197.926,142.485,204.812,141.18,212,141.18z M177.261,152.607l36.383,36.384l-32.374,32.374l-27.62-27.62
			C155.4,176.903,164.304,162.16,177.261,152.607z M153.334,215.467l16.917,16.917l-16.917,16.917V215.467z M153.334,271.342
			l27.938-27.938l32.374,32.374l-32.374,32.374l-27.938-27.938V271.342z M153.334,302.255l16.917,16.917l-16.917,16.917V302.255z
			 M153.334,358.13l27.938-27.937l32.374,32.374l-32.374,32.374l-27.938-27.938V358.13z M153.334,389.043l16.917,16.917
			l-16.917,16.917V389.043z M153.736,444.516l27.535-27.535l32.374,32.374L177.7,485.3
			C164.681,475.883,155.669,461.266,153.736,444.516z M211.999,496.416c-6.982,0-13.68-1.231-19.896-3.479l32.562-32.562
			l36.041,36.041H211.999z M235.686,449.354l32.374-32.374l36.319,36.319l-32.374,32.374L235.686,449.354z M299.999,496.416h-16.698
			l32.096-32.096l20.098,20.098C325.632,491.938,313.331,496.416,299.999,496.416z M358.665,437.751
			c0,13.409-4.532,25.772-12.131,35.664l-20.115-20.116l32.246-32.246V437.751z M358.665,217.547l-3.817,3.817l-32.374-32.374
			l24.391-24.391c7.404,9.819,11.8,22.027,11.8,35.245V217.547z"/>
	</g>
</g>
<g>
</g>
<g>
</g>
<g>
</g>
<g>
</g>
<g>
</g>
<g>
</g>
<g>
</g>
<g>
</g>
<g>
</g>
<g>
</g>
<g>
</g>
<g>
</g>
<g>
</g>
<g>
</g>
<g>
</g>
</svg>
