<?xml version="1.0" encoding="iso-8859-1"?>
<!-- Generator: Adobe Illustrator 19.0.0, SVG Export Plug-In . SVG Version: 6.00 Build 0)  -->
<svg version="1.1" id="Layer_1" xmlns="http://www.w3.org/2000/svg" xmlns:xlink="http://www.w3.org/1999/xlink" x="0px" y="0px"
	 viewBox="0 0 512 512" style="enable-background:new 0 0 512 512;" xml:space="preserve">
<g>
	<g>
		<path d="M287.937,208.98V0h-63.739v208.98h-8.359v15.673h80.457V208.98H287.937z M272.263,208.98h-32.392V15.673h32.392V208.98z"
			/>
	</g>
</g>
<g>
	<g>
		<path d="M351.748,400.113c0-2.984-0.144-5.937-0.413-8.852l16.213-2.859l-2.721-15.434l-16.203,2.857
			c-1.515-5.773-3.558-11.335-6.073-16.632l14.265-8.236l-7.837-13.573l-14.288,8.249c-3.375-4.859-7.186-9.394-11.38-13.544
			l10.612-12.647l-12.006-10.076l-10.603,12.636c-4.797-3.407-9.922-6.379-15.315-8.869l5.634-15.478l-14.729-5.361l-5.629,15.464
			c-5.604-1.535-11.41-2.574-17.371-3.064v-32.344c29.087,1.879,56.175,14.097,76.973,34.895l11.082-11.083
			c-23.76-23.759-54.779-37.614-88.056-39.513v-7.964h40.751v-15.673h-96.131v15.673h39.706v7.955
			c-33.327,1.869-64.398,15.73-88.189,39.521l11.082,11.083c20.83-20.83,47.969-33.053,77.106-34.903v32.34
			c-6.007,0.485-11.859,1.529-17.504,3.075l-5.629-15.464l-14.729,5.361l5.633,15.478c-5.393,2.49-10.518,5.463-15.315,8.869
			l-10.603-12.636l-12.006,10.076l10.612,12.647c-4.193,4.15-8.005,8.685-11.38,13.544l-14.288-8.249l-7.837,13.573l14.265,8.236
			c-2.514,5.297-4.558,10.859-6.073,16.632l-16.203-2.857l-2.721,15.434l16.213,2.859c-0.269,2.915-0.413,5.867-0.413,8.852
			s0.144,5.937,0.413,8.854l-16.213,2.858l2.721,15.434l16.203-2.857c1.515,5.773,3.558,11.335,6.073,16.632l-14.265,8.236
			l7.837,13.573l14.288-8.249c3.375,4.86,7.186,9.394,11.38,13.544l-10.612,12.647l12.006,10.076l10.603-12.636
			c4.797,3.407,9.922,6.379,15.315,8.869l-5.633,15.477l14.729,5.361l5.629-15.463c5.646,1.546,11.497,2.59,17.504,3.075V512h15.673
			v-16.468c5.961-0.49,11.768-1.529,17.371-3.064l5.629,15.463l14.729-5.361l-5.633-15.477c5.393-2.49,10.518-5.463,15.315-8.869
			l10.603,12.636l12.006-10.076l-10.612-12.647c4.193-4.15,8.005-8.685,11.38-13.544l14.288,8.249l7.837-13.573l-14.265-8.236
			c2.514-5.297,4.558-10.859,6.073-16.632l16.203,2.857l2.721-15.434l-16.213-2.859C351.603,406.05,351.748,403.099,351.748,400.113
			z M263.904,360.783c18.347,3.681,32.211,19.915,32.211,39.329c0,22.119-17.995,40.116-40.115,40.116
			c-22.118,0-40.115-17.996-40.115-40.116c0-19.461,13.932-35.723,32.345-39.352v8.503c-13.798,3.477-24.042,15.988-24.042,30.849
			c0,17.541,14.271,31.812,31.812,31.812c17.542,0,31.813-14.271,31.813-31.812c0-14.814-10.178-27.294-23.909-30.817V360.783z
			 M263.904,399.151v-13.094c4.909,2.771,8.236,8.029,8.236,14.056c0,8.899-7.24,16.138-16.139,16.138
			c-8.899,0-16.138-7.24-16.138-16.138c0-6.082,3.385-11.387,8.369-14.137v13.175H263.904z M256,480.188
			c-44.153,0-80.074-35.921-80.074-80.075c0-41.532,31.784-75.77,72.304-79.69v24.455c-27.095,3.794-48.018,27.111-48.018,55.234
			c0,30.762,25.026,55.789,55.788,55.789s55.788-25.026,55.788-55.789c0-28.077-20.854-51.366-47.885-55.218v-24.462
			c40.456,3.983,72.17,38.194,72.17,79.68C336.074,444.267,300.154,480.188,256,480.188z"/>
	</g>
</g>
<g>
	<g>
		<rect x="247.182" y="32.392" width="17.763" height="15.673"/>
	</g>
</g>
<g>
	<g>
		<rect x="247.182" y="55.38" width="17.763" height="15.674"/>
	</g>
</g>
<g>
	<g>
		<rect x="247.182" y="80.457" width="17.763" height="15.673"/>
	</g>
</g>
<g>
</g>
<g>
</g>
<g>
</g>
<g>
</g>
<g>
</g>
<g>
</g>
<g>
</g>
<g>
</g>
<g>
</g>
<g>
</g>
<g>
</g>
<g>
</g>
<g>
</g>
<g>
</g>
<g>
</g>
</svg>
