<?xml version="1.0" encoding="iso-8859-1"?>
<!-- Generator: Adobe Illustrator 19.0.0, SVG Export Plug-In . SVG Version: 6.00 Build 0)  -->
<svg version="1.1" id="Layer_1" xmlns="http://www.w3.org/2000/svg" xmlns:xlink="http://www.w3.org/1999/xlink" x="0px" y="0px"
	 viewBox="0 0 511.999 511.999" style="enable-background:new 0 0 511.999 511.999;" xml:space="preserve">
<g>
	<g>
		<path d="M399.141,168.091h-15.071v0.131c-13.097-5.244-27.383-8.136-42.331-8.136h-26.236c-2.774-1.358-5.643-2.547-8.587-3.577
			c21.544-7.766,36.991-28.407,36.991-52.594v-7.863h-39.881c-16.026,0-30.487,6.79-40.688,17.632v-65.28
			c0-13.374,11.301-24.607,24.679-24.607c13.319,0,24.155,10.9,24.155,24.219c0,21.99,17.89,40.01,39.881,40.01
			c21.992,0,39.882-18.652,39.882-39.621h-15.727c0,12.582-10.835,23.895-24.155,23.895s-24.155-11.095-24.155-24.414
			c0-21.991-17.89-39.882-39.881-39.882c-21.902,0-40.406,18.501-40.406,40.399v30.62C231.198,55.467,203.92,40.02,173.097,40.02
			H96.053v37.023c0,38.183,23.703,70.933,57.164,84.315c-8.796,1.321-17.264,3.651-25.288,6.863v-0.131h-15.071
			C50.628,168.091,0,218.72,0,280.951v94.176c0,62.231,50.628,112.859,112.859,112.859h15.071v-0.131
			c13.097,5.244,27.383,8.136,42.331,8.136h26.236c10.463,5.121,22.21,8.004,34.621,8.004h49.764c12.412,0,24.16-2.884,34.621-8.004
			h26.236c14.949,0,29.233-2.891,42.331-8.136v0.131h15.071c62.231,0,112.859-50.628,112.859-112.86V280.95
			C512,218.72,461.372,168.091,399.141,168.091z M304.026,111.779h23.381c-3.665,18.395-19.934,32.3-39.39,32.3h-3.629l15.679-9.407
			l-8.092-13.485l-24.848,14.908C273.288,121.807,287.506,111.779,304.026,111.779z M111.78,77.044V55.748h61.317
			c38.422,0,70.174,29.033,74.514,66.31v18.381l-30.076-30.076l-11.12,11.12l30.601,30.601h-5.898H186.82
			C145.442,152.083,111.78,118.42,111.78,77.044z M15.727,375.128v-94.176c0-49.009,36.487-89.65,83.721-96.202
			c-26.431,20.94-43.418,53.306-43.418,89.568v107.445c0,36.262,16.986,68.628,43.418,89.568
			C52.214,464.777,15.727,424.136,15.727,375.128z M170.26,480.264c-54.315-0.001-98.502-44.189-98.502-98.503V274.317
			c0-54.315,44.189-98.502,98.502-98.502h4.468c-13.993,14.265-22.645,33.789-22.645,55.303v193.843
			c0,21.515,8.651,41.038,22.645,55.303H170.26z M280.883,488.268h-49.764c-34.908,0-63.307-28.4-63.307-63.307V231.118
			c0-34.908,28.4-63.307,63.307-63.307h32.746h17.019c34.908,0,63.307,28.4,63.307,63.307v193.843
			C344.19,459.869,315.79,488.268,280.883,488.268z M341.74,480.264h-4.468v-0.001c13.993-14.265,22.645-33.79,22.645-55.303
			V231.118c0-21.513-8.651-41.037-22.645-55.303h4.468c54.315,0,98.502,44.189,98.502,98.502v107.445
			C440.242,436.076,396.053,480.264,341.74,480.264z M412.551,471.329c26.431-20.94,43.418-53.307,43.418-89.568V274.317
			c0-36.261-16.986-68.628-43.418-89.568c47.234,6.553,83.721,47.193,83.721,96.202v94.177h0.001
			C496.273,424.137,459.786,464.778,412.551,471.329z"/>
	</g>
</g>
<g>
	<g>
		<rect x="207.774" y="304.233" width="15.727" height="112.186"/>
	</g>
</g>
<g>
	<g>
		<rect x="207.774" y="264.391" width="15.727" height="24.115"/>
	</g>
</g>
<g>
</g>
<g>
</g>
<g>
</g>
<g>
</g>
<g>
</g>
<g>
</g>
<g>
</g>
<g>
</g>
<g>
</g>
<g>
</g>
<g>
</g>
<g>
</g>
<g>
</g>
<g>
</g>
<g>
</g>
</svg>
