<?xml version="1.0" encoding="iso-8859-1"?>
<!-- Generator: Adobe Illustrator 19.0.0, SVG Export Plug-In . SVG Version: 6.00 Build 0)  -->
<svg version="1.1" id="Layer_1" xmlns="http://www.w3.org/2000/svg" xmlns:xlink="http://www.w3.org/1999/xlink" x="0px" y="0px"
	 viewBox="0 0 512 512" style="enable-background:new 0 0 512 512;" xml:space="preserve">
<g>
	<g>
		<path d="M326.069,383.468c43.64-53.41,65.768-96.296,65.768-127.468c0-54.565-32.344-101.71-78.863-123.293
			c6.147-2.323,11.912-5.941,16.852-10.882c17.203-17.203,21.553-74.789,21.993-81.298l0.604-8.951l-8.951,0.604
			c-6.314,0.426-60.671,4.532-79.636,20.475V0h-15.673v52.657c-18.963-15.943-73.322-20.049-79.636-20.476l-8.951-0.604l0.604,8.951
			c0.439,6.51,4.79,64.094,21.993,81.298c4.94,4.94,10.705,8.559,16.851,10.882c-11.232,5.211-21.636,11.912-30.958,19.848h-0.361
			v0.305c-29.083,24.933-47.543,61.92-47.543,103.14c0,65.158,99.077,166.896,124.652,192.071l-19.251,18.241l10.78,11.378
			l10.773-10.208V512h15.673v-46.125l11.666,11.666l11.083-11.082l-18.387-18.387C277.91,437.435,302.119,412.78,326.069,383.468z
			 M273.257,65.257c8.612-8.612,39.571-14.336,62.141-16.653c-2.31,22.564-8.031,53.514-16.654,62.138
			c-9.135,9.134-22.438,11.608-33.839,7.435l16.637-16.637l-11.083-11.082l-18.685,18.685
			C260.746,96.523,261.235,77.279,273.257,65.257z M193.258,110.744c-8.612-8.612-14.337-39.568-16.653-62.138
			c22.57,2.315,53.526,8.04,62.137,16.651c12.541,12.54,12.541,32.946,0,45.485c-0.831,0.831-1.698,1.603-2.593,2.324
			l-22.607-22.607l-11.082,11.082l18.26,18.26C210.991,121.231,200.73,118.213,193.258,110.744z M256,437.061
			c-4.622-4.567-11.912-11.909-20.658-21.192h20.135v-15.673H220.93c-7.357-8.199-15.173-17.23-22.965-26.77
			c-10.913-13.362-20.43-26.057-28.536-38.013h134.114v-15.673H160.392v1.704c-16.181-26.384-24.555-48.555-24.555-65.443h24.555
			v-15.673h-23.533c1.087-8.306,3.029-16.345,5.728-24.033h49.152V200.62h-42.355c6.343-12.162,14.705-23.107,24.641-32.392h106.531
			v-15.673h-85.629c17.909-10.614,38.791-16.718,61.074-16.718c46.297,0,86.557,26.322,106.616,64.784h-59.073v15.673h65.87
			c4.367,12.436,6.75,25.796,6.75,39.706c0,7.378-1.61,15.772-4.76,25.078h-35.469v15.673h29.106
			c-8.671,18.569-22.333,39.989-40.719,63.739h-43.767v15.673h31.231C288.856,403.944,266.085,427.096,256,437.061z"/>
	</g>
</g>
<g>
	<g>
		<rect x="239.804" y="360.49" width="25.078" height="15.673"/>
	</g>
</g>
<g>
	<g>
		<rect x="239.804" y="281.078" width="80.457" height="15.673"/>
	</g>
</g>
<g>
	<g>
		<rect x="199.053" y="240.327" width="129.567" height="15.673"/>
	</g>
</g>
<g>
</g>
<g>
</g>
<g>
</g>
<g>
</g>
<g>
</g>
<g>
</g>
<g>
</g>
<g>
</g>
<g>
</g>
<g>
</g>
<g>
</g>
<g>
</g>
<g>
</g>
<g>
</g>
<g>
</g>
</svg>
