<?xml version="1.0" encoding="iso-8859-1"?>
<!-- Generator: Adobe Illustrator 19.0.0, SVG Export Plug-In . SVG Version: 6.00 Build 0)  -->
<svg version="1.1" id="Layer_1" xmlns="http://www.w3.org/2000/svg" xmlns:xlink="http://www.w3.org/1999/xlink" x="0px" y="0px"
	 viewBox="0 0 512.001 512.001" style="enable-background:new 0 0 512.001 512.001;" xml:space="preserve">
<g>
	<g>
		<path d="M480.155,223.961h-23.879c-11.847-23.504-36.154-39.668-64.163-39.668l-273.407-0.643v0.022
			c-27.26,0.446-51.547,16-63.385,40.289H31.846c-16.529,0-30.153,12.657-31.696,28.784C0.053,253.583,0,254.426,0,255.278h0.014
			C0.01,255.452,0,255.625,0,255.8c0,17.555,14.287,31.839,31.846,31.839h23.743c12.108,24.32,36.764,39.746,64.29,39.758
			l272.215,0.954c28.438,0,53.07-16.639,64.715-40.712h23.346c17.559,0,31.845-14.284,31.845-31.839
			S497.715,223.961,480.155,223.961z M31.846,271.98c-8.925,0-16.188-7.258-16.188-16.18c0-0.512,0.03-1.017,0.077-1.516
			c0.523-3.796,3.954-7.188,8.105-7.188c4.512,0,8.182,4.006,8.182,8.182h15.658c0-5.82-2.31-11.374-6.101-15.658h78.327
			c8.925,0,16.188,7.258,16.188,16.18c0,8.922-7.262,16.18-16.188,16.18H31.846z M119.908,311.739
			c-18.766-0.001-35.825-9.161-46.175-24.1h46.174c17.56,0,31.846-14.284,31.846-31.839s-14.286-31.839-31.846-31.839H73.363
			c10.283-15.227,27.467-24.605,46.406-24.649h0.265c30.939,0.069,56.088,25.257,56.088,56.212
			C176.123,286.521,150.904,311.739,119.908,311.739z M392.121,312.692l-227.707-0.799c16.65-13.175,27.365-33.539,27.365-56.371
			c0-22.679-10.569-42.924-27.029-56.106l227.343,0.536c30.997,0,56.216,25.288,56.216,56.37S423.091,312.692,392.121,312.692z
			 M480.155,271.98h-17.918c1.121-5.045,1.731-10.28,1.731-15.658c0-5.751-0.695-11.338-1.972-16.702h18.16
			c8.925,0,16.187,7.258,16.187,16.18C496.342,264.722,489.08,271.98,480.155,271.98z"/>
	</g>
</g>
<g>
	<g>
		<rect x="200.25" y="209.343" width="88.731" height="15.658"/>
	</g>
</g>
<g>
	<g>
		<rect x="303.596" y="209.343" width="25.053" height="15.658"/>
	</g>
</g>
<g>
</g>
<g>
</g>
<g>
</g>
<g>
</g>
<g>
</g>
<g>
</g>
<g>
</g>
<g>
</g>
<g>
</g>
<g>
</g>
<g>
</g>
<g>
</g>
<g>
</g>
<g>
</g>
<g>
</g>
</svg>
