<?xml version="1.0" encoding="iso-8859-1"?>
<!-- Generator: Adobe Illustrator 19.0.0, SVG Export Plug-In . SVG Version: 6.00 Build 0)  -->
<svg version="1.1" id="Layer_1" xmlns="http://www.w3.org/2000/svg" xmlns:xlink="http://www.w3.org/1999/xlink" x="0px" y="0px"
	 viewBox="0 0 512 512" style="enable-background:new 0 0 512 512;" xml:space="preserve">
<g>
	<g>
		<rect x="152.69" y="235.829" width="15.74" height="16.789"/>
	</g>
</g>
<g>
	<g>
		<rect x="131.51" y="243.483" transform="matrix(0.766 -0.6428 0.6428 0.766 -129.0478 148.4382)" width="15.74" height="16.008"/>
	</g>
</g>
<g>
	<g>
		
			<rect x="120.54" y="262.443" transform="matrix(0.1737 -0.9848 0.9848 0.1737 -160.2305 349.9287)" width="15.74" height="16.009"/>
	</g>
</g>
<g>
	<g>
		<rect x="124.215" y="284.162" transform="matrix(0.866 -0.5 0.5 0.866 -128.3041 105.2376)" width="16.007" height="15.74"/>
	</g>
</g>
<g>
	<g>
		<rect x="179.808" y="284.025" transform="matrix(0.5 -0.866 0.866 0.5 -159.0651 308.5441)" width="15.74" height="16.007"/>
	</g>
</g>
<g>
	<g>
		<rect x="183.467" y="262.591" transform="matrix(0.9848 -0.1737 0.1737 0.9848 -44.068 37.3695)" width="16.009" height="15.74"/>
	</g>
</g>
<g>
	<g>
		
			<rect x="172.515" y="243.599" transform="matrix(0.6428 -0.766 0.766 0.6428 -128.1523 228.1018)" width="16.008" height="15.74"/>
	</g>
</g>
<g>
	<g>
		<rect x="359.41" y="235.829" width="15.74" height="16.789"/>
	</g>
</g>
<g>
	<g>
		<rect x="339.626" y="243.465" transform="matrix(0.766 -0.6428 0.6428 0.766 -80.3415 282.2154)" width="15.74" height="16.008"/>
	</g>
</g>
<g>
	<g>
		
			<rect x="328.647" y="262.439" transform="matrix(0.1737 -0.9848 0.9848 0.1737 11.7321 554.8695)" width="15.74" height="16.009"/>
	</g>
</g>
<g>
	<g>
		<rect x="332.321" y="284.157" transform="matrix(0.866 -0.5 0.5 0.866 -100.4199 209.2927)" width="16.008" height="15.74"/>
	</g>
</g>
<g>
	<g>
		<rect x="387.92" y="284.019" transform="matrix(0.5 -0.866 0.866 0.5 -55.0066 488.7701)" width="15.74" height="16.008"/>
	</g>
</g>
<g>
	<g>
		<rect x="391.577" y="262.6" transform="matrix(0.9848 -0.1737 0.1737 0.9848 -40.906 73.5181)" width="16.009" height="15.74"/>
	</g>
</g>
<g>
	<g>
		<rect x="380.621" y="243.606" transform="matrix(0.6428 -0.766 0.766 0.6428 -53.8257 387.5166)" width="16.008" height="15.74"/>
	</g>
</g>
<g>
	<g>
		<path d="M493.506,316.166l10.897-10.897c7.749-7.749,7.749-20.359,0-28.11l-5.66-5.659c-0.782-0.782-1.211-1.82-1.211-2.924
			c0-1.105,0.43-2.144,1.211-2.926c7.75-7.749,7.75-20.359,0-28.11l-16.979-16.979c-3.755-3.755-8.745-5.822-14.055-5.822
			c-5.31,0-10.3,2.067-14.055,5.822c-1.613,1.613-4.237,1.613-5.85,0c-10.87-10.87-28.558-10.87-39.429,0l-3.366,3.366
			c-10.441-7.429-23.189-11.817-36.951-11.817c-15.202,0-29.174,5.344-40.155,14.243v-2.37c0-15.373-12.507-27.88-27.881-27.88
			c-2.28,0-4.135-1.856-4.135-4.137c0-10.96-8.916-19.877-19.877-19.877h-24.012c-10.96,0-19.877,8.916-19.877,19.877
			c0,2.28-1.856,4.137-4.136,4.137h-8.004c-10.959,0-19.876,8.916-19.876,19.876v10.375c-10.981-8.897-24.953-14.243-40.155-14.243
			c-16.824,0-32.139,6.546-43.562,17.211l-8.76-8.761c-5.267-5.267-12.267-8.166-19.715-8.166s-14.448,2.9-19.715,8.166
			c-1.612,1.614-4.236,1.614-5.85,0c-7.749-7.748-20.359-7.749-28.11,0L17.258,237.54c-7.75,7.749-7.75,20.359,0,28.11
			c0.782,0.782,1.211,1.82,1.211,2.926c0,1.105-0.43,2.143-1.211,2.924l-5.66,5.66c-7.749,7.749-7.749,20.359,0,28.11l10.898,10.896
			H0v7.87c0,97.023,78.935,175.958,175.958,175.958h160.084c97.023,0,175.958-78.935,175.958-175.958v-7.87H493.506z
			 M419.506,231.691c4.734-4.734,12.435-4.734,17.169,0c3.755,3.755,8.745,5.822,14.055,5.822s10.3-2.067,14.055-5.822
			c1.613-1.613,4.236-1.613,5.849,0l16.979,16.979c1.613,1.613,1.613,4.237,0,5.85c-3.755,3.755-5.822,8.745-5.822,14.055
			c0,5.309,2.067,10.3,5.822,14.055l5.66,5.659c1.613,1.613,1.613,4.237,0,5.85l-22.027,22.027h-13.524l22.774-22.774
			l-33.769-33.769l-14.809,14.809c-0.372-15.19-6.061-29.075-15.285-39.87L419.506,231.691z M435.218,293.392l11.509-11.509
			l11.509,11.509l-11.509,11.509L435.218,293.392z M435.732,316.166h-17.899c2.729-3.366,5.096-6.993,7.072-10.827L435.732,316.166z
			 M368.059,227.85c12.85,0,24.533,5.069,33.177,13.3l1.682,1.682c8.231,8.645,13.3,20.327,13.3,33.177
			c0,6.054-1.121,11.895-3.195,17.317l-0.064,0.064l0.029,0.029c-3.535,9.182-9.863,17.121-18.37,22.743h-19.87l14.396-5.24
			l-5.475-15.042l-14.792,5.384l5.423,14.899h-12.48l5.423-14.899l-14.792-5.384l-5.475,15.042l14.396,5.24h-19.871
			c-13.555-8.959-21.601-23.807-21.601-40.155C319.899,249.455,341.504,227.85,368.059,227.85z M312.185,243.993h0.61
			c-0.205,0.352-0.411,0.702-0.61,1.059V243.993z M215.848,245.089v-9.266h7.146v-15.74h-7.146v-4.105
			c-0.002-2.28,1.853-4.135,4.133-4.135h8.004c10.96,0,19.877-8.916,19.877-19.877c0-2.28,1.856-4.136,4.136-4.136h24.012
			c2.28,0,4.137,1.856,4.137,4.136c0,10.96,8.916,19.877,19.876,19.877c6.694,0,12.141,5.446,12.141,12.14v11.841h-16.767v15.74
			h13.634c-3.132,7.535-4.87,15.791-4.87,24.447c0,14.966,5.075,28.992,14.125,40.155h-36.654l22.774-22.774l-33.769-33.769
			l-33.769,33.769l22.774,22.774h-49.915c9.051-11.163,14.125-25.189,14.125-40.155C223.852,264.799,220.94,254.258,215.848,245.089
			z M270.636,304.901l-11.509-11.509l11.509-11.509l11.509,11.509L270.636,304.901z M159.95,227.85
			c26.556,0,48.16,21.604,48.16,48.16c0,16.348-8.045,31.196-21.601,40.155h-19.871l14.396-5.24l-5.475-15.042l-14.792,5.384
			l5.423,14.899h-12.48l5.423-14.899l-14.792-5.384l-5.475,15.042l14.396,5.24H133.39c-13.555-8.959-21.601-23.807-21.601-40.155
			C111.791,249.455,133.394,227.85,159.95,227.85z M110.175,316.165H84.273l16.325-16.325
			C102.949,305.732,106.172,311.228,110.175,316.165z M73.278,304.901l-11.509-11.509l11.509-11.509l11.509,11.509L73.278,304.901z
			 M22.729,288.29l5.66-5.66c3.755-3.755,5.822-8.745,5.822-14.055c0-5.31-2.067-10.3-5.822-14.055c-1.613-1.613-1.613-4.237,0-5.85
			l16.979-16.979c1.613-1.612,4.237-1.613,5.85,0c3.755,3.755,8.745,5.822,14.055,5.822s10.3-2.067,14.055-5.822
			c2.294-2.293,5.342-3.556,8.585-3.556c3.242,0,6.292,1.263,8.585,3.556l9.753,9.753c-6.442,9.973-10.2,21.836-10.2,34.566
			c0,2.27,0.122,4.517,0.352,6.737l-23.124-23.124l-33.77,33.769l22.774,22.775H44.755l-22.027-22.027
			C21.116,292.527,21.116,289.902,22.729,288.29z M336.042,484.254H175.958c-65.629,0-122.168-39.661-146.904-96.275h453.892
			C458.21,444.592,401.671,484.254,336.042,484.254z M488.842,372.239H23.158c-0.875-2.767-1.678-5.566-2.404-8.395h470.492
			C490.52,366.673,489.717,369.472,488.842,372.239z M494.451,348.104H17.549c-0.805-5.319-1.353-10.722-1.618-16.198H496.07
			C495.803,337.382,495.256,342.784,494.451,348.104z"/>
	</g>
</g>
<g>
	<g>
		<rect x="47.751" y="244.223" width="15.74" height="15.74"/>
	</g>
</g>
<g>
	<g>
		<rect x="455.949" y="244.223" width="15.74" height="15.74"/>
	</g>
</g>
<g>
	<g>
		<rect x="255.525" y="220.088" width="16.789" height="15.74"/>
	</g>
</g>
<g>
	<g>
		<rect x="232.44" y="252.618" width="15.74" height="15.74"/>
	</g>
</g>
<g>
	<g>
		<path d="M192.101,12.006v95.782H512V12.006H192.101z M368.849,92.048H207.841v-22.55l13.415,2.683
			c12.433,2.486,25.04,2.486,37.471,0l5.636-1.127c10.384-2.077,20.914-2.077,31.299,0l5.636,1.127
			c6.216,1.243,12.477,1.865,18.736,1.865c6.259,0,12.52-0.621,18.735-1.865l5.636-1.127c8.106-1.621,16.299-1.959,24.444-1.049
			V92.048z M368.85,54.176c-9.179-0.855-18.402-0.383-27.531,1.443l-5.636,1.127c-10.384,2.078-20.914,2.077-31.299,0l-5.636-1.127
			c-12.432-2.486-25.039-2.486-37.471,0l-5.636,1.127c-10.384,2.078-20.914,2.077-31.299,0l-16.502-3.3V27.746H368.85V54.176z
			 M448.6,92.048h-24.135V67.93h-15.74v24.118H384.59V27.746h64.01V92.048z M496.26,92.048h-31.92V70.213
			c4.567,0.886,10.284,1.625,16.661,1.625c4.785,0,9.944-0.429,15.258-1.511V92.048z M496.26,54.165
			c-12.765,3.396-25.102,1.549-31.92-0.068V27.746h31.92V54.165z"/>
	</g>
</g>
<g>
	<g>
		<polygon points="183.116,43.795 183.116,28.055 151.636,28.055 151.636,19.66 135.896,19.66 135.896,52.19 76.697,52.19 
			58.044,70.443 69.054,81.693 83.117,67.93 135.896,67.93 135.896,100.459 151.636,100.459 151.636,92.065 183.116,92.065 
			183.116,76.324 151.636,76.324 151.636,43.795 		"/>
	</g>
</g>
<g>
	<g>
		<rect x="47.751" y="100.463" width="15.74" height="15.74"/>
	</g>
</g>
<g>
	<g>
		<rect x="63.496" y="123.549" width="15.74" height="32.53"/>
	</g>
</g>
<g>
	<g>
		<rect x="23.616" y="163.424" width="15.74" height="24.135"/>
	</g>
</g>
<g>
	<g>
		<rect x="87.631" y="180.213" width="15.74" height="15.74"/>
	</g>
</g>
<g>
</g>
<g>
</g>
<g>
</g>
<g>
</g>
<g>
</g>
<g>
</g>
<g>
</g>
<g>
</g>
<g>
</g>
<g>
</g>
<g>
</g>
<g>
</g>
<g>
</g>
<g>
</g>
<g>
</g>
</svg>
