<?xml version="1.0" encoding="iso-8859-1"?>
<!-- Generator: Adobe Illustrator 19.0.0, SVG Export Plug-In . SVG Version: 6.00 Build 0)  -->
<svg version="1.1" id="Layer_1" xmlns="http://www.w3.org/2000/svg" xmlns:xlink="http://www.w3.org/1999/xlink" x="0px" y="0px"
	 viewBox="0 0 511.998 511.998" style="enable-background:new 0 0 511.998 511.998;" xml:space="preserve">
<g>
	<g>
		<path d="M391.898,472.391v-79.469h24.32v-15.587h-24.32V272.226H368.42v-8.155h7.274v-15.587h-80.012v15.587h8.313v8.155h-23.762
			v105.108h-16.763V95.065c22.836-3.597,40.356-23.408,40.356-47.239C303.825,21.455,282.37,0,255.999,0
			s-47.826,21.455-47.826,47.826c0,23.604,17.193,43.256,39.711,47.124v282.385h-16.117V272.226h-25.448v-8.155h9.352v-15.587
			h-78.973v15.587h6.235v8.155H120.1v105.108H96.172v15.587h23.927v79.47H80.066v39.607h351.866v-39.607H391.898z M319.581,264.072
			h33.252v8.155h-33.252V264.072z M295.819,287.812h80.493v40.683h-80.493V287.812z M295.819,367.983h8.176v-15.587h-8.176v-8.313
			h14.41v8.313h15.587v-8.313h50.496v33.252h-16.205v-9.352H344.52v9.352h-48.701V367.983z M295.819,463.581h8.176v-15.587h-8.176
			v-23.9h8.176v-15.587h-8.176v-15.587h80.493v46.76h-8.931v15.587h8.931v17.124h-24.518v-7.771h-15.587v7.771h-40.388V463.581z
			 M223.758,47.826c0-17.777,14.462-32.24,32.24-32.24s32.24,14.462,32.24,32.24c0,17.777-14.462,32.24-32.24,32.24
			S223.758,65.604,223.758,47.826z M231.766,392.922h16.117v71.699h15.587v-71.699h16.763v79.47h-48.466V392.922z M158.519,264.072
			h32.213v8.155h-32.213V264.072z M135.686,287.812h80.493v40.683h-80.493V287.812z M135.685,344.083h80.493v8.313h-8.822v15.587
			h8.822v9.352h-80.493V344.083z M135.684,392.922h0.001h80.493v79.47h-16.096v-7.771h-15.587v7.771h-48.811V392.922z
			 M95.652,496.413v-8.433h24.446h111.666h48.466h111.666h24.446v8.433H95.652z"/>
	</g>
</g>
<g>
	<g>
		<path d="M215.176,193.128c-10.609-10.692-24.387-16.582-39.251-16.582s-28.9,5.89-39.508,16.582
			c-10.531,10.616-16.345,24.555-16.345,39.25v7.793h111.185v-7.793C231.257,217.683,225.708,203.743,215.176,193.128z
			 M136.48,224.583c1.111-5.409,3.355-10.458,6.452-14.895v6.584h15.587v-20.022c2.947-1.459,6.083-2.565,9.352-3.261v14.968h15.587
			v-15.081c2.508,0.498,4.941,1.235,7.274,2.19v21.202h15.587v-9.959c4.463,5.169,7.665,11.438,9.068,18.272H136.48z"/>
	</g>
</g>
<g>
	<g>
		<path d="M375.76,193.128c-10.609-10.692-24.865-16.582-39.729-16.582s-28.927,5.89-39.536,16.582
			c-10.531,10.615-16.399,24.554-16.399,39.25v7.793h112.224v-7.793C392.319,217.683,386.292,203.743,375.76,193.128z
			 M296.612,224.585c1.219-5.936,3.802-11.442,7.383-16.175v7.862h15.587v-20.468c2.64-1.225,5.425-2.167,8.313-2.79v14.946h15.587
			v-15.102c3.262,0.636,6.399,1.678,9.352,3.076v20.34h15.587v-7.49c3.435,4.648,5.911,10.022,7.099,15.803H296.612z"/>
	</g>
</g>
<g>
	<g>
		<path d="M255.998,24.02c-13.127,0-23.807,10.679-23.807,23.806c0,13.127,10.68,23.807,23.807,23.807
			c13.127,0,23.807-10.68,23.807-23.807C279.805,34.699,269.125,24.02,255.998,24.02z M255.999,56.047
			c-4.533,0-8.22-3.687-8.22-8.22c0-4.532,3.688-8.219,8.22-8.219s8.22,3.688,8.22,8.219
			C264.219,52.359,260.532,56.047,255.999,56.047z"/>
	</g>
</g>
<g>
	<g>
		<rect x="145.007" y="352.394" width="14.548" height="15.587"/>
	</g>
</g>
<g>
	<g>
		<rect x="167.868" y="400.194" width="16.626" height="15.587"/>
	</g>
</g>
<g>
	<g>
		<rect x="184.493" y="416.819" width="14.548" height="15.587"/>
	</g>
</g>
<g>
	<g>
		<rect x="145.007" y="447.993" width="14.548" height="15.587"/>
	</g>
</g>
<g>
	<g>
		<rect x="327.891" y="425.132" width="16.626" height="15.587"/>
	</g>
</g>
<g>
	<g>
		<rect x="344.517" y="408.506" width="16.626" height="15.587"/>
	</g>
</g>
<g>
</g>
<g>
</g>
<g>
</g>
<g>
</g>
<g>
</g>
<g>
</g>
<g>
</g>
<g>
</g>
<g>
</g>
<g>
</g>
<g>
</g>
<g>
</g>
<g>
</g>
<g>
</g>
<g>
</g>
</svg>
