<?xml version="1.0" encoding="iso-8859-1"?>
<!-- Generator: Adobe Illustrator 19.0.0, SVG Export Plug-In . SVG Version: 6.00 Build 0)  -->
<svg version="1.1" id="Layer_1" xmlns="http://www.w3.org/2000/svg" xmlns:xlink="http://www.w3.org/1999/xlink" x="0px" y="0px"
	 viewBox="0 0 512 512" style="enable-background:new 0 0 512 512;" xml:space="preserve">
<g>
	<g>
		<path d="M279.466,266.643V163.836H512v-15.73h-73.188c0.422-0.41,0.849-0.812,1.26-1.236
			c10.613-10.937,16.207-25.365,15.75-40.624c-0.897-29.867-26.854-54.165-57.866-54.165h-74.008c-2.282,0-4.138-1.857-4.138-4.138
			s1.857-4.138,4.138-4.138h20.005v-15.73h-20.005c-10.955,0-19.868,8.912-19.868,19.868c0,10.955,8.913,19.868,19.868,19.868
			h74.008c22.593,0,41.498,17.454,42.142,38.907c0.329,10.97-3.689,21.34-11.314,29.198c-7.629,7.862-17.863,12.192-28.816,12.192
			H147.926c-39.747,0-78.633,16.414-106.688,45.033c-27.333,27.885-41.969,64.191-41.21,102.232
			c0.754,37.803,16.058,73.168,43.096,99.581c25.319,24.734,58.314,39.06,93.571,40.78v0.176h0.564
			c3.835,27.099,27.172,48.014,55.313,48.014h63.881v-7.865c0-20.389-10.982-38.254-27.335-48.014
			c16.354-9.759,27.335-27.625,27.335-48.013v-7.865h-63.881c-28.027,0-51.294,20.743-55.271,47.682
			c-15.382-1.547-29.475-8.496-40.22-19.96c-12.255-13.074-18.363-30.174-17.198-48.15c2.173-33.572,31.376-59.869,66.482-59.869
			h189.585c26.399,0,47.875-21.476,47.875-47.875h-15.73c0,17.725-14.42,32.145-32.145,32.145H208.158v-62.98h15.73v-15.73h-15.73
			v-33.596h55.579v57.715h-24.119v15.73h24.119v29.362H279.466z M239.953,468.194h-47.378c-16.51,0-30.719-10.021-36.879-24.296
			l24.83,14.898l8.092-13.488l-15.663-9.398h27.623C220.024,435.911,236.286,449.809,239.953,468.194z M192.574,387.898h47.378
			c-3.667,18.384-19.929,32.283-39.375,32.283h-27.622l15.663-9.397l-8.092-13.488l-24.831,14.899
			C161.854,397.919,176.065,387.898,192.574,387.898z M15.754,295.06c-0.242-12.141,1.296-24.087,4.486-35.566l32.516,32.516
			l-14.444,14.444l11.123,11.122l14.443-14.443l11.807,11.807c-6.346,10.23-10.368,21.968-11.386,34.549H29.107
			C20.748,332.77,16.138,314.271,15.754,295.06z M54.116,383.702c-5.853-5.717-11.081-11.909-15.663-18.485h26.08
			c1.535,13.593,6.494,26.428,14.55,37.536C70.104,397.507,61.721,391.132,54.116,383.702z M85.357,302.366l-22.359-22.359
			l10.443-10.443l-11.123-11.123l-10.443,10.443l-25.807-25.807c6.191-14.186,15.07-27.362,26.404-38.924
			c11.222-11.448,24.378-20.706,38.668-27.455l4.402,16.51l-13.219,13.219l11.123,11.122l6.779-6.78l18.653,69.952
			C105.93,285.174,94.439,292.682,85.357,302.366z M192.428,179.606h-24.119v15.73h24.119v80.807h-46.061
			c-4.139,0-8.21,0.303-12.194,0.879l-4.724-17.718h6.353v-15.73h-10.547l-19.413-72.8c13.515-4.54,27.738-6.936,42.087-6.936h44.5
			V179.606z"/>
	</g>
</g>
<g>
	<g>
		<rect x="327.704" y="190.089" width="16.778" height="15.73"/>
	</g>
</g>
<g>
	<g>
		<path d="M437.199,237.282h17.392v-15.73h-95.427v15.73h40.534c24.854,2.407,43.418,23.036,43.418,48.05
			c0,26.702-21.453,48.426-48.003,48.426h-24.007c-17.574,0-32.075,14.174-32.075,31.596c0,17.421,14.889,31.595,31.667,31.595
			v-15.73c-8.389,0-15.937-6.969-15.937-15.865c0-8.896,7.293-15.866,16.345-15.866h24.007c35.224,0,63.733-28.78,63.733-64.156
			C458.846,266.205,450.505,249.023,437.199,237.282z"/>
	</g>
</g>
<g>
	<g>
		<rect x="399.013" y="172.262" width="105.914" height="15.73"/>
	</g>
</g>
<g>
	<g>
		<rect x="384.331" y="197.43" width="95.428" height="15.73"/>
	</g>
</g>
<g>
	<g>
		<rect x="143.141" y="243.571" width="32.508" height="15.73"/>
	</g>
</g>
<g>
</g>
<g>
</g>
<g>
</g>
<g>
</g>
<g>
</g>
<g>
</g>
<g>
</g>
<g>
</g>
<g>
</g>
<g>
</g>
<g>
</g>
<g>
</g>
<g>
</g>
<g>
</g>
<g>
</g>
</svg>
