<?xml version="1.0" encoding="iso-8859-1"?>
<!-- Generator: Adobe Illustrator 19.0.0, SVG Export Plug-In . SVG Version: 6.00 Build 0)  -->
<svg version="1.1" id="Layer_1" xmlns="http://www.w3.org/2000/svg" xmlns:xlink="http://www.w3.org/1999/xlink" x="0px" y="0px"
	 viewBox="0 0 511.999 511.999" style="enable-background:new 0 0 511.999 511.999;" xml:space="preserve">
<g>
	<g>
		<rect x="214.9" y="256.258" width="81.751" height="15.721"/>
	</g>
</g>
<g>
	<g>
		<rect x="183.458" y="329.624" width="89.088" height="15.721"/>
	</g>
</g>
<g>
	<g>
		<rect x="183.458" y="353.73" width="31.443" height="15.721"/>
	</g>
</g>
<g>
	<g>
		<rect x="183.458" y="377.836" width="16.769" height="15.721"/>
	</g>
</g>
<g>
	<g>
		<path d="M271.5,112.064v15.721c23.058,0,40.675,18.418,40.675,40.428h15.721C327.897,136.77,302.943,112.064,271.5,112.064z"/>
	</g>
</g>
<g>
	<g>
		<path d="M334.854,256.145h-3.097c-2.377,0-3.322-1.857-3.556-2.427c-0.334-0.816-0.685-2.393,0.722-3.779
			c19.984-19.677,30.99-45.951,30.99-73.982c0-28.537-11.333-55.146-31.913-74.927c-7.558-7.264-15.995-13.238-25.059-17.842V55.019
			h17.818V39.298h-8.872V0H200.113v39.298h-8.267v15.721h15.721v29.3c-32.461,17.518-55.042,51.873-55.474,90.45
			c-0.315,28.21,10.504,54.724,30.466,74.654c1.897,1.894,1.249,3.963,1.005,4.553c-0.409,0.988-1.323,2.166-3.354,2.166h-3.065
			c-13.818,0-25.06,11.242-25.06,25.059v230.797h207.829V281.203C359.914,267.385,348.672,256.145,334.854,256.145z M287.22,15.721
			h8.945v23.577h-8.945V15.721z M240.056,15.721h31.443v23.577h-31.443V15.721z M287.22,55.019v21.763
			c-11.276-3.535-23.217-5.141-35.437-4.658c-9.888,0.392-19.455,2.242-28.496,5.324V55.019H287.22z M215.834,15.721h8.502v23.577
			h-8.502V15.721z M344.193,496.279H167.806v-23.072h176.386V496.279z M167.806,457.486v-8.385h76.844
			c1.064,2.87,2.31,5.67,3.731,8.385H167.806z M344.193,457.486h-77.336c-7.201-9.705-11.001-21.202-11.001-33.391
			c0-30.975,25.2-56.175,56.175-56.175c11.681,0,22.721,3.495,32.162,10.122V457.486z M344.193,359.8
			c-9.927-4.955-20.965-7.601-32.162-7.601c-39.644,0-71.897,32.252-71.897,71.897c0,3.115,0.209,6.216,0.61,9.285h-72.939V313.898
			h176.387V359.8z M344.193,298.176H167.806v-16.973c0-4.958,3.888-9.016,8.775-9.309l31.738,0.08l0.442-15.196l-9.689,0.116
			c1.531-6.606-0.434-13.629-5.407-18.595c-16.94-16.914-26.122-39.412-25.854-63.353c0.517-46.206,38.466-85.284,84.594-87.112
			c24.267-0.951,47.244,7.751,64.7,24.528c17.467,16.789,27.086,39.373,27.086,63.593c0,23.784-9.341,46.08-26.3,62.779
			c-4.77,4.698-6.653,11.171-5.289,17.518h-8.613v15.721h32.211c4.512,0.656,7.992,4.539,7.992,9.229V298.176z"/>
	</g>
</g>
<g>
</g>
<g>
</g>
<g>
</g>
<g>
</g>
<g>
</g>
<g>
</g>
<g>
</g>
<g>
</g>
<g>
</g>
<g>
</g>
<g>
</g>
<g>
</g>
<g>
</g>
<g>
</g>
<g>
</g>
</svg>
