<?xml version="1.0" encoding="iso-8859-1"?>
<!-- Generator: Adobe Illustrator 19.0.0, SVG Export Plug-In . SVG Version: 6.00 Build 0)  -->
<svg version="1.1" id="Layer_1" xmlns="http://www.w3.org/2000/svg" xmlns:xlink="http://www.w3.org/1999/xlink" x="0px" y="0px"
	 viewBox="0 0 512 512" style="enable-background:new 0 0 512 512;" xml:space="preserve">
<g>
	<g>
		<rect x="155.437" y="223.821" width="16.743" height="15.696"/>
	</g>
</g>
<g>
	<g>
		<rect x="139.74" y="256.26" width="15.696" height="15.696"/>
	</g>
</g>
<g>
	<g>
		<rect x="179.504" y="263.585" width="16.743" height="15.696"/>
	</g>
</g>
<g>
	<g>
		<rect x="236.012" y="321.139" width="15.696" height="15.696"/>
	</g>
</g>
<g>
	<g>
		<rect x="251.708" y="256.26" width="16.743" height="15.696"/>
	</g>
</g>
<g>
	<g>
		<rect x="196.247" y="423.689" width="15.696" height="15.696"/>
	</g>
</g>
<g>
	<g>
		<path d="M337.485,0c-29.349,0-53.227,23.877-53.227,53.227v2.651h15.696v-2.651c0-20.694,16.836-37.53,37.53-37.53h58.686V0
			H337.485z"/>
	</g>
</g>
<g>
	<g>
		<path d="M299.955,104.063V63.882h0h-15.696v40.181H115.829L132.479,512h223.197l16.65-407.937H299.955z M143.601,399.624h11.83
			v-15.696h-12.47l-3.486-85.396c2.119-1.346,4.884-2.478,8.256-2.478c9.012,0,16.071,7.019,16.071,15.98v152.468H146.25
			L143.601,399.624z M340.607,496.304h-193.06l-0.657-16.106h194.374L340.607,496.304z M260.075,407.995v56.507h-31.393V312.034
			c0-9.065,6.895-16.166,15.696-16.166c8.802,0,15.696,7.101,15.696,16.166v80.265h-8.371v15.696H260.075z M347.975,315.782v-4.057
			h-15.696v15.696H347.5l-5.595,137.081h-17.998v-32.439h8.371v-15.696h-8.371V312.035c0-8.812,7.26-15.98,16.182-15.98
			c2.989,0,5.956,0.924,8.584,2.624L347.975,315.782z M349.362,281.8c-2.999-0.944-6.121-1.442-9.273-1.442
			c-17.578,0-31.878,14.21-31.878,31.676v152.468h-32.439V312.034c0-17.867-13.79-31.863-31.393-31.863
			s-31.393,13.996-31.393,31.863v152.468h-33.486V359.859h16.743v-15.696h-16.743v-32.129c0-17.466-14.251-31.676-31.768-31.676
			c-3.033,0-6.041,0.47-8.942,1.36l-3.004-73.59h39.372l36.9,36.9l36.9-36.9h35.3v231.985h15.696V208.127h32.324v8.371h15.696
			v-8.371h4.394L349.362,281.8z M189.194,199.966l22.863-22.863l22.863,22.863l-22.863,22.863L189.194,199.966z M353.01,192.43
			h-53.055v-56.504h-15.696v56.504h-34.676l-37.525-37.525l-37.525,37.525h-39.387l-2.966-72.67h152.079v8.162h15.696v-8.162h56.02
			L353.01,192.43z"/>
	</g>
</g>
<g>
	<g>
		<rect x="323.912" y="240.564" width="16.743" height="15.696"/>
	</g>
</g>
<g>
</g>
<g>
</g>
<g>
</g>
<g>
</g>
<g>
</g>
<g>
</g>
<g>
</g>
<g>
</g>
<g>
</g>
<g>
</g>
<g>
</g>
<g>
</g>
<g>
</g>
<g>
</g>
<g>
</g>
</svg>
