<?xml version="1.0" encoding="iso-8859-1"?>
<!-- Generator: Adobe Illustrator 19.0.0, SVG Export Plug-In . SVG Version: 6.00 Build 0)  -->
<svg version="1.1" id="Layer_1" xmlns="http://www.w3.org/2000/svg" xmlns:xlink="http://www.w3.org/1999/xlink" x="0px" y="0px"
	 viewBox="0 0 511.999 511.999" style="enable-background:new 0 0 511.999 511.999;" xml:space="preserve">
<g>
	<g>
		<path d="M375.437,95.897h-7.553v-0.008c-4.178,0-8.152-3.66-8.152-8.159c0-4.504,3.654-8.166,8.147-8.166h8.36V63.895H273.439
			l6.704-39.43v-0.649C280.143,10.685,269.252,0,256.119,0s-24.024,10.685-24.024,23.816v0.649l6.608,39.43H135.997v15.668h8.122
			c4.494,0,8.265,3.663,8.265,8.166c0,4.503-3.853,8.166-8.031,8.166h-7.791c-8.965,0-16.258,7.293-16.258,16.258v350.755
			c0,8.965,7.293,16.258,16.258,16.258h7.791c4.178,0,8.031,3.931,8.031,8.582s-3.849,8.582-8.265,8.582h-8.122v15.668H376.24
			v-15.668h-8.36c-4.417,0-8.183-3.931-8.183-8.582c0-4.159,2.964-8.582,7.143-8.582h8.598c8.965,0,16.258-7.293,16.258-16.258
			V112.155C391.695,103.189,384.402,95.897,375.437,95.897z M256.019,15.668c4.312,0,7.872,3.365,8.153,7.606l-1.54,9.285h-13.211
			l-1.542-9.285C248.157,19.034,251.708,15.668,256.019,15.668z M260.034,48.227l-2.598,15.668h-2.812l-2.602-15.668H260.034z
			 M345.502,79.563c-0.933,2.549-1.438,5.299-1.438,8.166s0.488,5.617,1.392,8.166H166.559c0.961-2.549,1.494-5.299,1.494-8.166
			s-0.626-5.617-1.557-8.166H345.502z M135.97,143.28h8.382v-15.668h-8.382v-15.457c0.001-0.325,0.265-0.59,0.591-0.59h238.875
			c0.326,0,0.59,0.265,0.59,0.59v15.457h-8.144v15.668h8.144v50.589L135.97,268.886V143.28z M295.58,275.379l80.447-25.139v23.542h0
			l-86.394,26.998c3.898-6.151,6.166-13.433,6.166-21.238C295.798,278.135,295.723,276.747,295.58,275.379z M290.897,260.427
			c-4.281-7.786-11.09-13.993-19.317-17.506l104.446-32.64v23.544h0L290.897,260.427z M216.419,283.703l-80.447,25.14v-23.542
			h-0.001l86.395-26.999c-3.898,6.151-6.166,13.434-6.166,21.24C216.201,280.947,216.276,282.334,216.419,283.703z M221.102,298.654
			c4.282,7.786,11.09,13.993,19.316,17.506L135.971,348.8v-23.542L221.102,298.654z M231.867,279.541
			c0-13.307,10.826-24.132,24.132-24.132c13.306,0,24.133,10.825,24.133,24.132c0,13.307-10.827,24.132-24.133,24.132
			C242.692,303.673,231.867,292.849,231.867,279.541z M166.395,496.332c0.995-2.669,1.657-5.562,1.657-8.582
			c0-3.021-0.575-5.912-1.601-8.582h179.028c-0.936,2.657-1.451,5.545-1.451,8.582c0,3.02,0.579,5.913,1.574,8.582H166.395z
			 M376.028,431.572h-8.144v15.668h8.144v15.671c-0.001,0.324-0.266,0.589-0.591,0.589H136.561c-0.326,0-0.59-0.265-0.59-0.59
			v-15.671h8.382v-15.668h-8.382v-66.356l240.057-75.017V431.572z"/>
	</g>
</g>
<g>
	<g>
		<rect x="152.71" y="127.611" width="16.713" height="15.668"/>
	</g>
</g>
<g>
	<g>
		<rect x="176.734" y="127.611" width="15.668" height="15.668"/>
	</g>
</g>
<g>
	<g>
		<rect x="200.758" y="127.611" width="14.623" height="15.668"/>
	</g>
</g>
<g>
	<g>
		<rect x="223.738" y="127.611" width="15.668" height="15.668"/>
	</g>
</g>
<g>
	<g>
		<rect x="248.807" y="127.611" width="14.623" height="15.668"/>
	</g>
</g>
<g>
	<g>
		<rect x="272.831" y="127.611" width="14.623" height="15.668"/>
	</g>
</g>
<g>
	<g>
		<rect x="296.855" y="127.611" width="14.623" height="15.668"/>
	</g>
</g>
<g>
	<g>
		<rect x="318.791" y="127.611" width="16.713" height="15.668"/>
	</g>
</g>
<g>
	<g>
		<rect x="343.859" y="127.611" width="15.668" height="15.668"/>
	</g>
</g>
<g>
	<g>
		<rect x="152.71" y="431.57" width="16.713" height="15.668"/>
	</g>
</g>
<g>
	<g>
		<rect x="176.734" y="431.57" width="15.668" height="15.668"/>
	</g>
</g>
<g>
	<g>
		<rect x="200.758" y="431.57" width="14.623" height="15.668"/>
	</g>
</g>
<g>
	<g>
		<rect x="223.738" y="431.57" width="15.668" height="15.668"/>
	</g>
</g>
<g>
	<g>
		<rect x="248.807" y="431.57" width="14.623" height="15.668"/>
	</g>
</g>
<g>
	<g>
		<rect x="272.831" y="431.57" width="14.623" height="15.668"/>
	</g>
</g>
<g>
	<g>
		<rect x="296.855" y="431.57" width="14.623" height="15.668"/>
	</g>
</g>
<g>
	<g>
		<rect x="318.791" y="431.57" width="16.713" height="15.668"/>
	</g>
</g>
<g>
	<g>
		<rect x="343.859" y="431.57" width="15.668" height="15.668"/>
	</g>
</g>
<g>
	<g>
		<rect x="279.098" y="343.829" width="80.429" height="15.668"/>
	</g>
</g>
<g>
	<g>
		<rect x="304.167" y="368.898" width="55.36" height="15.668"/>
	</g>
</g>
<g>
	<g>
		<rect x="272.831" y="391.878" width="14.623" height="15.668"/>
	</g>
</g>
<g>
	<g>
		<rect x="296.855" y="391.878" width="14.623" height="15.668"/>
	</g>
</g>
<g>
	<g>
		<rect x="318.791" y="391.878" width="16.713" height="15.668"/>
	</g>
</g>
<g>
	<g>
		<rect x="343.859" y="391.878" width="15.668" height="15.668"/>
	</g>
</g>
<g>
</g>
<g>
</g>
<g>
</g>
<g>
</g>
<g>
</g>
<g>
</g>
<g>
</g>
<g>
</g>
<g>
</g>
<g>
</g>
<g>
</g>
<g>
</g>
<g>
</g>
<g>
</g>
<g>
</g>
</svg>
