<?xml version="1.0" encoding="iso-8859-1"?>
<!-- Generator: Adobe Illustrator 19.0.0, SVG Export Plug-In . SVG Version: 6.00 Build 0)  -->
<svg version="1.1" id="Layer_1" xmlns="http://www.w3.org/2000/svg" xmlns:xlink="http://www.w3.org/1999/xlink" x="0px" y="0px"
	 viewBox="0 0 511.999 511.999" style="enable-background:new 0 0 511.999 511.999;" xml:space="preserve">
<g>
	<g>
		<path d="M424.114,76.053H163.58c-42.118,0-82.246,15.795-112.995,44.473c-30.532,28.476-48.36,66.571-50.376,107.473H0L0.1,270.34
			c-1.518,43.804,14.369,85.252,44.741,116.723c30.422,31.523,71.296,48.883,115.094,48.883
			c76.713,0,142.721-54.708,156.952-130.083c1.533-8.121,8.659-14.016,16.944-14.016h90.284c48.458,0,87.884-39.425,87.885-87.885
			v-40.027C511.999,115.477,472.574,76.053,424.114,76.053z M183.964,418.268v-6.19h-15.66v7.959
			c-2.773,0.161-5.562,0.251-8.37,0.251c-39.509,0-76.382-15.661-103.826-44.099c-16.762-17.369-28.623-38.112-34.999-60.648
			c6.499,11.287,14.432,21.86,23.731,31.495c10.444,10.822,22.12,19.974,34.723,27.329v13.701h15.66v-5.711
			c20.087,8.888,42.003,13.565,64.71,13.565c58.482,0,110.736-31.797,138.579-80.303
			C283.292,369.253,238.329,409.083,183.964,418.268z M424.114,276.19h-15.69v-16.536h-15.66v16.535h-58.933
			c-8.174,0-15.752,3.016-21.574,8.068c1.885-5.984,3.442-12.127,4.63-18.419c1.533-8.121,8.659-14.016,16.944-14.016h90.284
			c2.807,0,5.58-0.146,8.322-0.405v8.237h15.66v-11.186c19.312-5.487,35.927-17.417,47.374-33.321
			C490.078,249.68,460.135,276.19,424.114,276.19z M424.114,236.163H333.83c-15.807,0-29.405,11.26-32.334,26.771
			c-12.835,67.984-72.37,117.327-141.563,117.327c-39.509,0-76.382-15.661-103.826-44.099
			c-25.621-26.548-39.809-60.971-40.424-97.644l-0.01-4.373c0.015-1.14,0.039-2.282,0.079-3.426
			c1.337-37.545,17.5-72.612,45.513-98.741c27.839-25.965,64.176-40.265,102.314-40.265h260.535c39.824,0,72.225,32.4,72.225,72.225
			S463.94,236.163,424.114,236.163z"/>
	</g>
</g>
<g>
	<g>
		<path d="M159.934,116.08c-66.118,0-119.907,53.79-119.907,119.907s53.79,119.907,119.907,119.907s119.907-53.789,119.907-119.907
			C279.841,169.869,226.052,116.08,159.934,116.08z M199.623,292.018v15.66h35.921c-19.009,20.039-45.875,32.555-75.61,32.555
			c-43.175,0-80.301-26.384-96.11-63.875h56.454v-15.66H58.654c-1.935-7.925-2.967-16.2-2.967-24.712
			c0-17.447,4.316-33.903,11.925-48.369h44.316v-15.66H77.726c19.094-24.461,48.845-40.218,82.208-40.218
			c37.022,0,69.594,19.403,88.094,48.57h-24.393v15.66h32.553c5.145,12.329,7.992,25.845,7.992,40.017
			c0,20.714-6.074,40.035-16.533,56.279v-0.247H199.623z"/>
	</g>
</g>
<g>
	<g>
		<path d="M400.098,116.081c-26.389,0-47.858,21.469-47.858,47.857s21.47,47.857,47.858,47.857s47.857-21.469,47.857-47.857
			S426.487,116.081,400.098,116.081z M400.098,196.133c-17.754,0-32.198-14.444-32.198-32.197s14.444-32.197,32.198-32.197
			c17.753,0,32.197,14.444,32.197,32.197S417.851,196.133,400.098,196.133z"/>
	</g>
</g>
<g>
	<g>
		<path d="M338.814,127.689c-5.318-7.379-13.585-11.61-22.68-11.61h-25.931c-10.011,0-19.019,5.151-24.096,13.78
			c-5.076,8.628-5.204,19.003-0.343,27.754l18.175,32.714c4.613,8.305,13.381,13.463,22.881,13.463
			c11.285,0,21.263-7.193,24.832-17.898l11.005-33.015C345.533,144.248,344.132,135.068,338.814,127.689z M327.801,147.925
			l-5.227,15.682h-18.551v15.66h13.331l-0.557,1.674c-1.433,4.3-5.442,7.19-9.975,7.19c-3.816,0-7.338-2.072-9.191-5.409
			l-15.26-27.467h13.302v-15.66h-16.918c0.239-0.611,0.513-1.213,0.854-1.793c2.233-3.796,6.195-6.063,10.598-6.063h25.931
			c4.001,0,7.636,1.861,9.976,5.107C328.45,140.092,329.066,144.13,327.801,147.925z"/>
	</g>
</g>
<g>
	<g>
		<rect x="111.927" y="187.618" width="24.012" height="15.66"/>
	</g>
</g>
<g>
	<g>
		<rect x="87.915" y="228.334" width="72.036" height="15.66"/>
	</g>
</g>
<g>
	<g>
		<rect x="159.951" y="260.698" width="24.012" height="15.66"/>
	</g>
</g>
<g>
	<g>
		<rect x="175.611" y="156.298" width="24.012" height="15.66"/>
	</g>
</g>
<g>
	<g>
		<rect x="135.939" y="139.594" width="24.012" height="15.66"/>
	</g>
</g>
<g>
	<g>
		<rect x="103.575" y="300.37" width="40.716" height="15.66"/>
	</g>
</g>
<g>
	<g>
		<rect x="144.291" y="316.03" width="31.32" height="15.66"/>
	</g>
</g>
<g>
	<g>
		<rect x="207.975" y="228.334" width="15.66" height="15.66"/>
	</g>
</g>
<g>
	<g>
		<rect x="223.635" y="252.346" width="16.704" height="15.66"/>
	</g>
</g>
<g>
	<g>
		<path d="M400.098,140.097c-13.147,0-23.842,10.695-23.842,23.841s10.695,23.841,23.842,23.841
			c13.146,0,23.841-10.695,23.841-23.841S413.244,140.097,400.098,140.097z"/>
	</g>
</g>
<g>
</g>
<g>
</g>
<g>
</g>
<g>
</g>
<g>
</g>
<g>
</g>
<g>
</g>
<g>
</g>
<g>
</g>
<g>
</g>
<g>
</g>
<g>
</g>
<g>
</g>
<g>
</g>
<g>
</g>
</svg>
