<?xml version="1.0" encoding="iso-8859-1"?>
<!-- Generator: Adobe Illustrator 19.0.0, SVG Export Plug-In . SVG Version: 6.00 Build 0)  -->
<svg version="1.1" id="Layer_1" xmlns="http://www.w3.org/2000/svg" xmlns:xlink="http://www.w3.org/1999/xlink" x="0px" y="0px"
	 viewBox="0 0 512 512" style="enable-background:new 0 0 512 512;" xml:space="preserve">
<g>
	<g>
		<rect x="223.6" y="441.555" width="16.725" height="15.68"/>
	</g>
</g>
<g>
	<g>
		<rect x="271.684" y="441.555" width="16.725" height="15.68"/>
	</g>
</g>
<g>
	<g>
		<rect x="223.6" y="378.837" width="16.725" height="15.679"/>
	</g>
</g>
<g>
	<g>
		<rect x="271.684" y="378.837" width="16.725" height="15.679"/>
	</g>
</g>
<g>
	<g>
		<rect x="223.6" y="314.029" width="16.725" height="15.679"/>
	</g>
</g>
<g>
	<g>
		<rect x="177.607" y="314.029" width="15.68" height="15.679"/>
	</g>
</g>
<g>
	<g>
		<rect x="271.684" y="314.029" width="16.725" height="15.679"/>
	</g>
</g>
<g>
	<g>
		<rect x="318.722" y="314.029" width="15.68" height="15.679"/>
	</g>
</g>
<g>
	<g>
		<rect x="223.6" y="251.311" width="16.725" height="15.68"/>
	</g>
</g>
<g>
	<g>
		<rect x="177.607" y="251.311" width="15.68" height="15.68"/>
	</g>
</g>
<g>
	<g>
		<rect x="271.684" y="251.311" width="16.725" height="15.68"/>
	</g>
</g>
<g>
	<g>
		<rect x="318.722" y="251.311" width="15.68" height="15.68"/>
	</g>
</g>
<g>
	<g>
		<rect x="223.6" y="187.548" width="16.725" height="15.68"/>
	</g>
</g>
<g>
	<g>
		<rect x="177.607" y="187.548" width="15.68" height="15.68"/>
	</g>
</g>
<g>
	<g>
		<rect x="130.569" y="187.548" width="14.634" height="15.68"/>
	</g>
</g>
<g>
	<g>
		<rect x="366.806" y="187.548" width="14.634" height="15.68"/>
	</g>
</g>
<g>
	<g>
		<rect x="271.684" y="187.548" width="16.725" height="15.68"/>
	</g>
</g>
<g>
	<g>
		<rect x="318.722" y="187.548" width="15.68" height="15.68"/>
	</g>
</g>
<g>
	<g>
		<rect x="248.687" y="409.151" width="14.634" height="15.68"/>
	</g>
</g>
<g>
	<g>
		<rect x="248.687" y="346.433" width="14.634" height="15.68"/>
	</g>
</g>
<g>
	<g>
		<rect x="295.726" y="346.433" width="15.68" height="15.68"/>
	</g>
</g>
<g>
	<g>
		<rect x="200.604" y="346.433" width="15.68" height="15.68"/>
	</g>
</g>
<g>
	<g>
		<rect x="248.687" y="283.715" width="14.634" height="15.679"/>
	</g>
</g>
<g>
	<g>
		<rect x="295.726" y="283.715" width="15.68" height="15.679"/>
	</g>
</g>
<g>
	<g>
		<rect x="200.604" y="283.715" width="15.68" height="15.679"/>
	</g>
</g>
<g>
	<g>
		<rect x="248.687" y="219.952" width="14.634" height="15.679"/>
	</g>
</g>
<g>
	<g>
		<rect x="295.726" y="219.952" width="15.68" height="15.679"/>
	</g>
</g>
<g>
	<g>
		<rect x="343.81" y="219.952" width="15.68" height="15.679"/>
	</g>
</g>
<g>
	<g>
		<rect x="200.604" y="219.952" width="15.68" height="15.679"/>
	</g>
</g>
<g>
	<g>
		<rect x="152.52" y="219.952" width="15.68" height="15.679"/>
	</g>
</g>
<g>
	<g>
		<rect x="248.687" y="157.234" width="14.634" height="15.68"/>
	</g>
</g>
<g>
	<g>
		<rect x="248.687" y="471.869" width="14.634" height="15.679"/>
	</g>
</g>
<g>
	<g>
		<path d="M374.119,120.747V61.622c0-16.668-6.503-32.234-18.31-43.805C344.094,6.336,328.441,0,311.734,0
			C287.751,0,266.833,12.92,256,32.119C245.167,12.92,224.248,0,200.266,0c-16.707,0-32.36,6.348-44.075,17.83
			c-11.808,11.571-18.31,27.125-18.31,43.793v59.125c-30.709,24.4-43.322,67.836-28.083,106.521l77.808,197.511
			c4.581,11.627,8.283,23.946,11.864,35.859c1.261,4.197,2.522,8.395,3.824,12.579C210.507,496.415,231.689,512,256,512
			s45.492-15.585,52.706-38.781c1.302-4.185,2.564-8.383,3.825-12.58c3.581-11.913,7.284-24.233,11.864-35.859l77.808-197.511
			C417.442,188.582,404.828,145.148,374.119,120.747z M311.734,15.705c26.19,0,46.706,20.169,46.706,45.918v37.324
			c-3.495-17.723-15.545-32.496-31.69-39.815c-1.515-20.523-18.526-36.368-39.234-36.368c-0.351,0-0.702-0.07-1.052-0.061
			C293.805,18.269,302.466,15.705,311.734,15.705z M279.781,77.791c-0.017,0-0.031,0-0.048,0c6.703-5.227,15.051-7.859,24.09-7.859
			c22.046,0,39.983,17.861,39.983,39.647v31.566c0,8.583-7.42,15.835-16.202,15.835s-16.202-7.252-16.202-15.835V109.58
			C311.401,92.203,297.216,77.791,279.781,77.791z M263.84,57.236c2.311-10.748,12.042-18.792,23.427-18.792
			c10.476,0,19.54,6.493,22.713,16.08c-2.024-0.224-4.076-0.348-6.158-0.348c-15.68,0-29.856,6.446-39.983,16.784V57.236z
			 M263.84,109.15c0-8.362,7.151-15.621,15.941-15.621c7.145,0,13.206,4.836,15.225,11.335c-11.26,2.962-21.776,7.952-31.166,14.765
			V109.15z M248.161,57.236V70.96c-10.127-10.338-24.303-16.784-39.983-16.784c-2.082,0-4.134,0.124-6.158,0.348
			c3.175-9.586,12.237-16.08,22.713-16.08C236.119,38.444,245.848,46.489,248.161,57.236z M232.22,93.529
			c8.79,0,15.941,7.259,15.941,15.621v10.479c-9.39-6.813-19.906-11.802-31.166-14.765C219.012,98.366,225.074,93.529,232.22,93.529
			z M200.6,109.58v31.566c0,8.583-7.42,15.835-16.202,15.835s-16.202-7.252-16.202-15.835V109.58
			c0-21.786,17.936-39.647,39.983-39.647c9.038,0,17.386,2.632,24.09,7.859c-0.017,0-0.031,0-0.048,0
			C214.784,77.791,200.6,92.203,200.6,109.58z M153.561,61.622c0-25.748,20.516-45.899,46.706-45.899
			c9.268,0,17.929,2.582,25.27,7.017c-0.349-0.009-0.7,0.023-1.052,0.023c-20.708,0-37.72,15.845-39.234,36.368
			c-16.146,7.319-28.195,22.092-31.69,39.815V61.622z M387.613,221.522l-11.736,29.789h-9.076v15.68h2.9l-10.217,25.934v-9.209
			h-15.679v15.679h13.131l-31.295,79.443h-14.239v15.679h8.062l-8.062,20.466v-5.832h-15.679v15.68h11.891
			c-3.81,10.401-7.002,20.995-10.098,31.295c-1.246,4.149-2.494,8.298-3.781,12.436c-5.163,16.602-20.327,27.758-37.734,27.758
			c-17.407,0-32.57-11.154-37.735-27.758c-1.286-4.137-2.534-8.287-3.78-12.436c-3.095-10.3-6.289-20.894-10.098-31.295h11.891
			v-15.68H200.6v5.832l-8.062-20.466h8.062v-15.679H186.36l-31.295-79.443h13.131v-15.679h-15.679v9.209L142.3,266.99h2.9v-15.68
			h-9.076l-11.736-29.789c-7.418-18.83-7.184-39.533,0.659-58.296c5.884-14.075,15.428-25.708,27.469-33.754v11.673
			c0,5.875,1.639,11.375,4.482,16.088h-4.482v15.68h15.68v-4.642c4.752,2.784,10.29,4.388,16.202,4.388s11.45-1.605,16.202-4.388
			v4.642h15.679v-15.68h-4.482c2.843-4.713,4.482-10.214,4.482-16.088V120.96c3.418,1.061,6.743,2.358,9.967,3.869h-2.65v15.679
			h16.725v-7.166c3.532,2.679,6.87,5.669,9.973,8.963l5.706,6.056l5.706-6.056c3.103-3.295,6.441-6.283,9.973-8.962v7.164h16.725
			v-15.68h-2.649c3.223-1.51,6.548-2.808,9.966-3.869v20.185c0,5.875,1.639,11.375,4.482,16.088h-4.482v15.68h15.679v-4.642
			c4.752,2.784,10.29,4.388,16.202,4.388s11.45-1.605,16.202-4.388v4.642h15.68v-15.68h-4.482
			c2.843-4.713,4.482-10.214,4.482-16.088v-11.674c12.041,8.045,21.584,19.677,27.467,33.751
			C394.797,181.986,395.031,202.69,387.613,221.522z"/>
	</g>
</g>
<g>
</g>
<g>
</g>
<g>
</g>
<g>
</g>
<g>
</g>
<g>
</g>
<g>
</g>
<g>
</g>
<g>
</g>
<g>
</g>
<g>
</g>
<g>
</g>
<g>
</g>
<g>
</g>
<g>
</g>
</svg>
