<?xml version="1.0" encoding="iso-8859-1"?>
<!-- Generator: Adobe Illustrator 19.0.0, SVG Export Plug-In . SVG Version: 6.00 Build 0)  -->
<svg version="1.1" id="Layer_1" xmlns="http://www.w3.org/2000/svg" xmlns:xlink="http://www.w3.org/1999/xlink" x="0px" y="0px"
	 viewBox="0 0 511.999 511.999" style="enable-background:new 0 0 511.999 511.999;" xml:space="preserve">
<g>
	<g>
		<path d="M0,240.174v191.671h511.71V240.174H0z M496.06,416.195H15.65V255.824h480.41V416.195z"/>
	</g>
</g>
<g>
	<g>
		<path d="M140.32,264.177H51.351c-15.079,0-27.348,12.269-27.348,27.348v88.969c0,15.081,12.269,27.348,27.348,27.348h88.969
			c15.079,0,27.348-12.269,27.348-27.348v-88.969C167.668,276.444,155.399,264.177,140.32,264.177z M152.018,380.494
			c0,6.451-5.248,11.698-11.698,11.698H51.351c-6.45,0-11.698-5.248-11.698-11.698v-88.969c0-6.45,5.248-11.698,11.698-11.698
			h88.969c6.45,0,11.698,5.248,11.698,11.698V380.494z"/>
	</g>
</g>
<g>
	<g>
		<path d="M133.842,288.179H57.829c-5.416,0-9.823,4.407-9.823,9.823v76.013c0,5.417,4.407,9.824,9.823,9.824h76.013
			c5.417,0,9.824-4.407,9.824-9.824v-76.013C143.666,292.586,139.259,288.179,133.842,288.179z M87.36,303.83h16.693v23.583H87.36
			V303.83z M63.656,303.829h8.054v23.583h-8.054V303.829z M128.016,368.189h-8.312v-8.433h-15.65v8.433H87.36v-8.433H71.71v8.433
			h-8.054v-25.127H87.36v8.347h15.65v-8.347h25.006V368.189z M128.016,327.413h-8.312V303.83h8.312V327.413z"/>
	</g>
</g>
<g>
	<g>
		<path d="M255.856,264.177c-39.608,0-71.833,32.224-71.833,71.833c0,39.609,32.224,71.833,71.833,71.833
			s71.833-32.225,71.833-71.833C327.689,296.401,295.464,264.177,255.856,264.177z M255.856,392.192
			c-30.979,0-56.183-25.204-56.183-56.183s25.203-56.183,56.183-56.183s56.183,25.203,56.183,56.183
			C312.038,366.989,286.834,392.192,255.856,392.192z"/>
	</g>
</g>
<g>
	<g>
		<path d="M255.856,288.179c-26.374,0-47.83,21.456-47.83,47.83c0,26.374,21.456,47.83,47.83,47.83s47.83-21.456,47.83-47.83
			C303.685,309.635,282.228,288.179,255.856,288.179z M248.035,304.795v22.617h-23.184
			C227.934,316.31,236.824,307.605,248.035,304.795z M232.385,357.991c-3.856-4.115-6.643-9.238-7.921-14.928h7.921V357.991z
			 M263.685,367.221c-2.508,0.63-5.129,0.968-7.829,0.968c-2.697,0-5.316-0.338-7.821-0.966v-24.161h15.65V367.221z
			 M263.685,304.798c11.206,2.812,20.093,11.515,23.175,22.614h-23.175V304.798z M279.335,357.981v-14.919h7.912
			C285.969,348.749,283.186,353.869,279.335,357.981z"/>
	</g>
</g>
<g>
	<g>
		<path d="M462.48,264.177h-93.21c-13.911,0-25.227,11.317-25.227,25.228v93.21c0,13.911,11.317,25.228,25.227,25.228h93.21
			c13.911,0,25.228-11.317,25.228-25.228v-93.21C487.707,275.494,476.39,264.177,462.48,264.177z M472.057,382.615L472.057,382.615
			c0,5.281-4.297,9.578-9.578,9.578h-93.21c-5.281,0-9.577-4.297-9.577-9.578v-93.21c0-5.281,4.297-9.578,9.577-9.578h93.21
			c5.281,0,9.578,4.297,9.578,9.578V382.615z"/>
	</g>
</g>
<g>
	<g>
		<path d="M453.881,288.179h-76.013c-5.417,0-9.824,4.407-9.824,9.823v76.013c0,5.417,4.407,9.824,9.824,9.824h76.013
			c5.416,0,9.823-4.407,9.823-9.824v-76.013C463.704,292.586,459.298,288.179,453.881,288.179z M407.666,303.83h15.65v23.583h-15.65
			V303.83z M383.694,303.829h8.322v23.583h-8.322V303.829z M448.054,368.189h-9.087v-8.433h-15.65v8.433h-15.65v-8.433h-15.65v8.433
			h-8.322v-25.127h23.972v8.347h15.65v-8.347h24.738V368.189z M448.054,327.413h-9.088V303.83h9.088V327.413z"/>
	</g>
</g>
<g>
	<g>
		<path d="M63.832,80.154C28.635,80.154,0,108.789,0,143.986c0,35.197,28.635,63.832,63.832,63.832
			c35.197,0,63.832-28.635,63.832-63.832C127.663,108.789,99.029,80.154,63.832,80.154z M63.832,192.167
			c-26.568,0-48.181-21.614-48.181-48.182c0-26.568,21.614-48.182,48.181-48.182c26.568,0,48.182,21.614,48.182,48.182
			C112.013,170.553,90.399,192.167,63.832,192.167z"/>
	</g>
</g>
<g>
	<g>
		<path d="M63.832,104.157c-21.961,0-39.828,17.867-39.828,39.828s17.867,39.829,39.828,39.829
			c21.961,0,39.829-17.867,39.829-39.829C103.66,122.025,85.793,104.157,63.832,104.157z M63.832,168.164
			c-13.332,0-24.178-10.847-24.178-24.178c0-13.332,10.847-24.178,24.178-24.178c13.332,0,24.178,10.847,24.178,24.178
			C88.01,157.318,77.163,168.164,63.832,168.164z"/>
	</g>
</g>
<g>
	<g>
		<rect x="167.696" y="176.126" width="231.622" height="15.65"/>
	</g>
</g>
<g>
	<g>
		<rect x="407.665" y="176.126" width="80.337" height="15.65"/>
	</g>
</g>
<g>
	<g>
		<rect x="496.349" y="176.126" width="15.65" height="15.65"/>
	</g>
</g>
<g>
	<g>
		<rect x="167.696" y="144.826" width="231.622" height="15.65"/>
	</g>
</g>
<g>
	<g>
		<rect x="407.665" y="144.826" width="80.337" height="15.65"/>
	</g>
</g>
<g>
	<g>
		<rect x="496.349" y="144.826" width="15.65" height="15.65"/>
	</g>
</g>
<g>
	<g>
		<polygon points="198.998,136.481 198.998,111.441 143.701,111.441 143.701,224.122 198.998,224.122 198.998,200.125 
			183.347,200.125 183.347,208.472 159.351,208.472 159.351,127.091 183.347,127.091 183.347,136.481 		"/>
	</g>
</g>
<g>
</g>
<g>
</g>
<g>
</g>
<g>
</g>
<g>
</g>
<g>
</g>
<g>
</g>
<g>
</g>
<g>
</g>
<g>
</g>
<g>
</g>
<g>
</g>
<g>
</g>
<g>
</g>
<g>
</g>
</svg>
