<?xml version="1.0" encoding="iso-8859-1"?>
<!-- Generator: Adobe Illustrator 19.0.0, SVG Export Plug-In . SVG Version: 6.00 Build 0)  -->
<svg version="1.1" id="Layer_1" xmlns="http://www.w3.org/2000/svg" xmlns:xlink="http://www.w3.org/1999/xlink" x="0px" y="0px"
	 viewBox="0 0 512 512" style="enable-background:new 0 0 512 512;" xml:space="preserve">
<g>
	<g>
		<path d="M512,252.198h-59.151c1.983-3.883,3.108-8.274,3.108-12.925v-20.504c9.497-3.291,16.524-12.34,16.524-22.692
			c0-12.932-11.141-23.858-24.33-23.858H288.026c-13.068,0-23.699,10.667-23.699,23.776v0.141c0,10.446,6.651,19.347,15.894,22.617
			v20.52c0,4.651,1.126,9.042,3.108,12.925h-54.654c1.983-3.883,3.108-8.274,3.108-12.925V218.75
			c9.243-3.274,15.894-12.188,15.894-22.675c0-13.155-10.632-23.858-23.699-23.858H63.849c-13.416,0-24.33,10.667-24.33,23.776
			v0.141c0,10.312,7.028,19.348,16.524,22.635v20.503c0,4.651,1.126,9.042,3.108,12.925H0v47.637h23.908v39.948h47.876v-39.948
			h368.434v39.948h47.876v-39.948H512L512,252.198L512,252.198z M450.854,188.277c3.414,1.132,6.016,4.297,6.016,7.837
			c0,4.458-4.074,8.368-8.719,8.368h-13.502L450.854,188.277z M399.627,187.83h29.595l-16.652,16.652h-12.943V187.83z
			 M399.627,220.094h8.326v8.326h15.612v-8.326h16.78v8.326h-8.454v15.612h7.535c-1.9,4.776-6.561,8.166-12.006,8.166h-3.855v-8.166
			h-15.612v8.166h-8.326V220.094z M351.751,187.83h32.264v64.368h-32.264V187.83z M331.206,187.83h4.933v16.652h-21.586
			L331.206,187.83z M327.813,228.42v-8.326h8.326v32.104h-8.326v-8.166h-15.612v8.166h-3.446c-5.444,0-10.105-3.39-12.005-8.166
			h7.125V228.42h-8.044v-8.326h16.37v8.326H327.813z M279.938,196.135v-0.141c0-4.578,3.552-8.165,8.088-8.165h21.103
			l-16.652,16.652h-4.45C283.566,204.482,279.938,200.738,279.938,196.135z M226.65,188.305c3.147,1.13,5.412,4.189,5.412,7.81
			c0,4.614-3.628,8.368-8.088,8.368h-13.503L226.65,188.305z M175.86,187.83h29.186l-16.652,16.652H175.86V187.83z M175.86,220.094
			h8.326v8.326h15.612v-8.326h16.37v8.326h-8.044v15.612h7.125c-1.9,4.776-6.561,8.166-12.006,8.166h-3.446v-8.166h-15.611v8.166
			h-8.326V220.094z M127.985,187.83h32.264v64.368h-32.264V187.83z M107.031,187.83h5.342v16.652H90.379L107.031,187.83z
			 M104.047,228.42v-8.326h8.326v32.104h-8.326v-8.166H88.436v8.166h-3.855c-5.444,0-10.105-3.39-12.005-8.166h7.534V228.42h-8.454
			v-8.326h16.78v8.326H104.047z M55.131,196.135v-0.141c0-4.349,4.075-8.165,8.719-8.165h21.104l-16.652,16.652h-4.451
			C59.205,204.482,55.131,200.581,55.131,196.135z M56.172,324.171H39.519v-24.336h16.652V324.171z M472.481,324.171h-16.652
			v-24.336h16.652V324.171z M496.389,284.223h-0.001H15.612v-16.414h68.97h118.663h105.513h118.664h68.969V284.223z"/>
	</g>
</g>
<g>
</g>
<g>
</g>
<g>
</g>
<g>
</g>
<g>
</g>
<g>
</g>
<g>
</g>
<g>
</g>
<g>
</g>
<g>
</g>
<g>
</g>
<g>
</g>
<g>
</g>
<g>
</g>
<g>
</g>
</svg>
