<?xml version="1.0" encoding="iso-8859-1"?>
<!-- Generator: Adobe Illustrator 19.0.0, SVG Export Plug-In . SVG Version: 6.00 Build 0)  -->
<svg version="1.1" id="Layer_1" xmlns="http://www.w3.org/2000/svg" xmlns:xlink="http://www.w3.org/1999/xlink" x="0px" y="0px"
	 viewBox="0 0 512 512" style="enable-background:new 0 0 512 512;" xml:space="preserve">
<g>
	<g>
		<path d="M424.438,152.096c-20.481,0-39.748,6.997-55.177,19.66v-27.777h-15.515v29.393c-15.823-13.539-36.251-21.275-57.43-21.275
			c-14.791,0-28.734,3.638-40.997,10.031c-11.943-5.866-24.747-8.841-38.152-8.841h-0.989v-16.549h-54.82V96.397h-15.515v40.339
			H88.954v16.559C39.871,153.49,0,192.196,0,239.754v23.971c0,83.746,68.395,151.878,152.462,151.878
			c39.001,0,76.575-14.698,104.392-40.573c27.119,24.984,63.348,40.275,103.097,40.275c83.84,0,152.048-67.999,152.048-151.581
			v-23.971C512,191.419,472.72,152.096,424.438,152.096z M104.469,152.253h96.194v1.033v0.527l-33.27,8.416l9.019,35.243
			l-0.308,0.311l-22.906-15.3l-22.958,15.322l-0.41-0.411l8.482-35.231l-32.809-8.126v-0.752h-1.034V152.253z M152.462,400.089
			c-36.388,0-70.719-14.212-96.669-40.017c-25.973-25.83-40.278-60.047-40.278-96.347v-23.971c0-39.124,33.11-70.953,73.809-70.953
			h11.248l19.049,4.719l-6.908,28.692l15.548,15.569l24.934-16.639l24.942,16.66l15.483-15.668l-7.34-28.678l18.398-4.655h12.488
			c7.794,0,15.342,1.229,22.571,3.655c-19.44,16.094-31.835,40.286-31.835,67.299v23.971c0,38.391,14.398,73.486,38.082,100.223
			C221.053,386.999,187.412,400.089,152.462,400.089z M496.485,263.725c0,75.027-61.249,136.066-136.533,136.066
			s-136.533-61.039-136.533-136.066v-23.971c0-39.78,32.702-72.144,72.897-72.144c22.773,0,44.489,10.841,58.089,28.999l6.209,8.29
			l6.209-8.29c13.803-18.429,34.803-28.999,57.615-28.999c39.727,0,72.047,32.364,72.047,72.144V263.725z"/>
	</g>
</g>
<g>
	<g>
		<path d="M329.029,271.48c13.089,0,23.738-10.649,23.738-23.738v-7.99c0-15.193-6.006-29.391-16.913-39.974
			c-10.902-10.577-25.265-16.153-40.494-15.696c-29.575,0.888-53.672,26.433-53.989,57.075c-0.638,4.392-3.669,29.085,3.941,57.852
			c7.673,29.005,27.971,67.635,81.103,86.957c2.136,0.777,4.366,1.158,6.589,1.158c3.957,0,7.892-1.209,11.237-3.553
			c5.338-3.739,8.525-9.85,8.525-16.35v-39.576c0-13.089-10.649-23.738-23.738-23.738c-4.534,0-8.223-3.688-8.223-8.223v-15.981
			C320.806,275.17,324.494,271.48,329.029,271.48z M329.029,319.425c4.534,0,8.223,3.688,8.223,8.223v39.576
			c0,2.079-1.336,3.24-1.91,3.642c-0.645,0.452-1.977,1.12-3.621,0.521c-37.41-13.605-61.388-39.113-71.265-75.815
			c-7.521-27.947-3.71-52.308-3.673-52.539l0.104-0.628v-0.637c0-22.611,17.469-41.53,38.942-42.174
			c0.417-0.012,0.833-0.019,1.248-0.019c10.516,0,20.409,4.002,27.975,11.344c7.868,7.636,12.202,17.879,12.202,28.84v7.987h-0.002
			c0,4.534-3.688,8.223-8.223,8.223c-13.089,0-23.738,10.649-23.738,23.738v15.981C305.291,308.776,315.939,319.425,329.029,319.425
			z"/>
	</g>
</g>
<g>
	<g>
		<path d="M480.606,241.159c-0.315-30.645-24.413-56.19-53.988-57.077c-15.226-0.459-29.592,5.119-40.494,15.698
			c-10.906,10.583-16.913,24.781-16.913,39.974v7.99c0,13.089,10.649,23.738,23.738,23.738c4.535,0,8.223,3.688,8.223,8.223v15.981
			c0,4.534-3.688,8.223-8.223,8.223c-13.089,0-23.738,10.649-23.738,23.738v39.576c0,6.499,3.187,12.611,8.525,16.35
			c3.345,2.343,7.28,3.553,11.237,3.553c2.222,0,4.453-0.382,6.588-1.158c53.132-19.323,73.43-57.952,81.103-86.957
			C484.274,270.242,481.244,245.551,480.606,241.159z M461.666,295.041c-9.783,36.985-33.809,62.671-71.407,76.344
			c-1.647,0.599-2.977-0.069-3.621-0.521c-0.575-0.402-1.911-1.563-1.911-3.642v-39.576c0-4.534,3.688-8.223,8.223-8.223
			c13.09,0,23.738-10.649,23.738-23.738v-15.981c0-13.089-10.649-23.738-23.738-23.738c-4.534,0-8.223-3.688-8.223-8.223v-7.99
			c0-10.962,4.333-21.204,12.202-28.84c7.566-7.343,17.458-11.344,27.975-11.344c0.415,0,0.832,0.006,1.248,0.019
			c21.473,0.644,38.942,19.565,38.942,42.174v0.637l0.104,0.631C465.237,243.268,469.046,267.142,461.666,295.041z"/>
	</g>
</g>
<g>
	<g>
		
			<rect x="299.217" y="212.734" transform="matrix(0.7374 -0.6754 0.6754 0.7374 -68.4796 265.2937)" width="15.515" height="15.98"/>
	</g>
</g>
<g>
	<g>
		
			<rect x="279.364" y="241.059" transform="matrix(0.3829 -0.9238 0.9238 0.3829 -52.8858 418.9301)" width="15.515" height="15.981"/>
	</g>
</g>
<g>
	<g>
		
			<rect x="273.182" y="275.428" transform="matrix(0.9991 -0.0433 0.0433 0.9991 -11.9977 12.4398)" width="15.981" height="15.516"/>
	</g>
</g>
<g>
	<g>
		
			<rect x="282.055" y="308.76" transform="matrix(0.8871 -0.4616 0.4616 0.8871 -113.3538 169.6207)" width="15.981" height="15.515"/>
	</g>
</g>
<g>
	<g>
		
			<rect x="304.304" y="335.262" transform="matrix(0.6089 -0.7932 0.7932 0.6089 -149.9618 381.8685)" width="15.98" height="15.515"/>
	</g>
</g>
<g>
	<g>
		
			<rect x="401.822" y="335.039" transform="matrix(0.7935 -0.6086 0.6086 0.7935 -124.1801 320.1054)" width="15.515" height="15.981"/>
	</g>
</g>
<g>
	<g>
		<rect x="424.04" y="308.567" transform="matrix(0.4619 -0.8869 0.8869 0.4619 -48.4181 553.307)" width="15.515" height="15.98"/>
	</g>
</g>
<g>
	<g>
		<rect x="433.039" y="275.189" transform="matrix(0.0439 -0.999 0.999 0.0439 138.539 711.1191)" width="15.515" height="15.98"/>
	</g>
</g>
<g>
	<g>
		
			<rect x="426.744" y="241.298" transform="matrix(0.924 -0.3825 0.3825 0.924 -62.2037 185.2179)" width="15.981" height="15.516"/>
	</g>
</g>
<g>
	<g>
		
			<rect x="406.911" y="212.993" transform="matrix(0.6757 -0.7371 0.7371 0.6757 -28.1874 377.4214)" width="15.98" height="15.514"/>
	</g>
</g>
<g>
	<g>
		<g>
			<polygon points="33.624,255.687 33.624,255.687 33.624,255.686 			"/>
			<path d="M71.557,322.965c-14.666-19.519-22.417-42.454-22.417-67.278H33.624c0,27.927,8.828,54.382,25.529,76.61L71.557,322.965z
				"/>
		</g>
	</g>
</g>
<g>
	<g>
		<path d="M85.017,337.931l-10.552,11.375c5.76,5.344,12.045,10.18,18.678,14.373l8.29-13.115
			C95.603,346.878,90.08,342.629,85.017,337.931z"/>
	</g>
</g>
<g>
</g>
<g>
</g>
<g>
</g>
<g>
</g>
<g>
</g>
<g>
</g>
<g>
</g>
<g>
</g>
<g>
</g>
<g>
</g>
<g>
</g>
<g>
</g>
<g>
</g>
<g>
</g>
<g>
</g>
</svg>
