<?xml version="1.0" encoding="iso-8859-1"?>
<!-- Generator: Adobe Illustrator 19.0.0, SVG Export Plug-In . SVG Version: 6.00 Build 0)  -->
<svg version="1.1" id="Layer_1" xmlns="http://www.w3.org/2000/svg" xmlns:xlink="http://www.w3.org/1999/xlink" x="0px" y="0px"
	 viewBox="0 0 512 512" style="enable-background:new 0 0 512 512;" xml:space="preserve">
<g>
	<g>
		<rect x="196.319" y="448.131" width="48.164" height="15.706"/>
	</g>
</g>
<g>
	<g>
		<path d="M404.679,54.446h-87.951V190.56h-8.376V62.822v-7.329v-1.047V0H188.99v54.446h-40.834v1.047h-1.047v18.946l49.211,40.08
			v208.264c-25.282,10.48-46.872,27.655-62.682,49.93c-17.215,24.255-26.316,52.89-26.316,82.809V512h1.047h286.888v-56.478
			c0-29.917-8.855-58.525-25.608-82.732c-8.664-12.518-19.121-23.426-31.009-32.442l66.041-65.96V54.446z M204.695,38.74h15.706
			V23.035h-15.706v-7.329h87.951v38.74h-7.329v-7.329h-17.8v7.329h-31.411V38.74h-15.706v15.706h-15.706V38.74z M124.074,463.836
			h23.035v-15.706h-22.802c0.179-3.163,0.472-6.304,0.88-9.423h55.428v-15.706h-52.371c0.736-2.822,1.572-5.614,2.5-8.376h121.069
			v57.587H124.074V463.836z M379.55,455.521v40.774H124.074v-8.376h143.444V398.92H137.201c2.923-5.929,6.318-11.66,10.177-17.141
			c14.892-21.154,35.49-37.164,59.573-46.302l5.073-1.886v-0.039V107.106v-0.051l-2.886-2.351l-40.263-33.506h123.77v262.315v0.04
			l5.031,1.909C346.648,354.431,379.55,402.677,379.55,455.521z M388.973,267.875l-63.627,63.549
			c-5.444-3.227-11.112-6.108-16.994-8.6V206.266h24.082V70.151h56.54V267.875z"/>
	</g>
</g>
<g>
	<g>
		<rect x="260.188" y="23.035" width="15.706" height="15.706"/>
	</g>
</g>
<g>
	<g>
		<polygon points="251.812,78.528 251.812,94.233 267.517,94.233 267.517,279.558 283.223,279.558 283.223,78.528 		"/>
	</g>
</g>
<g>
	<g>
		<rect x="267.517" y="295.264" width="15.706" height="23.035"/>
	</g>
</g>
<g>
	<g>
		<rect x="285.317" y="463.836" width="78.528" height="15.706"/>
	</g>
</g>
<g>
</g>
<g>
</g>
<g>
</g>
<g>
</g>
<g>
</g>
<g>
</g>
<g>
</g>
<g>
</g>
<g>
</g>
<g>
</g>
<g>
</g>
<g>
</g>
<g>
</g>
<g>
</g>
<g>
</g>
</svg>
