<?xml version="1.0" encoding="iso-8859-1"?>
<!-- Generator: Adobe Illustrator 19.0.0, SVG Export Plug-In . SVG Version: 6.00 Build 0)  -->
<svg version="1.1" id="Layer_1" xmlns="http://www.w3.org/2000/svg" xmlns:xlink="http://www.w3.org/1999/xlink" x="0px" y="0px"
	 viewBox="0 0 512 512" style="enable-background:new 0 0 512 512;" xml:space="preserve">
<g>
	<g>
		<rect x="184.341" y="464.746" width="15.578" height="15.578"/>
	</g>
</g>
<g>
	<g>
		<rect x="223.805" y="472.016" width="16.617" height="15.578"/>
	</g>
</g>
<g>
	<g>
		<rect x="288.195" y="456.438" width="15.578" height="15.578"/>
	</g>
</g>
<g>
	<g>
		<rect x="279.886" y="279.886" width="16.617" height="15.578"/>
	</g>
</g>
<g>
	<g>
		<rect x="279.886" y="223.805" width="16.617" height="15.578"/>
	</g>
</g>
<g>
	<g>
		<rect x="247.692" y="208.227" width="16.617" height="15.578"/>
	</g>
</g>
<g>
	<g>
		<rect x="296.503" y="167.724" width="15.578" height="15.578"/>
	</g>
</g>
<g>
	<g>
		<rect x="191.611" y="192.649" width="16.617" height="15.578"/>
	</g>
</g>
<g>
	<g>
		<rect x="208.227" y="223.805" width="15.578" height="15.578"/>
	</g>
</g>
<g>
	<g>
		<rect x="240.422" y="160.454" width="15.578" height="15.578"/>
	</g>
</g>
<g>
	<g>
		<rect x="256" y="136.568" width="15.578" height="15.578"/>
	</g>
</g>
<g>
	<g>
		<rect x="208.227" y="119.951" width="15.578" height="15.578"/>
	</g>
</g>
<g>
	<g>
		<rect x="223.805" y="408.665" width="16.617" height="15.578"/>
	</g>
</g>
<g>
	<g>
		<rect x="199.919" y="408.665" width="15.578" height="15.578"/>
	</g>
</g>
<g>
	<g>
		<path d="M295.817,31.675V0h-79.633v31.675h-7.956v15.578h95.546V31.675H295.817z M280.238,31.675h-48.477V15.578h0h48.477V31.675z
			"/>
	</g>
</g>
<g>
	<g>
		<path d="M288.401,96.083h-0.592V55.83h-15.578v16.349h-7.923v15.578h7.923v23.904h16.17c21.989,0,39.877,17.889,39.877,39.877
			v97.193h-16.197v15.578h16.198v64.389h-40.085V448.13h40.085v28.854c0,10.718-8.72,19.438-19.438,19.438H203.159
			c-10.718,0-19.438-8.72-19.438-19.438V448.13h87.857V312.081h8.308v-15.578h-8.308V256h-87.857V151.537
			c0-21.989,17.889-39.877,39.877-39.877h16.17V55.83H224.19v40.253h-0.592c-30.578,0-55.455,24.877-55.455,55.455v325.446
			c0,19.309,15.708,35.016,35.016,35.016h105.682c19.309,0,35.016-15.708,35.016-35.016V151.537
			C343.857,120.96,318.98,96.083,288.401,96.083z M183.721,424.243h7.89v-15.578h-7.89v-57.12h24.506v-15.578h-24.506v-23.886
			h56.701v-15.578h-56.701v-24.925H256v160.974h-72.279V424.243z M328.279,359.854h-16.198v15.578h16.198v9.347h-7.89v15.578h7.89
			v8.308h-7.89v15.578h7.89v8.308h-24.506v-88.276h24.506V359.854z"/>
	</g>
</g>
<g>
</g>
<g>
</g>
<g>
</g>
<g>
</g>
<g>
</g>
<g>
</g>
<g>
</g>
<g>
</g>
<g>
</g>
<g>
</g>
<g>
</g>
<g>
</g>
<g>
</g>
<g>
</g>
<g>
</g>
</svg>
