<?xml version="1.0" encoding="iso-8859-1"?>
<!-- Generator: Adobe Illustrator 19.0.0, SVG Export Plug-In . SVG Version: 6.00 Build 0)  -->
<svg version="1.1" id="Layer_1" xmlns="http://www.w3.org/2000/svg" xmlns:xlink="http://www.w3.org/1999/xlink" x="0px" y="0px"
	 viewBox="0 0 512 512" style="enable-background:new 0 0 512 512;" xml:space="preserve">
<g>
	<g>
		<path d="M320.039,35.972H191.96C86.114,35.972,0,122.086,0,227.933c0,25.125,4.744,49.385,14.091,72.298H8.263v7.849
			c0,92.605,75.367,167.947,167.972,167.947c49.701,0,94.428-21.709,125.212-56.133h18.592C425.887,419.895,512,333.781,512,227.933
			S425.887,35.972,320.039,35.972z M191.96,51.671h128.078c75.797,0,140.569,48.093,165.414,115.365
			c-12.607-13.495-29.515-25.871-50.384-36.642c-47.962-24.754-111.557-38.388-179.07-38.388s-131.107,13.632-179.07,38.388
			c-20.869,10.771-37.778,23.147-50.384,36.642C51.392,99.764,116.164,51.671,191.96,51.671z M175.951,460.329
			c-81.316,0-147.947-64.084-152.049-144.4h8.365c4.343,75.635,67.124,135.559,143.684,135.559
			c76.559,0,139.339-59.925,143.683-135.559h8.365C323.898,396.245,257.267,460.329,175.951,460.329z M26.376,288.484
			c3.715,4.02,7.796,7.943,12.25,11.748h-7.467C29.413,296.36,27.829,292.441,26.376,288.484z M47.995,315.93h255.912
			c-4.303,67.215-60.044,119.861-127.956,119.861S52.298,383.145,47.995,315.93z M320.039,404.196h-6.144
			c10.202-14.563,18.151-30.809,23.344-48.234l0.171,0.969c49.745-8.745,92.588-25.102,123.896-47.302
			c9.294-6.591,17.36-13.554,24.157-20.821C460.624,356.093,395.845,404.196,320.039,404.196z M452.227,296.824
			c-27.671,19.622-66.944,34.951-111.13,43.461c2.034-10.427,3.111-21.192,3.111-32.204v-7.849H64.776v-0.001
			c-28.194-18.609-45.081-40.958-48.442-63.84h7.628v-15.698h-7.805c3.465-28.466,27.282-55.346,67.975-76.35
			c45.777-23.627,106.815-36.639,171.87-36.639c65.054,0,126.091,13.012,171.87,36.639c40.694,21.003,64.511,47.883,67.976,76.35
			h-8.259v15.698h8.106C492.609,257.988,477.746,278.728,452.227,296.824z"/>
	</g>
</g>
<g>
	<g>
		<rect x="32.333" y="212.325" width="15.698" height="39.769"/>
	</g>
</g>
<g>
	<g>
		<rect x="464.555" y="212.325" width="15.698" height="39.769"/>
	</g>
</g>
<g>
	<g>
		<rect x="127.565" y="340.005" width="15.698" height="24.071"/>
	</g>
</g>
<g>
	<g>
		<rect x="151.646" y="396.519" width="15.698" height="23.024"/>
	</g>
</g>
<g>
	<g>
		<rect x="176.763" y="331.633" width="15.698" height="25.117"/>
	</g>
</g>
<g>
	<g>
		<rect x="208.16" y="364.076" width="15.698" height="24.071"/>
	</g>
</g>
<g>
	<g>
		<rect x="231.184" y="331.633" width="15.698" height="25.117"/>
	</g>
</g>
<g>
	<g>
		<rect x="88.842" y="356.75" width="15.698" height="23.024"/>
	</g>
</g>
<g>
</g>
<g>
</g>
<g>
</g>
<g>
</g>
<g>
</g>
<g>
</g>
<g>
</g>
<g>
</g>
<g>
</g>
<g>
</g>
<g>
</g>
<g>
</g>
<g>
</g>
<g>
</g>
<g>
</g>
</svg>
