<?xml version="1.0" encoding="iso-8859-1"?>
<!-- Generator: Adobe Illustrator 19.0.0, SVG Export Plug-In . SVG Version: 6.00 Build 0)  -->
<svg version="1.1" id="Layer_1" xmlns="http://www.w3.org/2000/svg" xmlns:xlink="http://www.w3.org/1999/xlink" x="0px" y="0px"
	 viewBox="0 0 511.998 511.998" style="enable-background:new 0 0 511.998 511.998;" xml:space="preserve">
<g>
	<g>
		<path d="M208.135,0v55.7h95.726V0H208.135z M231.966,40.027h-8.158V15.673h8.158V40.027z M264.358,40.027H247.64V15.673h16.718
			V40.027z M288.189,40.027h-0.001h-8.156V15.673h8.158V40.027z"/>
	</g>
</g>
<g>
	<g>
		<path d="M333.588,293.563c6.642-6.643,10.301-15.476,10.301-24.869V127.915c0-17.564-14.289-31.852-31.853-31.852
			c-8.92,0-16.178-7.258-16.178-16.179v-0.472h8.207V63.739h-96.131v15.673h8.208v0.471c0,8.921-7.258,16.179-16.179,16.179
			c-17.564,0-31.853,14.289-31.853,31.852v140.779c0,9.393,3.658,18.224,10.301,24.869c3.682,3.681,5.709,8.578,5.709,13.784v9.379
			c0,5.207-2.028,10.103-5.709,13.784c-6.642,6.642-10.301,15.475-10.301,24.867v135.08c0,11.877,9.663,21.541,21.541,21.541
			h132.697c11.878,0,21.542-9.663,21.542-21.541V355.378c0-9.394-3.658-18.225-10.301-24.867c-3.682-3.682-5.71-8.579-5.71-13.785
			v-9.379C327.877,302.141,329.905,297.244,333.588,293.563z M328.215,232.153h-33.473c10.545-10.168,17.125-24.423,17.125-40.195
			c0-15.772-6.579-30.026-17.125-40.195h33.473V232.153z M255.999,232.153c-22.163,0-40.195-18.032-40.195-40.195
			s18.031-40.195,40.195-40.195c22.163,0,40.195,18.032,40.195,40.195S278.162,232.153,255.999,232.153z M183.783,127.915
			c0-8.92,7.258-16.178,16.179-16.178c17.564,0,31.853-14.289,31.853-31.853v-0.472h48.369v0.471
			c0,17.565,14.289,31.853,31.852,31.853c8.921,0,16.179,7.258,16.179,16.178v8.174H183.783V127.915z M183.783,151.763h33.472
			c-10.545,10.169-17.125,24.423-17.125,40.195c0,15.772,6.58,30.026,17.125,40.195h-33.472V151.763z M318.445,287.347
			c-3.436,4.947-5.53,10.669-6.087,16.718h-40.686v15.673h40.666c0.696,8.256,4.239,15.928,10.166,21.856
			c3.682,3.681,5.71,8.577,5.71,13.783v29.144h-87.89v15.673h87.89v63.739h-87.89v15.673h87.89v10.851
			c0,3.236-2.633,5.867-5.868,5.867H189.65c-3.235,0-5.867-2.632-5.867-5.867v-10.851h32.51v-15.673h-32.51v-24.033h111.922v-15.673
			H183.783v-64.784h111.922v-15.673H187.64c0.566-0.76,1.171-1.495,1.854-2.178c5.927-5.928,9.469-13.599,10.165-21.855h40.667
			v-15.673h-40.687c-0.557-6.05-2.651-11.772-6.087-16.718h102.153v-15.673H184.032c-0.149-0.979-0.249-1.97-0.249-2.979v-20.869
			h144.432v20.869h0c0,1.008-0.099,2-0.249,2.979h-15.543v15.673H318.445z"/>
	</g>
</g>
<g>
	<g>
		<rect x="240.325" y="104.49" width="31.347" height="15.673"/>
	</g>
</g>
<g>
	<g>
		<rect x="231.966" y="176.588" width="48.065" height="15.673"/>
	</g>
</g>
<g>
	<g>
		<rect x="247.64" y="200.62" width="16.718" height="15.673"/>
	</g>
</g>
<g>
</g>
<g>
</g>
<g>
</g>
<g>
</g>
<g>
</g>
<g>
</g>
<g>
</g>
<g>
</g>
<g>
</g>
<g>
</g>
<g>
</g>
<g>
</g>
<g>
</g>
<g>
</g>
<g>
</g>
</svg>
