<?xml version="1.0" encoding="iso-8859-1"?>
<!-- Generator: Adobe Illustrator 19.0.0, SVG Export Plug-In . SVG Version: 6.00 Build 0)  -->
<svg version="1.1" id="Layer_1" xmlns="http://www.w3.org/2000/svg" xmlns:xlink="http://www.w3.org/1999/xlink" x="0px" y="0px"
	 viewBox="0 0 512.002 512.002" style="enable-background:new 0 0 512.002 512.002;" xml:space="preserve">
<g>
	<g>
		<path d="M290.204,6.909C279.367,2.324,267.859,0,256.001,0c-11.858,0-23.366,2.324-34.203,6.909
			c-38.762,16.395-59.398,60.68-48.001,103.012l52.207,193.912h15.131l0.002,0.013h7.338l-0.208,24.418h-16.079v127.692h15.493
			v9.921c-9.039,3.382-15.493,12.106-15.493,22.31c0,13.132,10.683,23.815,23.814,23.815c13.13,0,23.813-10.683,23.813-23.815
			c0-10.593-6.953-19.587-16.533-22.671v-9.56h16.533V328.263h-15.945l0.208-24.418h6.79l0.002-0.013h15.131l52.207-193.912
			C349.602,67.589,328.966,23.304,290.204,6.909z M237.96,288.231l-49.099-182.367c-7.526-27.954,1.79-56.875,22.092-74.13
			c-1.807,5.035-2.799,10.456-2.799,16.105v0.5l30.964,239.892H237.96z M264.213,488.185c0,4.529-3.684,8.213-8.212,8.213
			c-4.529,0-8.212-3.684-8.212-8.213c0-4.529,3.684-8.213,8.212-8.213C260.529,479.973,264.213,483.657,264.213,488.185z
			 M264.213,440.353h-16.423v-72.02h16.423V440.353z M264.213,343.865v8.866h-16.423v-8.866H264.213z M263.678,237.634
			L263.282,56.28l-15.602,0.034l-0.03,181.319L223.774,47.364c0.213-14.689,10.301-27.023,23.906-30.664v31.275h15.602V16.444
			c14.128,3.276,24.729,15.862,24.946,30.923L263.678,237.634z M323.141,105.864l-49.099,182.367h-1.16L303.777,48.84l0.071-0.498
			v-0.5c0-5.651-0.991-11.072-2.799-16.108C321.35,48.99,330.667,77.909,323.141,105.864z"/>
	</g>
</g>
<g>
</g>
<g>
</g>
<g>
</g>
<g>
</g>
<g>
</g>
<g>
</g>
<g>
</g>
<g>
</g>
<g>
</g>
<g>
</g>
<g>
</g>
<g>
</g>
<g>
</g>
<g>
</g>
<g>
</g>
</svg>
