<?xml version="1.0" encoding="iso-8859-1"?>
<!-- Generator: Adobe Illustrator 19.0.0, SVG Export Plug-In . SVG Version: 6.00 Build 0)  -->
<svg version="1.1" id="Layer_1" xmlns="http://www.w3.org/2000/svg" xmlns:xlink="http://www.w3.org/1999/xlink" x="0px" y="0px"
	 viewBox="0 0 512 512" style="enable-background:new 0 0 512 512;" xml:space="preserve">
<g>
	<g>
		<path d="M136.192,0v191.805c0,57.298,40.435,105.321,94.266,117.057c-3.936,5.294-6.269,11.848-6.269,18.937
			c0,10.462,5.077,19.757,12.897,25.559c-3.068,4.009-4.896,9.014-4.896,14.441c0,9.892,6.064,18.39,14.668,21.983v57.647h15.622
			v-56.722c9.989-2.83,17.331-12.024,17.331-22.907c0-5.426-1.829-10.433-4.896-14.441c7.818-5.801,12.896-15.097,12.896-25.559
			c0-7.089-2.333-13.643-6.269-18.937c53.831-11.736,94.266-59.759,94.266-117.057V0H136.192z M255.999,375.987
			c-4.515,0-8.188-3.673-8.188-8.188c0-4.515,3.673-8.188,8.188-8.188s8.188,3.673,8.188,8.188
			C264.187,372.313,260.514,375.987,255.999,375.987z M255.999,343.988c-8.927,0-16.188-7.262-16.188-16.189
			c0-8.925,7.262-16.188,16.188-16.188c8.926,0,16.188,7.262,16.188,16.188C272.187,336.726,264.924,343.988,255.999,343.988z
			 M360.184,191.805c0,57.447-46.738,104.185-104.185,104.185c-57.448,0-104.185-46.738-104.185-104.185V15.622h208.369V191.805z"/>
	</g>
</g>
<g>
	<g>
		<path d="M294.764,496.378v-16.664h-7.811c-12.059,0-22.084-8.515-23.895-20.156c0.114-1.248,0.174-2.514,0.174-3.798h-0.468
			h-15.154h-0.468c0,1.285,0.06,2.552,0.174,3.799c-1.811,11.64-11.835,20.155-23.895,20.155h-7.811v16.664h-24.996V512H319.76
			v-15.622H294.764z M279.142,496.378h-47.908v-1.543c9.724-1.945,18.18-7.307,23.954-14.891
			c5.774,7.584,14.23,12.946,23.954,14.891V496.378z"/>
	</g>
</g>
<g>
	<g>
		<path d="M334.363,106.784c-9.602,3.2-19.869,3.597-29.69,1.14c-10.91-2.728-22.441-2.728-33.351,0l-2.436,0.609
			c-8.431,2.106-17.344,2.108-25.774,0l-2.436-0.609c-10.91-2.728-22.442-2.729-33.351,0c-9.821,2.455-20.087,2.061-29.69-1.14
			l-17.445-5.816v87.918c0,53.48,42.176,97.761,94.017,98.711c0.605,0.011,1.207,0.017,1.81,0.017
			c25.269,0,49.037-9.705,67.102-27.441c18.5-18.164,28.688-42.445,28.688-68.368v-90.836L334.363,106.784z M336.186,191.805
			c0,21.696-8.528,42.018-24.01,57.22c-15.48,15.198-35.956,23.346-57.681,22.951c-43.385-0.795-78.681-38.068-78.681-83.089
			v-66.323c11.514,3.243,23.649,3.431,35.301,0.518c8.43-2.109,17.343-2.108,25.773-0.001l2.437,0.61
			c10.909,2.727,22.442,2.727,33.351,0l2.437-0.609c8.43-2.109,17.343-2.109,25.773,0c11.651,2.913,23.785,2.727,35.301-0.518
			V191.805z"/>
	</g>
</g>
<g>
	<g>
		<path d="M304.185,199.555c0,22.913-17.753,40.436-40.666,40.436v15.622c31.244,0.001,56.288-24.813,56.288-56.058H304.185z"/>
	</g>
</g>
<g>
	<g>
		<rect x="167.708" y="24.586" width="80.194" height="15.622"/>
	</g>
</g>
<g>
	<g>
		<rect x="264.566" y="24.586" width="23.954" height="15.622"/>
	</g>
</g>
<g>
</g>
<g>
</g>
<g>
</g>
<g>
</g>
<g>
</g>
<g>
</g>
<g>
</g>
<g>
</g>
<g>
</g>
<g>
</g>
<g>
</g>
<g>
</g>
<g>
</g>
<g>
</g>
<g>
</g>
</svg>
